<svg xmlns="http://www.w3.org/2000/svg" xmlns:xlink="http://www.w3.org/1999/xlink" xmlns:inkscape="http://www.inkscape.org/namespaces/inkscape" version="1.1" width="135" height="93" viewBox="0 0 135 93">
<path transform="matrix(1.00002,0,0,-1.00003,3.4562703,4.1958558)" d="M2.39534-85.04042C2.39534-83.7175 1.32292-82.64508 0-82.64508-1.32292-82.64508-2.39534-83.7175-2.39534-85.04042-2.39534-86.36334-1.32292-87.43576 0-87.43576 1.32292-87.43576 2.39534-86.36334 2.39534-85.04042ZM0-85.04042"/>
<path transform="matrix(1.00002,0,0,-1.00003,3.4562703,4.1958558)" d="M44.91554-85.04042C44.91554-83.7175 43.84312-82.64508 42.5202-82.64508 41.19728-82.64508 40.12485-83.7175 40.12485-85.04042 40.12485-86.36334 41.19728-87.43576 42.5202-87.43576 43.84312-87.43576 44.91554-86.36334 44.91554-85.04042ZM42.5202-85.04042"/>
<path transform="matrix(1.00002,0,0,-1.00003,3.4562703,4.1958558)" d="M23.65544-42.5202C23.65544-41.19728 22.58302-40.12485 21.2601-40.12485 19.93718-40.12485 18.86475-41.19728 18.86475-42.5202 18.86475-43.84312 19.93718-44.91554 21.2601-44.91554 22.58302-44.91554 23.65544-43.84312 23.65544-42.5202ZM21.2601-42.5202"/>
<path transform="matrix(1.00002,0,0,-1.00003,3.4562703,4.1958558)" d="M87.43576-42.5202C87.43576-41.19728 86.36334-40.12485 85.04042-40.12485 83.7175-40.12485 82.64508-41.19728 82.64508-42.5202 82.64508-43.84312 83.7175-44.91554 85.04042-44.91554 86.36334-44.91554 87.43576-43.84312 87.43576-42.5202ZM85.04042-42.5202"/>
<path transform="matrix(1.00002,0,0,-1.00003,3.4562703,4.1958558)" d="M129.95598-85.04042C129.95598-83.7175 128.88355-82.64508 127.56062-82.64508 126.2377-82.64508 125.16528-83.7175 125.16528-85.04042 125.16528-86.36334 126.2377-87.43576 127.56062-87.43576 128.88355-87.43576 129.95598-86.36334 129.95598-85.04042ZM127.56062-85.04042"/>
<path transform="matrix(1.00002,0,0,-1.00003,3.4562703,4.1958558)" d="M129.95598-42.5202C129.95598-41.19728 128.88355-40.12485 127.56062-40.12485 126.2377-40.12485 125.16528-41.19728 125.16528-42.5202 125.16528-43.84312 126.2377-44.91554 127.56062-44.91554 128.88355-44.91554 129.95598-43.84312 129.95598-42.5202ZM127.56062-42.5202"/>
<path transform="matrix(1.00002,0,0,-1.00003,3.4562703,4.1958558)" d="M80.34906 0C80.34906 1.32292 79.27664 2.39534 77.95372 2.39534 76.6308 2.39534 75.55836 1.32292 75.55836 0 75.55836-1.32292 76.6308-2.39534 77.95372-2.39534 79.27664-2.39534 80.34906-1.32292 80.34906 0ZM77.95372 0"/>
<path transform="matrix(1.00002,0,0,-1.00003,3.4562703,4.1958558)" stroke-width=".3985" stroke-linecap="butt" stroke-miterlimit="10" stroke-linejoin="miter" fill="none" stroke="#000000" d="M75.87811-1.55672 23.3357-40.96347"/>
<path transform="matrix(1.00002,0,0,-1.00003,3.4562703,4.1958558)" stroke-width=".3985" stroke-linecap="butt" stroke-miterlimit="10" stroke-linejoin="miter" fill="none" stroke="#000000" d="M78.38022-2.55916 84.61392-39.96104"/>
<path transform="matrix(1.00002,0,0,-1.00003,3.4562703,4.1958558)" stroke-width=".3985" stroke-linecap="butt" stroke-miterlimit="10" stroke-linejoin="miter" fill="none" stroke="#000000" d="M79.92357-1.68843 125.59077-40.83176"/>
<path transform="matrix(1.00002,0,0,-1.00003,3.4562703,4.1958558)" stroke-width=".3985" stroke-linecap="butt" stroke-miterlimit="10" stroke-linejoin="miter" fill="none" stroke="#000000" d="M20.09987-44.8407 1.16022-82.71991"/>
<path transform="matrix(1.00002,0,0,-1.00003,3.4562703,4.1958558)" stroke-width=".3985" stroke-linecap="butt" stroke-miterlimit="10" stroke-linejoin="miter" fill="none" stroke="#000000" d="M22.42032-44.8407 41.35997-82.71991"/>
<path transform="matrix(1.00002,0,0,-1.00003,3.4562703,4.1958558)" stroke-width=".3985" stroke-linecap="butt" stroke-miterlimit="10" stroke-linejoin="miter" fill="none" stroke="#000000" d="M127.56062-45.11479V-82.44583"/>
</svg>
