<svg xmlns="http://www.w3.org/2000/svg" xmlns:xlink="http://www.w3.org/1999/xlink" xmlns:inkscape="http://www.inkscape.org/namespaces/inkscape" version="1.1" width="90" height="121" viewBox="0 0 90 121">
<defs>
<path id="font_1_1" d="M.17399597-.0024719239C.18499756-.008468628 .21798706-.022460938 .2559967-.022460938 .31698609-.022460938 .3849945 .0065307619 .42599488 .09352112 .46299745 .17250061 .46598817 .26649476 .46598817 .34448243 .46598817 .41445924 .46598817 .58444216 .37599183 .6684265 .38198854 .6894226 .39898683 .7484741 .39898683 .7494812 .39898683 .7624817 .3889923 .7714844 .37799073 .7714844 .3619995 .7714844 .35798646 .7584839 .35198976 .7414551 .33898927 .6984253 .35099793 .7364502 .33898927 .6944275 .32499696 .7024231 .2939911 .7154236 .25698854 .7154236 .18699646 .7154236 .1269989 .6774292 .09098816 .60343936 .050994874 .52345278 .04699707 .424469 .04699707 .34448243 .04699707 .27548219 .04699707 .10450745 .13699341 .024520874 .1309967 .0035247803 .11399841-.055618287 .11399841-.056625368 .11399841-.069625858 .12399292-.07862854 .1349945-.07862854 .15098572-.07862854 .15499878-.06762695 .16099549-.048583986 .17399597-.0064697267 .16099549-.044570924 .17399597-.0024719239M.15098572 .072525028C.117996219 .13850403 .117996219 .26449586 .117996219 .35647584 .117996219 .4364624 .117996219 .5144501 .13398743 .57743838 .15499878 .66342166 .21299744 .6904297 .25698854 .6904297 .29299928 .6904297 .32099916 .6704254 .32899476 .6644287L.15098572 .072525028M.3619995 .62342837C.394989 .56144717 .394989 .4574585 .394989 .35647584 .394989 .28549195 .394989 .1954956 .3809967 .12850952 .35798646 .027526856 .2979889 .002532959 .2559967 .002532959 .22099304 .002532959 .19499207 .021530152 .18399048 .030532837L.3619995 .62342837Z"/>
<path id="font_1_2" d="M.2919922 .5760956C.2919922 .63604739 .2919922 .65904238 .32499696 .6890259 .34498597 .7060089 .375 .7220001 .42099 .72499087 .43199159 .7259979 .43998719 .7259979 .43998719 .7369995 .43998719 .75 .43099977 .75 .41799928 .75 .31999208 .75 .22200012 .7030029 .22099304 .62405398V.3682251C.21998596 .33424378 .19099427 .2682953 .085998538 .2632904 .07699585 .26229859 .07299805 .25630189 .07299805 .25028993 .07299805 .23829651 .08299255 .23730469 .09098816 .23730469 .16099549 .2342987 .20899964 .1942749 .21899414 .14723206 .22099304 .13822937 .22099304 .13623047 .22099304 .10121155V-.09692383C.22099304-.13595581 .22099304-.1849823 .29100038-.2210083 .34399415-.24900818 .40699769-.25 .41799928-.25 .43099977-.25 .43998719-.25 .43998719-.23701477 .43998719-.22601319 .42999269-.2250061 .4249878-.2250061 .33299256-.2190094 .3019867-.16897583 .29499818-.14195252 .2919922-.12994385 .2919922-.12794495 .2919922-.091918949V.058181764C.2919922 .08720398 .2919922 .13623047 .29100038 .14523316 .2809906 .20127869 .23199463 .2342987 .17599488 .25028993 .2919922 .28327943 .2919922 .3522339 .2919922 .39620973V.5760956Z"/>
<path id="font_2_2" d="M.38198854 .3803711C.36299134 .41638185 .33198548 .4423828 .2869873 .4423828 .17098999 .4423828 .041992189 .30433656 .041992189 .1512909 .041992189 .041259767 .11199951-.0107421879 .1789856-.0107421879 .24398804-.0107421879 .29699708 .043258668 .31298829 .06227112 .32398988 .007247925 .37399293-.0107421879 .4059906-.0107421879 .43499757-.0107421879 .45999146 .002243042 .48199464 .044265748 .5 .07727051 .5139923 .13928223 .5139923 .14329529 .5139923 .14828491 .5109863 .1552887 .5009918 .1552887 .4889984 .1552887 .48799134 .15029907 .48399354 .13128662 .46199037 .044265748 .43998719 .014251709 .40899659 .014251709 .38398744 .014251709 .37799073 .038253786 .37799073 .060272218 .37799073 .07926941 .3829956 .09927368 .3919983 .1342926L.4169922 .23731995C.42399598 .2623291 .44198609 .33735658 .44599916 .35235597 .44999696 .36636354 .45599366 .3903656 .45599366 .39337159 .45599366 .40937806 .44299317 .42237855 .4249878 .42237855 .4119873 .42237855 .3869934 .41438294 .38198854 .3803711M.31698609 .122283939C.31199647 .103271488 .31199647 .10227966 .29599 .08326721 .2599945 .040252687 .21899414 .014251709 .18199158 .014251709 .1329956 .014251709 .115997318 .06526184 .115997318 .10827637 .115997318 .15730286 .14498902 .27233888 .16899109 .32034303 .20098877 .3803711 .24699402 .41737367 .2869873 .41737367 .35398866 .41737367 .36898805 .33735658 .36898805 .33035279 .36898805 .3253479 .36698915 .3193512 .3659973 .31533814L.31698609 .122283939Z"/>
<path id="font_1_3" d="M.2919922 .13223267C.29299928 .1662445 .32199098 .2322998 .4269867 .23730469 .43598939 .23829651 .43998719 .24429322 .43998719 .25028993 .43998719 .26229859 .42999269 .2632904 .42199708 .2632904 .35198976 .2662964 .3039856 .3062744 .2939911 .35324098 .2919922 .3622284 .2919922 .3642273 .2919922 .3992157V.5970764C.2919922 .63604739 .2919922 .6850281 .22200012 .72099307 .16899109 .74798586 .10598755 .75 .09498596 .75 .08299255 .75 .07299805 .75 .07299805 .7369995 .07299805 .7259979 .08299255 .72499087 .08799744 .72499087 .17999268 .71899417 .21099854 .66903689 .21798706 .64204409 .22099304 .63005068 .22099304 .62805178 .22099304 .5920868V.44218446C.22099304 .41319276 .22099304 .3642273 .22200012 .35523988 .23199463 .29927064 .2809906 .2662964 .33699037 .25028993 .22099304 .21728516 .22099304 .14823914 .22099304 .10420227V-.075912479C.22099304-.13595581 .22099304-.15896607 .18798828-.1889801 .16799927-.20599365 .13798523-.22200012 .09199524-.2250061 .08099365-.22601319 .07299805-.22601319 .07299805-.23701477 .07299805-.25 .08299255-.25 .09498596-.25 .19299317-.25 .29100038-.20298767 .2919922-.12394714V.13223267Z"/>
<path id="font_2_3" d="M.23899842 .6603241C.24299622 .67433169 .24299622 .67633059 .24299622 .68032839 .24299622 .68933108 .23699951 .69433596 .22799683 .69433596 .21398926 .69433596 .12599182 .6863251 .10598755 .6843262 .09599304 .68333438 .084991458 .6823273 .084991458 .665329 .084991458 .6523285 .09599304 .6523285 .11199951 .6523285 .15899658 .6523285 .15899658 .6453247 .15899658 .6363373 .15899658 .6303406 .15899658 .6283264 .1519928 .6013336L.09899902 .3903656C.084991458 .3343506 .07199097 .28334046 .06098938 .23631287 .053985597 .21131897 .04699707 .18130493 .04699707 .14929199 .04699707 .06326294 .09498596-.0107421879 .18099976-.0107421879 .2979889-.0107421879 .42599488 .13027954 .42599488 .28033448 .42599488 .38237 .36299134 .4423828 .28799439 .4423828 .23699951 .4423828 .19299317 .40737916 .16999817 .38536073L.23899842 .6603241M.1559906 .32835389C.18399048 .36836244 .23498535 .41737367 .28599549 .41737367 .33299256 .41737367 .35198976 .37036134 .35198976 .323349 .35198976 .27833558 .32398988 .15429688 .29299928 .10127258 .2559967 .037261964 .21199036 .014251709 .18099976 .014251709 .1309967 .014251709 .11099243 .06427002 .11099243 .11528015 .11099243 .15029907 .117996219 .17730713 .14099121 .2683258L.1559906 .32835389Z"/>
<path id="font_2_1" d="M.18199158 .015991211C.18199158-.017044068 .18199158-.09921265 .10798645-.17036438 .101989749-.17636109 .101989749-.17736817 .101989749-.18136597 .101989749-.18836975 .10899353-.19335938 .114990238-.19335938 .12599182-.19335938 .20698548-.115249637 .20698548 .0019989014 .20698548 .06399536 .18499756 .10798645 .14199829 .10798645 .10798645 .10798645 .08799744 .08198547 .08799744 .053985597 .08799744 .025985718 .10798645 0 .14199829 0 .15699768 0 .17199707 .004989624 .18199158 .015991211Z"/>
</defs>
<path transform="matrix(1.00008,0,0,-1.00005,45.50676,106.312068)" d="M2.39534 0C2.39534 1.32292 1.32292 2.39534 0 2.39534-1.32292 2.39534-2.39534 1.32292-2.39534 0-2.39534-1.32292-1.32292-2.39534 0-2.39534 1.32292-2.39534 2.39534-1.32292 2.39534 0ZM0 0"/>
<path transform="matrix(1.00008,0,0,-1.00005,45.50676,106.312068)" d="M-23.1166 45.35506C-23.1166 46.67798-24.18901 47.7504-25.51193 47.7504-26.83485 47.7504-27.90729 46.67798-27.90729 45.35506-27.90729 44.03214-26.83485 42.9597-25.51193 42.9597-24.18901 42.9597-23.1166 44.03214-23.1166 45.35506ZM-25.51193 45.35506"/>
<path transform="matrix(1.00008,0,0,-1.00005,45.50676,106.312068)" d="M27.90729 45.35506C27.90729 46.67798 26.83485 47.7504 25.51193 47.7504 24.18901 47.7504 23.1166 46.67798 23.1166 45.35506 23.1166 44.03214 24.18901 42.9597 25.51193 42.9597 26.83485 42.9597 27.90729 44.03214 27.90729 45.35506ZM25.51193 45.35506"/>
<path transform="matrix(1.00008,0,0,-1.00005,45.50676,106.312068)" d="M2.39534 90.7097C2.39534 92.03262 1.32292 93.10504 0 93.10504-1.32292 93.10504-2.39534 92.03262-2.39534 90.7097-2.39534 89.38678-1.32292 88.31435 0 88.31435 1.32292 88.31435 2.39534 89.38678 2.39534 90.7097ZM0 90.7097"/>
<path transform="matrix(1.00008,0,0,-1.00005,45.50676,106.312068)" stroke-width=".3985" stroke-linecap="butt" stroke-miterlimit="10" stroke-linejoin="miter" fill="none" stroke="#000000" d="M-1.27194 2.26128-24.23999 43.09377"/>
<path transform="matrix(1.00008,0,0,-1.00005,45.50676,106.312068)" stroke-width=".3985" stroke-linecap="butt" stroke-miterlimit="10" stroke-linejoin="miter" fill="none" stroke="#000000" d="M1.27194 2.26128 24.23999 43.09377"/>
<path transform="matrix(1.00008,0,0,-1.00005,45.50676,106.312068)" stroke-width=".3985" stroke-linecap="butt" stroke-miterlimit="10" stroke-linejoin="miter" fill="none" stroke="#000000" d="M-24.23999 47.61633-1.27194 88.44841"/>
<path transform="matrix(1.00008,0,0,-1.00005,45.50676,106.312068)" stroke-width=".3985" stroke-linecap="butt" stroke-miterlimit="10" stroke-linejoin="miter" fill="none" stroke="#000000" d="M24.23999 47.61633 1.27194 88.44841"/>
<use data-text="&#x2205;" xlink:href="#font_1_1" transform="matrix(8.967117,0,0,-8.966848,43.202577,118.549678)"/>
<use data-text="{" xlink:href="#font_1_2" transform="matrix(8.967117,0,0,-8.966848,.3811493,63.19691)"/>
<use data-text="a" xlink:href="#font_2_2" transform="matrix(8.967117,0,0,-8.966848,4.989517,63.19691)"/>
<use data-text="}" xlink:href="#font_1_3" transform="matrix(8.967117,0,0,-8.966848,9.871902,63.19691)"/>
<use data-text="{" xlink:href="#font_1_2" transform="matrix(8.967117,0,0,-8.966848,76.53324,63.19691)"/>
<use data-text="b" xlink:href="#font_2_3" transform="matrix(8.967117,0,0,-8.966848,81.14161,63.19691)"/>
<use data-text="}" xlink:href="#font_1_3" transform="matrix(8.967117,0,0,-8.966848,85.09093,63.19691)"/>
<use data-text="{" xlink:href="#font_1_2" transform="matrix(8.967117,0,0,-8.966848,34.434877,7.8431475)"/>
<use data-text="a" xlink:href="#font_2_2" transform="matrix(8.967117,0,0,-8.966848,39.043245,7.8431475)"/>
<use data-text="," xlink:href="#font_2_1" transform="matrix(8.967117,0,0,-8.966848,43.921358,7.8431475)"/>
<use data-text="b" xlink:href="#font_2_3" transform="matrix(8.967117,0,0,-8.966848,48.01037,7.8431475)"/>
<use data-text="}" xlink:href="#font_1_3" transform="matrix(8.967117,0,0,-8.966848,51.970285,7.8431475)"/>
</svg>
