<svg xmlns="http://www.w3.org/2000/svg" xmlns:xlink="http://www.w3.org/1999/xlink" xmlns:inkscape="http://www.inkscape.org/namespaces/inkscape" version="1.1" width="92" height="136" viewBox="0 0 92 136">
<path transform="matrix(1.00005,0,0,-1.00002,3.4566727,4.1939036)" d="M2.39534-85.04042C2.39534-83.7175 1.32292-82.64508 0-82.64508-1.32292-82.64508-2.39534-83.7175-2.39534-85.04042-2.39534-86.36334-1.32292-87.43576 0-87.43576 1.32292-87.43576 2.39534-86.36334 2.39534-85.04042ZM0-85.04042"/>
<path transform="matrix(1.00005,0,0,-1.00002,3.4566727,4.1939036)" d="M44.91554-85.04042C44.91554-83.7175 43.84312-82.64508 42.5202-82.64508 41.19728-82.64508 40.12485-83.7175 40.12485-85.04042 40.12485-86.36334 41.19728-87.43576 42.5202-87.43576 43.84312-87.43576 44.91554-86.36334 44.91554-85.04042ZM42.5202-85.04042"/>
<path transform="matrix(1.00005,0,0,-1.00002,3.4566727,4.1939036)" d="M23.65544-42.5202C23.65544-41.19728 22.58302-40.12485 21.2601-40.12485 19.93718-40.12485 18.86475-41.19728 18.86475-42.5202 18.86475-43.84312 19.93718-44.91554 21.2601-44.91554 22.58302-44.91554 23.65544-43.84312 23.65544-42.5202ZM21.2601-42.5202"/>
<path transform="matrix(1.00005,0,0,-1.00002,3.4566727,4.1939036)" d="M87.43576-127.56062C87.43576-126.2377 86.36334-125.16528 85.04042-125.16528 83.7175-125.16528 82.64508-126.2377 82.64508-127.56062 82.64508-128.88355 83.7175-129.95598 85.04042-129.95598 86.36334-129.95598 87.43576-128.88355 87.43576-127.56062ZM85.04042-127.56062"/>
<path transform="matrix(1.00005,0,0,-1.00002,3.4566727,4.1939036)" d="M87.43576-85.04042C87.43576-83.7175 86.36334-82.64508 85.04042-82.64508 83.7175-82.64508 82.64508-83.7175 82.64508-85.04042 82.64508-86.36334 83.7175-87.43576 85.04042-87.43576 86.36334-87.43576 87.43576-86.36334 87.43576-85.04042ZM85.04042-85.04042"/>
<path transform="matrix(1.00005,0,0,-1.00002,3.4566727,4.1939036)" d="M87.43576-42.5202C87.43576-41.19728 86.36334-40.12485 85.04042-40.12485 83.7175-40.12485 82.64508-41.19728 82.64508-42.5202 82.64508-43.84312 83.7175-44.91554 85.04042-44.91554 86.36334-44.91554 87.43576-43.84312 87.43576-42.5202ZM85.04042-42.5202"/>
<path transform="matrix(1.00005,0,0,-1.00002,3.4566727,4.1939036)" d="M55.54561 0C55.54561 1.32292 54.47318 2.39534 53.15025 2.39534 51.82733 2.39534 50.75491 1.32292 50.75491 0 50.75491-1.32292 51.82733-2.39534 53.15025-2.39534 54.47318-2.39534 55.54561-1.32292 55.54561 0ZM53.15025 0"/>
<path transform="matrix(1.00005,0,0,-1.00002,3.4566727,4.1939036)" stroke-width=".3985" stroke-linecap="butt" stroke-miterlimit="10" stroke-linejoin="miter" fill="none" stroke="#000000" d="M51.59354-2.07559 22.81682-40.4446"/>
<path transform="matrix(1.00005,0,0,-1.00002,3.4566727,4.1939036)" stroke-width=".3985" stroke-linecap="butt" stroke-miterlimit="10" stroke-linejoin="miter" fill="none" stroke="#000000" d="M54.70699-2.07559 83.48369-40.4446"/>
<path transform="matrix(1.00005,0,0,-1.00002,3.4566727,4.1939036)" stroke-width=".3985" stroke-linecap="butt" stroke-miterlimit="10" stroke-linejoin="miter" fill="none" stroke="#000000" d="M20.09987-44.8407 1.16022-82.71991"/>
<path transform="matrix(1.00005,0,0,-1.00002,3.4566727,4.1939036)" stroke-width=".3985" stroke-linecap="butt" stroke-miterlimit="10" stroke-linejoin="miter" fill="none" stroke="#000000" d="M22.42032-44.8407 41.35997-82.71991"/>
<path transform="matrix(1.00005,0,0,-1.00002,3.4566727,4.1939036)" stroke-width=".3985" stroke-linecap="butt" stroke-miterlimit="10" stroke-linejoin="miter" fill="none" stroke="#000000" d="M85.04042-45.11479V-82.44583"/>
<path transform="matrix(1.00005,0,0,-1.00002,3.4566727,4.1939036)" stroke-width=".3985" stroke-linecap="butt" stroke-miterlimit="10" stroke-linejoin="miter" fill="none" stroke="#000000" d="M85.04042-87.63503V-124.96603"/>
</svg>
