<svg xmlns="http://www.w3.org/2000/svg" xmlns:xlink="http://www.w3.org/1999/xlink" xmlns:inkscape="http://www.inkscape.org/namespaces/inkscape" version="1.1" width="105" height="117" viewBox="0 0 105 117">
<defs>
<path id="font_1_1" d="M.48098756 .3693695C.48098756 .43937684 .44400025 .44337464 .43499757 .44337464 .4099884 .44337464 .38398744 .41638185 .38398744 .39337159 .38398744 .3783722 .3929901 .37036134 .3999939 .36436463 .4269867 .33935548 .43598939 .30734254 .43598939 .28134156 .43598939 .23731995 .37298585 .014251709 .25698854 .014251709 .18199158 .014251709 .18199158 .08427429 .18199158 .10227966 .18199158 .14529419 .19599915 .19630432 .23098755 .28733827 .24699402 .3293457 .25099183 .33935548 .25099183 .35835267 .25099183 .40737916 .21398926 .4423828 .16499329 .4423828 .068984989 .4423828 .0289917 .30033876 .0289917 .28833009 .0289917 .2793274 .035995485 .27633668 .042999269 .27633668 .053985597 .27633668 .054992677 .28233338 .05899048 .29533387 .07998657 .36836244 .11999512 .41737367 .1619873 .41737367 .18199158 .41737367 .18598938 .40437318 .18598938 .3843689 .18598938 .36735536 .18199158 .34934999 .17298889 .3253479 .13699341 .22932434 .11299133 .16529846 .11299133 .11528015 .11299133 .021255494 .18399048-.0107421879 .25299073-.0107421879 .42099-.0107421879 .48098756 .30534364 .48098756 .3693695Z"/>
<path id="font_2_1" d="M.35899354 .6349335C.35899354 .66503909 .35499574 .66503909 .32499696 .66503909 .25898744 .60058596 .15699768 .60058596 .12098694 .60058596V.5615845C.14698792 .5615845 .21299744 .5615845 .272995 .58958438V.08496094C.272995 .051986696 .272995 .038986207 .16999817 .038986207H.1269989V0C.18199158 .0039978029 .2599945 .0039978029 .31599427 .0039978029 .37199403 .0039978029 .44999696 .0039978029 .5049896 0V.038986207H.46199037C.35899354 .038986207 .35899354 .051986696 .35899354 .08496094V.6349335Z"/>
<path id="font_2_2" d="M.5379944 .18702698H.5009918C.49899293 .17301941 .4889984 .10699463 .47399903 .09599304 .46699525 .08999634 .38598634 .08999634 .37199403 .08999634H.18499756L.31298829 .19403076C.34700013 .22103882 .43598939 .28504945 .46699525 .31506349 .49699403 .3450775 .5379944 .39608766 .5379944 .46710206 .5379944 .5920563 .4249878 .66503909 .29100038 .66503909 .1619873 .66503909 .07199097 .58006289 .07199097 .48609925 .07199097 .43510438 .114990238 .42910768 .12599182 .42910768 .15098572 .42910768 .17999268 .44709779 .17999268 .48310853 .17999268 .50509646 .16699219 .5371094 .12298584 .5371094 .1459961 .5880585 .20698548 .6260376 .27598573 .6260376 .3809967 .6260376 .43699647 .5480957 .43699647 .46710206 .43699647 .39608766 .3899994 .32305909 .31999208 .25904847L.08299255 .041992189C.07299805 .03199768 .07199097 .0309906 .07199097 0H.5069885L.5379944 .18702698Z"/>
<path id="font_2_3" d="M.2939911 .33203126C.3789978 .33203126 .43598939 .274765 .43598939 .17237854 .43598939 .062408449 .36999513 .014511108 .29699708 .014511108 .269989 .014511108 .16699219 .020492554 .12199402 .07836914 .16099549 .0823822 .1769867 .10836792 .1769867 .13537598 .1769867 .16937256 .15299988 .19238281 .11999512 .19238281 .09298706 .19238281 .06298828 .17536927 .06298828 .13337708 .06298828 .034469606 .17298889-.021484375 .2999878-.021484375 .44799806-.021484375 .5469971 .07337952 .5469971 .17237854 .5469971 .24562073 .4909973 .3229828 .37199403 .35302735 .45098878 .37902833 .5149994 .44306947 .5149994 .5251007 .5149994 .60505679 .42099 .66503909 .30099488 .66503909 .18399048 .66503909 .09498596 .61105349 .09498596 .5290985 .09498596 .48609925 .12799073 .47409059 .147995 .47409059 .17399597 .47409059 .20098877 .49209596 .20098877 .5270996 .20098877 .5580902 .1789856 .5760956 .1519928 .5800934 .19898987 .6320343 .2899933 .6320343 .29899598 .6320343 .34999085 .6320343 .4139862 .60806277 .4139862 .5251007 .4139862 .47009278 .3829956 .37402345 .2829895 .36802674 .2649994 .36701966 .23799134 .36502076 .22898865 .36502076 .21899414 .36402894 .20799256 .36302186 .20799256 .34802247 .20799256 .33203126 .21899414 .33203126 .23599243 .33203126H.2939911Z"/>
<path id="font_2_4" d="M.56399539 .1640625V.2030487H.44699098V.6448059C.44699098 .6678009 .44699098 .6748047 .42199708 .6748047 .4039917 .6748047 .4019928 .6717987 .3929901 .65979006L.04598999 .2030487V.1640625H.35699464V.08401489C.35699464 .050994874 .35699464 .038986207 .272995 .038986207H.24398804V0C.2639923 .0009918213 .35798646 .0039978029 .4019928 .0039978029 .44599916 .0039978029 .5399933 .0009918213 .55999758 0V.038986207H.5309906C.44699098 .038986207 .44699098 .050994874 .44699098 .08401489V.1640625H.56399539M.3639984 .56585696V.2030487H.08898926L.3639984 .56585696Z"/>
<path id="font_2_5" d="M.16999817 .5549774C.20298767 .54599 .23799134 .5419922 .27198792 .5419922 .2939911 .5419922 .34999085 .5419922 .41299439 .5769806 .42999269 .58699038 .49198915 .6279907 .49198915 .6490326 .49198915 .6620331 .48199464 .66503909 .47799684 .66503909 .47499085 .66503909 .47399903 .66503909 .46299745 .661026 .4269867 .6470337 .37599183 .63298037 .31098939 .63298037 .2619934 .63298037 .20799256 .64201357 .16299439 .6590271 .15299988 .6630249 .14898682 .66503909 .14498902 .66503909 .1309967 .66503909 .1309967 .6540375 .1309967 .6380005V.33787538C.1309967 .32086183 .1309967 .30885316 .14898682 .30885316 .1579895 .30885316 .16099549 .31285096 .16799927 .32086183 .19299317 .35289 .23699951 .38693238 .31498719 .38693238 .43798829 .38693238 .43798829 .23677063 .43798829 .20472718 .43798829 .16567993 .43499757 .10961914 .4019928 .068573 .37098695 .030532837 .32499696 .014511108 .28199769 .014511108 .21299744 .014511108 .14399719 .05255127 .11999512 .11061096 .16899109 .11161804 .1749878 .15066529 .1749878 .16267395 .1749878 .18971253 .1539917 .21372986 .12298584 .21372986 .11399841 .21372986 .07199097 .20872498 .07199097 .15867615 .07199097 .0665741 .15899658-.021484375 .2849884-.021484375 .42199708-.021484375 .5379944 .07557678 .5379944 .20072937 .5379944 .31484986 .44599916 .4189453 .31698609 .4189453 .2519989 .4189453 .20199585 .39793397 .16999817 .37091065V.5549774Z"/>
<path id="font_2_6" d="M.16299439 .33073426C.1639862 .38076783 .1659851 .46383668 .20098877 .52589419 .24499512 .60191348 .31098939 .6320343 .37098695 .6320343 .3939972 .6320343 .43998719 .62802127 .46398927 .5998993 .4269867 .5939026 .42099 .5679016 .42099 .55189517 .42099 .52589419 .43899537 .50390627 .46899415 .50390627 .49899293 .50390627 .5179901 .52290347 .5179901 .55389407 .5179901 .6149597 .47200013 .66503909 .36999513 .66503909 .21499634 .66503909 .06298828 .52989199 .06298828 .31672669 .06298828 .07354736 .17599488-.021484375 .30799867-.021484375 .34700013-.021484375 .4149933-.015487671 .47599793 .043533327 .5079956 .075546268 .5469971 .11558533 .5469971 .2036438 .5469971 .2376709 .54299929 .30171205 .48199464 .3587494 .44699098 .3907776 .40299989 .42578126 .31799317 .42578126 .24798584 .42578126 .19699097 .3897705 .16299439 .33073426M.30699159 .014511108C.1659851 .014511108 .1659851 .18663025 .1659851 .22566223 .1659851 .3117218 .22299195 .3937683 .31298829 .3937683 .36499024 .3937683 .394989 .37275697 .4189911 .34074403 .44699098 .30171205 .44699098 .25668336 .44699098 .2036438 .44699098 .13459778 .44499208 .10057068 .41099549 .060546876 .3869934 .030517579 .35499574 .014511108 .30699159 .014511108Z"/>
</defs>
<path transform="matrix(1,0,0,-1,53.072999,58.257)" d="M2.39534 45.35506C2.39534 46.67798 1.32292 47.7504 0 47.7504-1.32292 47.7504-2.39534 46.67798-2.39534 45.35506-2.39534 44.03214-1.32292 42.9597 0 42.9597 1.32292 42.9597 2.39534 44.03214 2.39534 45.35506ZM0 45.35506"/>
<path transform="matrix(1,0,0,-1,53.072999,58.257)" d="M-36.88213 22.67752C-36.88213 24.00044-37.95454 25.07286-39.27747 25.07286-40.60039 25.07286-41.6728 24.00044-41.6728 22.67752-41.6728 21.3546-40.60039 20.28217-39.27747 20.28217-37.95454 20.28217-36.88213 21.3546-36.88213 22.67752ZM-39.27747 22.67752"/>
<path transform="matrix(1,0,0,-1,53.072999,58.257)" d="M-36.88213-22.67752C-36.88213-21.3546-37.95454-20.28217-39.27747-20.28217-40.60039-20.28217-41.6728-21.3546-41.6728-22.67752-41.6728-24.00044-40.60039-25.07286-39.27747-25.07286-37.95454-25.07286-36.88213-24.00044-36.88213-22.67752ZM-39.27747-22.67752"/>
<path transform="matrix(1,0,0,-1,53.072999,58.257)" d="M2.39534-45.35506C2.39534-44.03214 1.32292-42.9597 0-42.9597-1.32292-42.9597-2.39534-44.03214-2.39534-45.35506-2.39534-46.67798-1.32292-47.7504 0-47.7504 1.32292-47.7504 2.39534-46.67798 2.39534-45.35506ZM0-45.35506"/>
<path transform="matrix(1,0,0,-1,53.072999,58.257)" d="M41.6728-22.67752C41.6728-21.3546 40.60039-20.28217 39.27747-20.28217 37.95454-20.28217 36.88213-21.3546 36.88213-22.67752 36.88213-24.00044 37.95454-25.07286 39.27747-25.07286 40.60039-25.07286 41.6728-24.00044 41.6728-22.67752ZM39.27747-22.67752"/>
<path transform="matrix(1,0,0,-1,53.072999,58.257)" d="M41.6728 22.67752C41.6728 24.00044 40.60039 25.07286 39.27747 25.07286 37.95454 25.07286 36.88213 24.00044 36.88213 22.67752 36.88213 21.3546 37.95454 20.28217 39.27747 20.28217 40.60039 20.28217 41.6728 21.3546 41.6728 22.67752ZM39.27747 22.67752"/>
<path transform="matrix(1,0,0,-1,53.072999,58.257)" stroke-width=".3985" stroke-linecap="butt" stroke-miterlimit="10" stroke-linejoin="miter" fill="none" stroke="#000000" d="M-2.24693 44.05775-37.03052 23.97481"/>
<path transform="matrix(1,0,0,-1,53.072999,58.257)" stroke-width=".3985" stroke-linecap="butt" stroke-miterlimit="10" stroke-linejoin="miter" fill="none" stroke="#000000" d="M-39.27747 20.08292V-20.08292"/>
<path transform="matrix(1,0,0,-1,53.072999,58.257)" stroke-width=".3985" stroke-linecap="butt" stroke-miterlimit="10" stroke-linejoin="miter" fill="none" stroke="#000000" d="M-37.03052-23.97481-2.24693-44.05775"/>
<path transform="matrix(1,0,0,-1,53.072999,58.257)" stroke-width=".3985" stroke-linecap="butt" stroke-miterlimit="10" stroke-linejoin="miter" fill="none" stroke="#000000" d="M2.24693-44.05775 37.03052-23.97481"/>
<path transform="matrix(1,0,0,-1,53.072999,58.257)" stroke-width=".3985" stroke-linecap="butt" stroke-miterlimit="10" stroke-linejoin="miter" fill="none" stroke="#000000" d="M39.27747-20.08292V20.08292"/>
<path transform="matrix(1,0,0,-1,53.072999,58.257)" stroke-width=".3985" stroke-linecap="butt" stroke-miterlimit="10" stroke-linejoin="miter" fill="none" stroke="#000000" d="M37.03052 23.97481 2.24693 44.05775"/>
<use data-text="v" xlink:href="#font_1_1" transform="matrix(8.9664,0,0,-8.9664,48.759,4.9799997)"/>
<use data-text="1" xlink:href="#font_2_1" transform="matrix(5.9776,0,0,-5.9776,53.234998,5.977001)"/>
<use data-text="v" xlink:href="#font_1_1" transform="matrix(8.9664,0,0,-8.9664,1.3809967,32.334)"/>
<use data-text="2" xlink:href="#font_2_2" transform="matrix(5.9776,0,0,-5.9776,5.8569948,33.331)"/>
<use data-text="v" xlink:href="#font_1_1" transform="matrix(8.9664,0,0,-8.9664,1.3809967,87.04401)"/>
<use data-text="3" xlink:href="#font_2_3" transform="matrix(5.9776,0,0,-5.9776,5.8569948,88.041)"/>
<use data-text="v" xlink:href="#font_1_1" transform="matrix(8.9664,0,0,-8.9664,48.759,114.399)"/>
<use data-text="4" xlink:href="#font_2_4" transform="matrix(5.9776,0,0,-5.9776,53.234998,115.395999)"/>
<use data-text="v" xlink:href="#font_1_1" transform="matrix(8.9664,0,0,-8.9664,96.138,87.04401)"/>
<use data-text="5" xlink:href="#font_2_5" transform="matrix(5.9776,0,0,-5.9776,100.614,88.041)"/>
<use data-text="v" xlink:href="#font_1_1" transform="matrix(8.9664,0,0,-8.9664,96.138,32.334)"/>
<use data-text="6" xlink:href="#font_2_6" transform="matrix(5.9776,0,0,-5.9776,100.614,33.331)"/>
</svg>
