<svg xmlns="http://www.w3.org/2000/svg" xmlns:xlink="http://www.w3.org/1999/xlink" xmlns:inkscape="http://www.inkscape.org/namespaces/inkscape" version="1.1" width="63" height="64" viewBox="0 0 63 64">
<path transform="matrix(1,0,0,-1.00003,31.516999,32.2557)" d="M-25.66512 28.06046C-25.66512 29.38338-26.73753 30.45581-28.06046 30.45581-29.38338 30.45581-30.45581 29.38338-30.45581 28.06046-30.45581 26.73753-29.38338 25.66512-28.06046 25.66512-26.73753 25.66512-25.66512 26.73753-25.66512 28.06046ZM-28.06046 28.06046"/>
<path transform="matrix(1,0,0,-1.00003,31.516999,32.2557)" d="M-25.66512-28.06046C-25.66512-26.73753-26.73753-25.66512-28.06046-25.66512-29.38338-25.66512-30.45581-26.73753-30.45581-28.06046-30.45581-29.38338-29.38338-30.45581-28.06046-30.45581-26.73753-30.45581-25.66512-29.38338-25.66512-28.06046ZM-28.06046-28.06046"/>
<path transform="matrix(1,0,0,-1.00003,31.516999,32.2557)" d="M30.45581-28.06046C30.45581-26.73753 29.38338-25.66512 28.06046-25.66512 26.73753-25.66512 25.66512-26.73753 25.66512-28.06046 25.66512-29.38338 26.73753-30.45581 28.06046-30.45581 29.38338-30.45581 30.45581-29.38338 30.45581-28.06046ZM28.06046-28.06046"/>
<path transform="matrix(1,0,0,-1.00003,31.516999,32.2557)" d="M30.45581 28.06046C30.45581 29.38338 29.38338 30.45581 28.06046 30.45581 26.73753 30.45581 25.66512 29.38338 25.66512 28.06046 25.66512 26.73753 26.73753 25.66512 28.06046 25.66512 29.38338 25.66512 30.45581 26.73753 30.45581 28.06046ZM28.06046 28.06046"/>
<path transform="matrix(1,0,0,-1.00003,31.516999,32.2557)" stroke-width=".3985" stroke-linecap="butt" stroke-miterlimit="10" stroke-linejoin="miter" fill="none" stroke="#000000" d="M-28.06046 25.46587V-25.00758"/>
<path transform="matrix(0,1.00003,1,0,3.4565392,57.26403)" stroke-width=".31879" stroke-linecap="round" stroke-linejoin="round" fill="none" stroke="#000000" d="M-1.19551 1.59401C-1.09587 .99626 0 .09961 .29886 0 0-.09961-1.09587-.99626-1.19551-1.59401"/>
<path transform="matrix(1,0,0,-1.00003,31.516999,32.2557)" stroke-width=".3985" stroke-linecap="butt" stroke-miterlimit="10" stroke-linejoin="miter" fill="none" stroke="#000000" d="M-25.46587-28.06046H25.00758"/>
<path transform="matrix(1,0,0,-1.00003,56.52458,60.317)" stroke-width=".31879" stroke-linecap="round" stroke-linejoin="round" fill="none" stroke="#000000" d="M-1.19551 1.59401C-1.09587 .99626 0 .09961 .29886 0 0-.09961-1.09587-.99626-1.19551-1.59401"/>
<path transform="matrix(1,0,0,-1.00003,31.516999,32.2557)" stroke-width=".3985" stroke-linecap="butt" stroke-miterlimit="10" stroke-linejoin="miter" fill="none" stroke="#000000" d="M28.06046-25.46587V25.00758"/>
<path transform="matrix(0,-1.00003,-1,-0,59.577459,7.247368)" stroke-width=".31879" stroke-linecap="round" stroke-linejoin="round" fill="none" stroke="#000000" d="M-1.19551 1.59401C-1.09587 .99626 0 .09961 .29886 0 0-.09961-1.09587-.99626-1.19551-1.59401"/>
<path transform="matrix(1,0,0,-1.00003,31.516999,32.2557)" stroke-width=".3985" stroke-linecap="butt" stroke-miterlimit="10" stroke-linejoin="miter" fill="none" stroke="#000000" d="M25.46587 28.06046H-25.00758"/>
<path transform="matrix(-1,-0,0,1.00003,6.5094187,4.194397)" stroke-width=".31879" stroke-linecap="round" stroke-linejoin="round" fill="none" stroke="#000000" d="M-1.19551 1.59401C-1.09587 .99626 0 .09961 .29886 0 0-.09961-1.09587-.99626-1.19551-1.59401"/>
<path transform="matrix(1,0,0,-1.00003,31.516999,32.2557)" stroke-width=".3985" stroke-linecap="butt" stroke-miterlimit="10" stroke-linejoin="miter" fill="none" stroke="#000000" d="M-25.62236 27.17308C1.8484 17.1746 17.1746 1.8484 27.01636-25.19174"/>
<path transform="matrix(.34201,.93970826,.93968,-.34202028,58.533357,57.44819)" stroke-width=".31879" stroke-linecap="round" stroke-linejoin="round" fill="none" stroke="#000000" d="M-1.19551 1.59401C-1.09587 .99626 0 .09961 .29886 0 0-.09961-1.09587-.99626-1.19551-1.59401"/>
<path transform="matrix(1,0,0,-1.00003,31.516999,32.2557)" stroke-width=".3985" stroke-linecap="butt" stroke-miterlimit="10" stroke-linejoin="miter" fill="none" stroke="#000000" d="M25.62236-27.17308C-1.8484-17.1746-17.1746-1.8484-27.01636 25.19174"/>
<path transform="matrix(-.34201,-.93970826,-.93968,.34202028,4.500639,7.0632116)" stroke-width=".31879" stroke-linecap="round" stroke-linejoin="round" fill="none" stroke="#000000" d="M-1.19551 1.59401C-1.09587 .99626 0 .09961 .29886 0 0-.09961-1.09587-.99626-1.19551-1.59401"/>
</svg>
