<svg xmlns="http://www.w3.org/2000/svg" xmlns:xlink="http://www.w3.org/1999/xlink" xmlns:inkscape="http://www.inkscape.org/namespaces/inkscape" version="1.1" width="135" height="93" viewBox="0 0 135 93">
<path transform="matrix(1.00002,0,0,-1.00003,3.4562703,4.1958558)" d="M2.39534-85.04042C2.39534-83.7175 1.32292-82.64508 0-82.64508-1.32292-82.64508-2.39534-83.7175-2.39534-85.04042-2.39534-86.36334-1.32292-87.43576 0-87.43576 1.32292-87.43576 2.39534-86.36334 2.39534-85.04042ZM0-85.04042"/>
<path transform="matrix(1.00002,0,0,-1.00003,3.4562703,4.1958558)" d="M44.91554-85.04042C44.91554-83.7175 43.84312-82.64508 42.5202-82.64508 41.19728-82.64508 40.12485-83.7175 40.12485-85.04042 40.12485-86.36334 41.19728-87.43576 42.5202-87.43576 43.84312-87.43576 44.91554-86.36334 44.91554-85.04042ZM42.5202-85.04042"/>
<path transform="matrix(1.00002,0,0,-1.00003,3.4562703,4.1958558)" d="M23.65544-42.5202C23.65544-41.19728 22.58302-40.12485 21.2601-40.12485 19.93718-40.12485 18.86475-41.19728 18.86475-42.5202 18.86475-43.84312 19.93718-44.91554 21.2601-44.91554 22.58302-44.91554 23.65544-43.84312 23.65544-42.5202ZM21.2601-42.5202"/>
<path transform="matrix(1.00002,0,0,-1.00003,3.4562703,4.1958558)" d="M87.43576-85.04042C87.43576-83.7175 86.36334-82.64508 85.04042-82.64508 83.7175-82.64508 82.64508-83.7175 82.64508-85.04042 82.64508-86.36334 83.7175-87.43576 85.04042-87.43576 86.36334-87.43576 87.43576-86.36334 87.43576-85.04042ZM85.04042-85.04042"/>
<path transform="matrix(1.00002,0,0,-1.00003,3.4562703,4.1958558)" d="M129.95598-85.04042C129.95598-83.7175 128.88355-82.64508 127.56062-82.64508 126.2377-82.64508 125.16528-83.7175 125.16528-85.04042 125.16528-86.36334 126.2377-87.43576 127.56062-87.43576 128.88355-87.43576 129.95598-86.36334 129.95598-85.04042ZM127.56062-85.04042"/>
<path transform="matrix(1.00002,0,0,-1.00003,3.4562703,4.1958558)" d="M108.69588-42.5202C108.69588-41.19728 107.62344-40.12485 106.30052-40.12485 104.9776-40.12485 103.90518-41.19728 103.90518-42.5202 103.90518-43.84312 104.9776-44.91554 106.30052-44.91554 107.62344-44.91554 108.69588-43.84312 108.69588-42.5202ZM106.30052-42.5202"/>
<path transform="matrix(1.00002,0,0,-1.00003,3.4562703,4.1958558)" d="M66.17564 0C66.17564 1.32292 65.10323 2.39534 63.7803 2.39534 62.45738 2.39534 61.38496 1.32292 61.38496 0 61.38496-1.32292 62.45738-2.39534 63.7803-2.39534 65.10323-2.39534 66.17564-1.32292 66.17564 0ZM63.7803 0"/>
<path transform="matrix(1.00002,0,0,-1.00003,3.4562703,4.1958558)" stroke-width=".3985" stroke-linecap="butt" stroke-miterlimit="10" stroke-linejoin="miter" fill="none" stroke="#000000" d="M61.94565-1.83464 23.09474-40.68555"/>
<path transform="matrix(1.00002,0,0,-1.00003,3.4562703,4.1958558)" stroke-width=".3985" stroke-linecap="butt" stroke-miterlimit="10" stroke-linejoin="miter" fill="none" stroke="#000000" d="M65.61496-1.83464 104.46588-40.68555"/>
<path transform="matrix(1.00002,0,0,-1.00003,3.4562703,4.1958558)" stroke-width=".3985" stroke-linecap="butt" stroke-miterlimit="10" stroke-linejoin="miter" fill="none" stroke="#000000" d="M20.09987-44.8407 1.16022-82.71991"/>
<path transform="matrix(1.00002,0,0,-1.00003,3.4562703,4.1958558)" stroke-width=".3985" stroke-linecap="butt" stroke-miterlimit="10" stroke-linejoin="miter" fill="none" stroke="#000000" d="M22.42032-44.8407 41.35997-82.71991"/>
<path transform="matrix(1.00002,0,0,-1.00003,3.4562703,4.1958558)" stroke-width=".3985" stroke-linecap="butt" stroke-miterlimit="10" stroke-linejoin="miter" fill="none" stroke="#000000" d="M105.14029-44.8407 86.20065-82.71991"/>
<path transform="matrix(1.00002,0,0,-1.00003,3.4562703,4.1958558)" stroke-width=".3985" stroke-linecap="butt" stroke-miterlimit="10" stroke-linejoin="miter" fill="none" stroke="#000000" d="M107.46075-44.8407 126.4004-82.71991"/>
</svg>
