<svg xmlns="http://www.w3.org/2000/svg" xmlns:xlink="http://www.w3.org/1999/xlink" xmlns:inkscape="http://www.inkscape.org/namespaces/inkscape" version="1.1" width="94" height="90" viewBox="0 0 94 90">
<path transform="matrix(1.00005,0,0,-1.00006,46.593828,49.55243)" d="M2.39534 45.35506C2.39534 46.67798 1.32292 47.7504 0 47.7504-1.32292 47.7504-2.39534 46.67798-2.39534 45.35506-2.39534 44.03214-1.32292 42.9597 0 42.9597 1.32292 42.9597 2.39534 44.03214 2.39534 45.35506ZM0 45.35506"/>
<path transform="matrix(1.00005,0,0,-1.00006,46.593828,49.55243)" d="M-40.73993 14.01465C-40.73993 15.33757-41.81235 16.40999-43.13527 16.40999-44.45819 16.40999-45.53062 15.33757-45.53062 14.01465-45.53062 12.69173-44.45819 11.61931-43.13527 11.61931-41.81235 11.61931-40.73993 12.69173-40.73993 14.01465ZM-43.13527 14.01465"/>
<path transform="matrix(1.00005,0,0,-1.00006,46.593828,49.55243)" d="M-24.26498-36.69218C-24.26498-35.36926-25.3374-34.29684-26.66032-34.29684-27.98325-34.29684-29.05566-35.36926-29.05566-36.69218-29.05566-38.0151-27.98325-39.08752-26.66032-39.08752-25.3374-39.08752-24.26498-38.0151-24.26498-36.69218ZM-26.66032-36.69218"/>
<path transform="matrix(1.00005,0,0,-1.00006,46.593828,49.55243)" d="M29.05566-36.69218C29.05566-35.36926 27.98325-34.29684 26.66032-34.29684 25.3374-34.29684 24.26498-35.36926 24.26498-36.69218 24.26498-38.0151 25.3374-39.08752 26.66032-39.08752 27.98325-39.08752 29.05566-38.0151 29.05566-36.69218ZM26.66032-36.69218"/>
<path transform="matrix(1.00005,0,0,-1.00006,46.593828,49.55243)" d="M45.53062 14.01465C45.53062 15.33757 44.45819 16.40999 43.13527 16.40999 41.81235 16.40999 40.73993 15.33757 40.73993 14.01465 40.73993 12.69173 41.81235 11.61931 43.13527 11.61931 44.45819 11.61931 45.53062 12.69173 45.53062 14.01465ZM43.13527 14.01465"/>
<path transform="matrix(1.00005,0,0,-1.00006,46.593828,49.55243)" stroke-width="1.19553" stroke-linecap="butt" stroke-miterlimit="10" stroke-linejoin="miter" fill="none" stroke="#000000" d="M-2.09903 43.82999-41.03622 15.53972"/>
<path transform="matrix(1.00005,0,0,-1.00006,46.593828,49.55243)" stroke-width="1.19553" stroke-linecap="butt" stroke-miterlimit="10" stroke-linejoin="miter" fill="none" stroke="#000000" d="M-42.33359 11.54701-27.46202-34.22455"/>
<path transform="matrix(1.00005,0,0,-1.00006,46.593828,49.55243)" stroke-width=".3985" stroke-linecap="butt" stroke-miterlimit="10" stroke-linejoin="miter" fill="none" stroke="#000000" d="M-24.06573-36.69218H24.06573"/>
<path transform="matrix(1.00005,0,0,-1.00006,46.593828,49.55243)" stroke-width=".3985" stroke-linecap="butt" stroke-miterlimit="10" stroke-linejoin="miter" fill="none" stroke="#000000" d="M27.46202-34.22455 42.33359 11.54701"/>
<path transform="matrix(1.00005,0,0,-1.00006,46.593828,49.55243)" stroke-width=".3985" stroke-linecap="butt" stroke-miterlimit="10" stroke-linejoin="miter" fill="none" stroke="#000000" d="M41.03622 15.53972 2.09903 43.82999"/>
<path transform="matrix(1.00005,0,0,-1.00006,46.593828,49.55243)" stroke-width="1.19553" stroke-linecap="butt" stroke-miterlimit="10" stroke-linejoin="miter" fill="none" stroke="#000000" d="M-.80177 42.88747-25.85854-34.2246"/>
</svg>
