<svg xmlns="http://www.w3.org/2000/svg" xmlns:xlink="http://www.w3.org/1999/xlink" xmlns:inkscape="http://www.inkscape.org/namespaces/inkscape" version="1.1" width="63" height="70" viewBox="0 0 63 70">
<path transform="matrix(1,0,0,-1.00006,31.516999,38.424943)" d="M-25.66512 28.06046C-25.66512 29.38338-26.73753 30.45581-28.06046 30.45581-29.38338 30.45581-30.45581 29.38338-30.45581 28.06046-30.45581 26.73753-29.38338 25.66512-28.06046 25.66512-26.73753 25.66512-25.66512 26.73753-25.66512 28.06046ZM-28.06046 28.06046"/>
<path transform="matrix(1,0,0,-1.00006,31.516999,38.424943)" d="M-25.66512-28.06046C-25.66512-26.73753-26.73753-25.66512-28.06046-25.66512-29.38338-25.66512-30.45581-26.73753-30.45581-28.06046-30.45581-29.38338-29.38338-30.45581-28.06046-30.45581-26.73753-30.45581-25.66512-29.38338-25.66512-28.06046ZM-28.06046-28.06046"/>
<path transform="matrix(1,0,0,-1.00006,31.516999,38.424943)" d="M30.45581-28.06046C30.45581-26.73753 29.38338-25.66512 28.06046-25.66512 26.73753-25.66512 25.66512-26.73753 25.66512-28.06046 25.66512-29.38338 26.73753-30.45581 28.06046-30.45581 29.38338-30.45581 30.45581-29.38338 30.45581-28.06046ZM28.06046-28.06046"/>
<path transform="matrix(1,0,0,-1.00006,31.516999,38.424943)" d="M30.45581 28.06046C30.45581 29.38338 29.38338 30.45581 28.06046 30.45581 26.73753 30.45581 25.66512 29.38338 25.66512 28.06046 25.66512 26.73753 26.73753 25.66512 28.06046 25.66512 29.38338 25.66512 30.45581 26.73753 30.45581 28.06046ZM28.06046 28.06046"/>
<path transform="matrix(1,0,0,-1.00006,31.516999,38.424943)" stroke-width=".3985" stroke-linecap="butt" stroke-miterlimit="10" stroke-linejoin="miter" fill="none" stroke="#000000" d="M-28.06046 25.46587V-25.00758"/>
<path transform="matrix(0,1.00006,1,0,3.4565392,63.43402)" stroke-width=".31879" stroke-linecap="round" stroke-linejoin="round" fill="none" stroke="#000000" d="M-1.19551 1.59401C-1.09587 .99626 0 .09961 .29886 0 0-.09961-1.09587-.99626-1.19551-1.59401"/>
<path transform="matrix(1,0,0,-1.00006,31.516999,38.424943)" stroke-width=".3985" stroke-linecap="butt" stroke-miterlimit="10" stroke-linejoin="miter" fill="none" stroke="#000000" d="M-26.2258 26.2258 25.90176-25.90176"/>
<path transform="matrix(.7071,.70714238,.7071,-.70714238,57.41876,64.328258)" stroke-width=".31879" stroke-linecap="round" stroke-linejoin="round" fill="none" stroke="#000000" d="M-1.19551 1.59401C-1.09587 .99626 0 .09961 .29886 0 0-.09961-1.09587-.99626-1.19551-1.59401"/>
<path transform="matrix(1,0,0,-1.00006,31.516999,38.424943)" stroke-width=".3985" stroke-linecap="butt" stroke-miterlimit="10" stroke-linejoin="miter" fill="none" stroke="#000000" d="M-25.8135 29.3577C-8.37779 39.4242 8.37779 39.4242 25.41666 29.58682"/>
<path transform="matrix(.86601,.50000998,.49998,-.8660619,56.93364,8.8363289)" stroke-width=".31879" stroke-linecap="round" stroke-linejoin="round" fill="none" stroke="#000000" d="M-1.19551 1.59401C-1.09587 .99626 0 .09961 .29886 0 0-.09961-1.09587-.99626-1.19551-1.59401"/>
<path transform="matrix(1,0,0,-1.00006,31.516999,38.424943)" stroke-width=".3985" stroke-linecap="butt" stroke-miterlimit="10" stroke-linejoin="miter" fill="none" stroke="#000000" d="M-25.46587-28.06046H25.00758"/>
<path transform="matrix(1,0,0,-1.00006,56.52458,66.48708)" stroke-width=".31879" stroke-linecap="round" stroke-linejoin="round" fill="none" stroke="#000000" d="M-1.19551 1.59401C-1.09587 .99626 0 .09961 .29886 0 0-.09961-1.09587-.99626-1.19551-1.59401"/>
<path transform="matrix(1,0,0,-1.00006,31.516999,38.424943)" stroke-width=".3985" stroke-linecap="butt" stroke-miterlimit="10" stroke-linejoin="miter" fill="none" stroke="#000000" d="M-26.2258-26.2258 25.90176 25.90176"/>
<path transform="matrix(.7071,-.70714238,-.7071,-.70714238,57.41876,12.521629)" stroke-width=".31879" stroke-linecap="round" stroke-linejoin="round" fill="none" stroke="#000000" d="M-1.19551 1.59401C-1.09587 .99626 0 .09961 .29886 0 0-.09961-1.09587-.99626-1.19551-1.59401"/>
<path transform="matrix(1,0,0,-1.00006,31.516999,38.424943)" stroke-width=".3985" stroke-linecap="butt" stroke-miterlimit="10" stroke-linejoin="miter" fill="none" stroke="#000000" d="M28.06046-25.46587V25.00758"/>
<path transform="matrix(0,-1.00006,-1,-0,59.577459,13.415863)" stroke-width=".31879" stroke-linecap="round" stroke-linejoin="round" fill="none" stroke="#000000" d="M-1.19551 1.59401C-1.09587 .99626 0 .09961 .29886 0 0-.09961-1.09587-.99626-1.19551-1.59401"/>
</svg>
