<svg xmlns="http://www.w3.org/2000/svg" xmlns:xlink="http://www.w3.org/1999/xlink" xmlns:inkscape="http://www.inkscape.org/namespaces/inkscape" version="1.1" width="63" height="64" viewBox="0 0 63 64">
<path transform="matrix(1,0,0,-1.00003,31.516999,32.2557)" d="M-25.66512 28.06046C-25.66512 29.38338-26.73753 30.45581-28.06046 30.45581-29.38338 30.45581-30.45581 29.38338-30.45581 28.06046-30.45581 26.73753-29.38338 25.66512-28.06046 25.66512-26.73753 25.66512-25.66512 26.73753-25.66512 28.06046ZM-28.06046 28.06046"/>
<path transform="matrix(1,0,0,-1.00003,31.516999,32.2557)" d="M-25.66512-28.06046C-25.66512-26.73753-26.73753-25.66512-28.06046-25.66512-29.38338-25.66512-30.45581-26.73753-30.45581-28.06046-30.45581-29.38338-29.38338-30.45581-28.06046-30.45581-26.73753-30.45581-25.66512-29.38338-25.66512-28.06046ZM-28.06046-28.06046"/>
<path transform="matrix(1,0,0,-1.00003,31.516999,32.2557)" d="M30.45581-28.06046C30.45581-26.73753 29.38338-25.66512 28.06046-25.66512 26.73753-25.66512 25.66512-26.73753 25.66512-28.06046 25.66512-29.38338 26.73753-30.45581 28.06046-30.45581 29.38338-30.45581 30.45581-29.38338 30.45581-28.06046ZM28.06046-28.06046"/>
<path transform="matrix(1,0,0,-1.00003,31.516999,32.2557)" d="M30.45581 28.06046C30.45581 29.38338 29.38338 30.45581 28.06046 30.45581 26.73753 30.45581 25.66512 29.38338 25.66512 28.06046 25.66512 26.73753 26.73753 25.66512 28.06046 25.66512 29.38338 25.66512 30.45581 26.73753 30.45581 28.06046ZM28.06046 28.06046"/>
<path transform="matrix(1,0,0,-1.00003,31.516999,32.2557)" stroke-width=".3985" stroke-linecap="butt" stroke-miterlimit="10" stroke-linejoin="miter" fill="none" stroke="#000000" d="M-28.06046 25.46587V-25.46587"/>
<path transform="matrix(1,0,0,-1.00003,31.516999,32.2557)" stroke-width=".3985" stroke-linecap="butt" stroke-miterlimit="10" stroke-linejoin="miter" fill="none" stroke="#000000" d="M-25.46587-28.06046H25.46587"/>
<path transform="matrix(1,0,0,-1.00003,31.516999,32.2557)" stroke-width=".3985" stroke-linecap="butt" stroke-miterlimit="10" stroke-linejoin="miter" fill="none" stroke="#000000" d="M28.06046-25.46587V25.46587"/>
<path transform="matrix(1,0,0,-1.00003,31.516999,32.2557)" stroke-width=".3985" stroke-linecap="butt" stroke-miterlimit="10" stroke-linejoin="miter" fill="none" stroke="#000000" d="M25.46587 28.06046H-25.46587"/>
<path transform="matrix(1,0,0,-1.00003,31.516999,32.2557)" stroke-width=".3985" stroke-linecap="butt" stroke-miterlimit="10" stroke-linejoin="miter" fill="none" stroke="#000000" d="M-26.2258 26.2258 26.2258-26.2258"/>
</svg>
