<svg xmlns="http://www.w3.org/2000/svg" xmlns:xlink="http://www.w3.org/1999/xlink" xmlns:inkscape="http://www.inkscape.org/namespaces/inkscape" version="1.1" width="112" height="153" viewBox="0 0 112 153">
<defs>
<path id="font_1_1" d="M.3789978 .69551089C.34199525 .71151736 .31098939 .7145233 .2919922 .7145233 .23899842 .7145233 .16499329 .69351199 .117996219 .61250308 .069992069 .5305023 .06599426 .4244995 .06599426 .34448243 .06599426 .29148866 .06599426 .099472049 .16299439 .02645874 .1579895 .012466431 .13899231-.039627077 .13899231-.05067444 .13899231-.06669617 .1519928-.07569885 .16299439-.07569885 .18099976-.07569885 .18499756-.062698367 .19198609-.044647218L.20498657-.0005340576C.21998596-.007537842 .2519989-.01953125 .2919922-.01953125 .34899903-.01953125 .4249878 .0044555666 .46998597 .08746338 .5109863 .1634674 .5179901 .2494812 .5179901 .34448243 .5179901 .40148927 .5179901 .5904999 .42099 .66851809 .42599488 .6825104 .44499208 .7345123 .44499208 .74549868 .44499208 .7615051 .43199159 .7705078 .42099 .7705078 .40299989 .7705078 .39898683 .7575073 .3919983 .73950198L.3789978 .69551089M.1789856 .07846069C.1459961 .13946533 .14399719 .2414856 .14399719 .3574829 .14399719 .4355011 .14399719 .513504 .1599884 .57450869 .18598938 .67251589 .2599945 .68652346 .2919922 .68652346 .32699586 .68652346 .35499574 .6715088 .36799623 .6625061L.1789856 .07846069M.4059906 .61950686C.43998719 .5595093 .43998719 .4534912 .43998719 .3574829 .43998719 .17747498 .43099977 .099472049 .38198854 .047470094 .37799073 .04246521 .34399415 .008468628 .2919922 .008468628 .2639923 .008468628 .23699951 .019454956 .21699524 .033462526 .21798706 .037460329 .22099304 .04446411 .22200012 .049468996L.4059906 .61950686Z"/>
<path id="font_2_1" d="M.42199708 .38238526C.40098573 .41540528 .36698915 .44140626 .31900025 .44140626 .19099427 .44140626 .06098938 .300354 .06098938 .15628052 .06098938 .059249879 .12599182-.009765625 .21199036-.009765625 .2659912-.009765625 .31399537 .021224976 .35398866 .0602417 .37298585 .00022888184 .43099977-.009765625 .45700074-.009765625 .49299623-.009765625 .5179901 .01222229 .5359955 .04324341 .55799868 .08226013 .57099917 .13928223 .57099917 .14328003 .57099917 .15628052 .55799868 .15628052 .5549927 .15628052 .54100039 .15628052 .5399933 .15228272 .5329895 .12527466 .5209961 .07725525 .5019989 .018234253 .45999146 .018234253 .43399049 .018234253 .4269867 .040237428 .4269867 .06724548 .4269867 .08425903 .43499757 .120269779 .44198609 .14628601 .44898988 .17329407 .45899964 .21430969 .46398927 .23632813L.48399354 .3123474C.48999024 .33836366 .5019989 .38539125 .5019989 .39038087 .5019989 .4123993 .48399354 .4223938 .46798707 .4223938 .45098878 .4223938 .42799378 .4104004 .42199708 .38238526M.35798646 .12527466C.35099793 .09725952 .32899476 .07725525 .30699159 .058242799 .2979889 .050247194 .2579956 .018234253 .21499634 .018234253 .17799378 .018234253 .14199829 .04423523 .14199829 .11526489 .14199829 .16828919 .17098999 .27833558 .19400025 .31835938 .23999024 .39839173 .29100038 .4133911 .31900025 .4133911 .3889923 .4133911 .4079895 .33737184 .4079895 .32635499 .4079895 .32235719 .4059906 .3153534 .40499879 .3123474L.35798646 .12527466Z"/>
<path id="font_2_2" d="M.2639923 .66430667C.2649994 .66630557 .2679901 .67930606 .2679901 .68029788 .2679901 .68530276 .2639923 .6943054 .2519989 .6943054 .23199463 .6943054 .14898682 .6863098 .12399292 .6843109 .115997318 .68330386 .101989749 .682312 .101989749 .66130068 .101989749 .64730837 .115997318 .64730837 .12799073 .64730837 .17599488 .64730837 .17599488 .64030459 .17599488 .63230898 .17599488 .62532046 .1659851 .58532717 .1599884 .5623474L.13699341 .4703827C.12799073 .43640138 .07299805 .21731568 .070999149 .20431519 .06599426 .18029785 .06599426 .16729737 .06599426 .1552887 .06599426 .054244996 .12998963-.009765625 .21299744-.009765625 .33799745-.009765625 .47099305 .12626648 .47099305 .27433778 .47099305 .39138795 .3899994 .44140626 .32099916 .44140626 .2689972 .44140626 .22499085 .4123993 .19499207 .38638307L.2639923 .66430667M.21398926 .018234253C.16499329 .018234253 .13699341 .06124878 .13699341 .120269779 .13699341 .1572876 .1459961 .19129944 .17399597 .3043518 .17999268 .32336427 .17999268 .32536317 .19898987 .34736634 .23699951 .39138795 .28199769 .4133911 .31799317 .4133911 .35699464 .4133911 .3909912 .38438417 .3909912 .31636048 .3909912 .27534486 .36898805 .17329407 .33898927 .11526489 .31498719 .06625366 .2649994 .018234253 .21398926 .018234253Z"/>
<path id="font_2_3" d="M.43798829 .38304139C.4019928 .37702943 .3869934 .34902955 .3869934 .32702638 .3869934 .30003358 .4079895 .29003907 .42599488 .29003907 .44799806 .29003907 .48298646 .30603028 .48298646 .35403443 .48298646 .4223938 .40499879 .44140626 .35099793 .44140626 .20098877 .44140626 .06199646 .3030243 .06199646 .16412354 .06199646 .078186038 .12199402-.009765625 .24699402-.009765625 .41600038-.009765625 .49499513 .08917236 .49499513 .10316467 .49499513 .10916138 .48599244 .120147708 .47799684 .120147708 .47200013 .120147708 .46998597 .1181488 .46199037 .11016846 .38398744 .018234253 .2669983 .018234253 .24899292 .018234253 .1769867 .018234253 .14498902 .06718445 .14498902 .12915039 .14498902 .15812683 .15899658 .26704408 .21099854 .33602906 .24899292 .3850708 .30099488 .4133911 .35099793 .4133911 .36499024 .4133911 .41299439 .41137696 .43798829 .38304139Z"/>
</defs>
<path transform="matrix(1.00005,0,0,-1.00009,55.83129,145.99033)" d="M5.27957 0C5.27957 2.91585 2.91585 5.27957 0 5.27957-2.91585 5.27957-5.27957 2.91585-5.27957 0-5.27957-2.91585-2.91585-5.27957 0-5.27957 2.91585-5.27957 5.27957-2.91585 5.27957 0ZM0 0" fill="#ffffff"/>
<path transform="matrix(1.00005,0,0,-1.00009,55.83129,145.99033)" stroke-width=".3985" stroke-linecap="butt" stroke-miterlimit="10" stroke-linejoin="miter" fill="none" stroke="#000000" d="M5.27957 0C5.27957 2.91585 2.91585 5.27957 0 5.27957-2.91585 5.27957-5.27957 2.91585-5.27957 0-5.27957-2.91585-2.91585-5.27957 0-5.27957 2.91585-5.27957 5.27957-2.91585 5.27957 0ZM0 0"/>
<use data-text="&#x2205;" xlink:href="#font_1_1" transform="matrix(6.9741489,0,0,-6.9744279,53.79019,148.41254)"/>
<path transform="matrix(1.00005,0,0,-1.00009,55.83129,145.99033)" d="M-43.74368 45.35506C-43.74368 47.81041-45.73412 49.80084-48.18947 49.80084-50.64484 49.80084-52.63525 47.81041-52.63525 45.35506-52.63525 42.89969-50.64484 40.90926-48.18947 40.90926-45.73412 40.90926-43.74368 42.89969-43.74368 45.35506ZM-48.18947 45.35506" fill="#ffffff"/>
<path transform="matrix(1.00005,0,0,-1.00009,55.83129,145.99033)" stroke-width=".3985" stroke-linecap="butt" stroke-miterlimit="10" stroke-linejoin="miter" fill="none" stroke="#000000" d="M-43.74368 45.35506C-43.74368 47.81041-45.73412 49.80084-48.18947 49.80084-50.64484 49.80084-52.63525 47.81041-52.63525 45.35506-52.63525 42.89969-50.64484 40.90926-48.18947 40.90926-45.73412 40.90926-43.74368 42.89969-43.74368 45.35506ZM-48.18947 45.35506"/>
<use data-text="a" xlink:href="#font_2_1" transform="matrix(6.9741489,0,0,-6.9744279,5.478779,102.13238)"/>
<path transform="matrix(1.00005,0,0,-1.00009,55.83129,145.99033)" d="M4.80528 45.35506C4.80528 48.00897 2.65392 50.16034 0 50.16034-2.65392 50.16034-4.80528 48.00897-4.80528 45.35506-4.80528 42.70113-2.65392 40.54976 0 40.54976 2.65392 40.54976 4.80528 42.70113 4.80528 45.35506ZM0 45.35506" fill="#ffffff"/>
<path transform="matrix(1.00005,0,0,-1.00009,55.83129,145.99033)" stroke-width=".3985" stroke-linecap="butt" stroke-miterlimit="10" stroke-linejoin="miter" fill="none" stroke="#000000" d="M4.80528 45.35506C4.80528 48.00897 2.65392 50.16034 0 50.16034-2.65392 50.16034-4.80528 48.00897-4.80528 45.35506-4.80528 42.70113-2.65392 40.54976 0 40.54976 2.65392 40.54976 4.80528 42.70113 4.80528 45.35506ZM0 45.35506"/>
<use data-text="b" xlink:href="#font_2_2" transform="matrix(6.9741489,0,0,-6.9744279,54.079206,103.05246)"/>
<path transform="matrix(1.00005,0,0,-1.00009,55.83129,145.99033)" d="M52.33293 45.35506C52.33293 47.64343 50.47786 49.4985 48.18947 49.4985 45.9011 49.4985 44.04602 47.64343 44.04602 45.35506 44.04602 43.06667 45.9011 41.2116 48.18947 41.2116 50.47786 41.2116 52.33293 43.06667 52.33293 45.35506ZM48.18947 45.35506" fill="#ffffff"/>
<path transform="matrix(1.00005,0,0,-1.00009,55.83129,145.99033)" stroke-width=".3985" stroke-linecap="butt" stroke-miterlimit="10" stroke-linejoin="miter" fill="none" stroke="#000000" d="M52.33293 45.35506C52.33293 47.64343 50.47786 49.4985 48.18947 49.4985 45.9011 49.4985 44.04602 47.64343 44.04602 45.35506 44.04602 43.06667 45.9011 41.2116 48.18947 41.2116 50.47786 41.2116 52.33293 43.06667 52.33293 45.35506ZM48.18947 45.35506"/>
<use data-text="c" xlink:href="#font_2_3" transform="matrix(6.9741489,0,0,-6.9744279,102.242618,102.13238)"/>
<path transform="matrix(1.00005,0,0,-1.00009,55.83129,145.99033)" d="M-41.81073 90.7097C-41.81073 94.23262-44.66655 97.08844-48.18947 97.08844-51.7124 97.08844-54.56822 94.23262-54.56822 90.7097-54.56822 87.18677-51.7124 84.33095-48.18947 84.33095-44.66655 84.33095-41.81073 87.18677-41.81073 90.7097ZM-48.18947 90.7097" fill="#ffffff"/>
<path transform="matrix(1.00005,0,0,-1.00009,55.83129,145.99033)" stroke-width=".3985" stroke-linecap="butt" stroke-miterlimit="10" stroke-linejoin="miter" fill="none" stroke="#000000" d="M-41.81073 90.7097C-41.81073 94.23262-44.66655 97.08844-48.18947 97.08844-51.7124 97.08844-54.56822 94.23262-54.56822 90.7097-54.56822 87.18677-51.7124 84.33095-48.18947 84.33095-44.66655 84.33095-41.81073 87.18677-41.81073 90.7097ZM-48.18947 90.7097"/>
<use data-text="a" xlink:href="#font_2_1" transform="matrix(6.9741489,0,0,-6.9744279,3.7266885,57.694375)"/>
<use data-text="b" xlink:href="#font_2_2" transform="matrix(6.9741489,0,0,-6.9744279,8.043682,57.694375)"/>
<path transform="matrix(1.00005,0,0,-1.00009,55.83129,145.99033)" d="M5.93095 90.7097C5.93095 93.9853 3.2756 96.64066 0 96.64066-3.2756 96.64066-5.93095 93.9853-5.93095 90.7097-5.93095 87.43408-3.2756 84.77873 0 84.77873 3.2756 84.77873 5.93095 87.43408 5.93095 90.7097ZM0 90.7097" fill="#ffffff"/>
<path transform="matrix(1.00005,0,0,-1.00009,55.83129,145.99033)" stroke-width=".3985" stroke-linecap="butt" stroke-miterlimit="10" stroke-linejoin="miter" fill="none" stroke="#000000" d="M5.93095 90.7097C5.93095 93.9853 3.2756 96.64066 0 96.64066-3.2756 96.64066-5.93095 93.9853-5.93095 90.7097-5.93095 87.43408-3.2756 84.77873 0 84.77873 3.2756 84.77873 5.93095 87.43408 5.93095 90.7097ZM0 90.7097"/>
<use data-text="a" xlink:href="#font_2_1" transform="matrix(6.9741489,0,0,-6.9744279,51.890096,56.7743)"/>
<use data-text="c" xlink:href="#font_2_3" transform="matrix(6.9741489,0,0,-6.9744279,56.20709,56.7743)"/>
<path transform="matrix(1.00005,0,0,-1.00009,55.83129,145.99033)" d="M54.27682 90.7097C54.27682 94.07169 51.55147 96.79706 48.18947 96.79706 44.82748 96.79706 42.10211 94.07169 42.10211 90.7097 42.10211 87.3477 44.82748 84.62233 48.18947 84.62233 51.55147 84.62233 54.27682 87.3477 54.27682 90.7097ZM48.18947 90.7097" fill="#ffffff"/>
<path transform="matrix(1.00005,0,0,-1.00009,55.83129,145.99033)" stroke-width=".3985" stroke-linecap="butt" stroke-miterlimit="10" stroke-linejoin="miter" fill="none" stroke="#000000" d="M54.27682 90.7097C54.27682 94.07169 51.55147 96.79706 48.18947 96.79706 44.82748 96.79706 42.10211 94.07169 42.10211 90.7097 42.10211 87.3477 44.82748 84.62233 48.18947 84.62233 51.55147 84.62233 54.27682 87.3477 54.27682 90.7097ZM48.18947 90.7097"/>
<use data-text="b" xlink:href="#font_2_2" transform="matrix(6.9741489,0,0,-6.9744279,100.490528,57.694375)"/>
<use data-text="c" xlink:href="#font_2_3" transform="matrix(6.9741489,0,0,-6.9744279,103.99155,57.694375)"/>
<path transform="matrix(1.00005,0,0,-1.00009,55.83129,145.99033)" d="M7.91548 136.06476C7.91548 140.4364 4.37164 143.98024 0 143.98024-4.37164 143.98024-7.91548 140.4364-7.91548 136.06476-7.91548 131.6931-4.37164 128.14926 0 128.14926 4.37164 128.14926 7.91548 131.6931 7.91548 136.06476ZM0 136.06476" fill="#ffffff"/>
<path transform="matrix(1.00005,0,0,-1.00009,55.83129,145.99033)" stroke-width=".3985" stroke-linecap="butt" stroke-miterlimit="10" stroke-linejoin="miter" fill="none" stroke="#000000" d="M7.91548 136.06476C7.91548 140.4364 4.37164 143.98024 0 143.98024-4.37164 143.98024-7.91548 140.4364-7.91548 136.06476-7.91548 131.6931-4.37164 128.14926 0 128.14926 4.37164 128.14926 7.91548 131.6931 7.91548 136.06476ZM0 136.06476"/>
<use data-text="a" xlink:href="#font_2_1" transform="matrix(6.9741489,0,0,-6.9744279,50.13801,12.335297)"/>
<use data-text="b" xlink:href="#font_2_2" transform="matrix(6.9741489,0,0,-6.9744279,54.455,12.335297)"/>
<use data-text="c" xlink:href="#font_2_3" transform="matrix(6.9741489,0,0,-6.9744279,57.956026,12.335297)"/>
<path transform="matrix(1.00005,0,0,-1.00009,55.83129,145.99033)" stroke-width=".3985" stroke-linecap="butt" stroke-miterlimit="10" stroke-linejoin="miter" fill="none" stroke="#000000" d="M-3.98947 3.75482-44.8072 42.17159"/>
<path transform="matrix(1.00005,0,0,-1.00009,55.83129,145.99033)" stroke-width=".3985" stroke-linecap="butt" stroke-miterlimit="10" stroke-linejoin="miter" fill="none" stroke="#000000" d="M0 5.47884V40.35051"/>
<path transform="matrix(1.00005,0,0,-1.00009,55.83129,145.99033)" stroke-width=".3985" stroke-linecap="butt" stroke-miterlimit="10" stroke-linejoin="miter" fill="none" stroke="#000000" d="M3.98947 3.75482 45.02734 42.37878"/>
<path transform="matrix(1.00005,0,0,-1.00009,55.83129,145.99033)" stroke-width=".3985" stroke-linecap="butt" stroke-miterlimit="10" stroke-linejoin="miter" fill="none" stroke="#000000" d="M-48.18947 50.00009V84.1317"/>
<path transform="matrix(1.00005,0,0,-1.00009,55.83129,145.99033)" stroke-width=".3985" stroke-linecap="butt" stroke-miterlimit="10" stroke-linejoin="miter" fill="none" stroke="#000000" d="M-44.80713 48.53845-4.46379 86.50847"/>
<path transform="matrix(1.00005,0,0,-1.00009,55.83129,145.99033)" stroke-width=".3985" stroke-linecap="butt" stroke-miterlimit="10" stroke-linejoin="miter" fill="none" stroke="#000000" d="M-3.6441 48.78482-43.39961 86.20158"/>
<path transform="matrix(1.00005,0,0,-1.00009,55.83129,145.99033)" stroke-width=".3985" stroke-linecap="butt" stroke-miterlimit="10" stroke-linejoin="miter" fill="none" stroke="#000000" d="M3.6441 48.78482 43.61179 86.40128"/>
<path transform="matrix(1.00005,0,0,-1.00009,55.83129,145.99033)" stroke-width=".3985" stroke-linecap="butt" stroke-miterlimit="10" stroke-linejoin="miter" fill="none" stroke="#000000" d="M45.02728 48.33125 4.46379 86.50847"/>
<path transform="matrix(1.00005,0,0,-1.00009,55.83129,145.99033)" stroke-width=".3985" stroke-linecap="butt" stroke-miterlimit="10" stroke-linejoin="miter" fill="none" stroke="#000000" d="M48.18947 49.69775V84.42308"/>
<path transform="matrix(1.00005,0,0,-1.00009,55.83129,145.99033)" stroke-width=".3985" stroke-linecap="butt" stroke-miterlimit="10" stroke-linejoin="miter" fill="none" stroke="#000000" d="M-43.39961 95.21782-5.90872 130.50334"/>
<path transform="matrix(1.00005,0,0,-1.00009,55.83129,145.99033)" stroke-width=".3985" stroke-linecap="butt" stroke-miterlimit="10" stroke-linejoin="miter" fill="none" stroke="#000000" d="M0 96.8399V127.95001"/>
<path transform="matrix(1.00005,0,0,-1.00009,55.83129,145.99033)" stroke-width=".3985" stroke-linecap="butt" stroke-miterlimit="10" stroke-linejoin="miter" fill="none" stroke="#000000" d="M43.61179 95.01811 5.90872 130.50334"/>
</svg>
