<svg xmlns="http://www.w3.org/2000/svg" xmlns:xlink="http://www.w3.org/1999/xlink" xmlns:inkscape="http://www.inkscape.org/namespaces/inkscape" version="1.1" width="99" height="100" viewBox="0 0 99 100">
<defs>
<path id="font_1_2" d="M.33499146 .63612368C.33499146 .6630554 .33299256 .6640625 .30499269 .6640625 .24099732 .6014404 .1499939 .6004486 .10899353 .6004486V.5644531C.1329956 .5644531 .19898987 .5644531 .2539978 .592453V.08203125C.2539978 .04899597 .2539978 .035995485 .1539917 .035995485H.115997318V0C.13398743 .0009918213 .25698854 .0039978029 .2939911 .0039978029 .32499696 .0039978029 .45098878 .0009918213 .47299195 0V.035995485H.43499757C.33499146 .035995485 .33499146 .04899597 .33499146 .08203125V.63612368Z"/>
<path id="font_1_5" d="M.1499939 .3274536C.1499939 .40945436 .15699768 .48303224 .19499207 .543869 .22898865 .5978699 .2829895 .63505557 .34700013 .63505557 .3769989 .63505557 .4169922 .62701418 .43699647 .5998688 .4119873 .5978699 .3909912 .5808716 .3909912 .5518799 .3909912 .5268707 .4079895 .5048828 .43798829 .5048828 .46798707 .5048828 .48599244 .5248718 .48599244 .5538788 .48599244 .6119385 .44400025 .6640625 .34498597 .6640625 .20098877 .6640625 .053985597 .5318756 .053985597 .3174591 .053985597 .05845642 .17599488-.01953125 .28599549-.01953125 .4079895-.01953125 .5139923 .07345581 .5139923 .20445252 .5139923 .33145143 .41299439 .42546083 .29599 .42546083 .21598816 .42546083 .17199707 .37245179 .1499939 .3274536M.28599549 .012466431C.23599243 .012466431 .19699097 .04145813 .17599488 .08546448 .16099549 .11546326 .15299988 .16545105 .15299988 .22544861 .15299988 .32244874 .21099854 .39746095 .29100038 .39746095 .33699037 .39746095 .36799623 .37945558 .3929901 .342453 .4169922 .30445863 .41799928 .26245118 .41799928 .20445252 .41799928 .14746094 .41799928 .10545349 .3909912 .066467288 .36698915 .031463624 .33499146 .012466431 .28599549 .012466431Z"/>
<path id="font_1_3" d="M.272995 .33428956C.35099793 .33428956 .40699769 .2803192 .40699769 .1733551 .40699769 .04940796 .33499146 .012466431 .2769928 .012466431 .23699951 .012466431 .14898682 .0234375 .10699463 .082351688 .1539917 .084350589 .16499329 .11735535 .16499329 .13835144 .16499329 .17034912 .14099121 .19335938 .10998535 .19335938 .08198547 .19335938 .053985597 .17634583 .053985597 .13534546 .053985597 .041412355 .1579895-.01953125 .2789917-.01953125 .41799928-.01953125 .5139923 .07336426 .5139923 .1733551 .5139923 .2513275 .44999696 .32929994 .33999635 .35229493 .44499208 .39024354 .48298646 .4650879 .48298646 .5260773 .48298646 .60505679 .3919983 .6640625 .2809906 .6640625 .16999817 .6640625 .084991458 .61006167 .084991458 .5300751 .084991458 .49606324 .10699463 .47706605 .13699341 .47706605 .16799927 .47706605 .18798828 .5000763 .18798828 .5280762 .18798828 .5570679 .16799927 .57806399 .13699341 .5800781 .17199707 .62405398 .24099732 .63505557 .27799989 .63505557 .32299806 .63505557 .38598634 .6130676 .38598634 .5260773 .38598634 .48406983 .37199403 .43814088 .34599305 .4072113 .31298829 .36927796 .2849884 .3672943 .23498535 .36428834 .20999146 .3623047 .20799256 .3623047 .20298767 .3612976 .20098877 .3612976 .19299317 .3592987 .19299317 .34829713 .19299317 .33428956 .20199585 .33428956 .21899414 .33428956H.272995Z"/>
<path id="font_1_4" d="M.5289917 .1640625V.20005799H.41799928V.64582827C.41799928 .66682437 .41799928 .6738281 .3959961 .6738281 .38398744 .6738281 .37998963 .6738281 .36999513 .65982058L.038986207 .20005799V.1640625H.33299256V.08201599C.33299256 .04800415 .33299256 .035995485 .2519989 .035995485H.22499085V0C.2749939 .0019989014 .33898927 .0039978029 .375 .0039978029 .4119873 .0039978029 .47599793 .0019989014 .526001 0V.035995485H.49899293C.41799928 .035995485 .41799928 .04800415 .41799928 .08201599V.1640625H.5289917M.33999635 .5658722V.20005799H.07598877L.33999635 .5658722Z"/>
<path id="font_1_1" d="M.5159912 .31925965C.5159912 .42918397 .5029907 .50813296 .45700074 .5780945 .42599488 .62405398 .3639984 .6640625 .28399659 .6640625 .051986696 .6640625 .051986696 .39120484 .051986696 .31925965 .051986696 .2472992 .051986696-.01953125 .28399659-.01953125 .5159912-.01953125 .5159912 .2472992 .5159912 .31925965M.28399659 .008468628C.23799134 .008468628 .1769867 .035446168 .15699768 .117385867 .14299011 .17634583 .14299011 .25830079 .14299011 .33224488 .14299011 .40519715 .14299011 .4811554 .1579895 .53611758 .1789856 .6150665 .24299622 .63604739 .28399659 .63604739 .33799745 .63604739 .3899994 .6030731 .4079895 .545105 .42399598 .4911499 .4249878 .41918946 .4249878 .33224488 .4249878 .25830079 .4249878 .18434143 .4119873 .12138367 .3919983 .030441285 .32398988 .008468628 .28399659 .008468628Z"/>
<path id="font_1_6" d="M.35499574 .36123658C.43299867 .3992157 .48298646 .44618226 .48298646 .5151367 .48298646 .6120758 .38198854 .6640625 .2849884 .6640625 .1749878 .6640625 .084991458 .5920868 .084991458 .4971466 .084991458 .45018006 .10699463 .41619874 .125 .39620973 .14299011 .37522889 .1499939 .37123109 .20899964 .33624269 .15299988 .31227113 .053985597 .25830079 .053985597 .15336609 .053985597 .042434694 .16899109-.01953125 .2829895-.01953125 .4099884-.01953125 .5139923 .061431886 .5139923 .1693573 .5139923 .23532105 .47499085 .29127503 .4169922 .32525636 .4039917 .33325196 .36898805 .35324098 .35499574 .36123658M.19198609 .45617677C.1659851 .4711609 .13798523 .49813844 .13798523 .53512576 .13798523 .5980835 .21099854 .63505557 .2829895 .63505557 .36099244 .63505557 .42999269 .5860901 .42999269 .5151367 .42999269 .42619325 .32598878 .3812256 .32398988 .3812256 .32199098 .3812256 .31999208 .3822174 .31298829 .3862152L.19198609 .45617677M.24099732 .31726075 .37799073 .23831177C.4039917 .22332764 .45399476 .19334412 .45399476 .13438416 .45399476 .059432985 .37098695 .012466431 .2849884 .012466431 .19299317 .012466431 .11399841 .07142639 .11399841 .15336609 .11399841 .22732544 .16899109 .2842865 .24099732 .31726075Z"/>
</defs>
<path transform="matrix(1.00002,0,0,-1.00008,6.084322,6.8228266)" d="M4.82352-85.04042C4.82352-82.37643 2.66399-80.21689 0-80.21689-2.66399-80.21689-4.82352-82.37643-4.82352-85.04042-4.82352-87.70442-2.66399-89.86395 0-89.86395 2.66399-89.86395 4.82352-87.70442 4.82352-85.04042ZM0-85.04042" fill="#ffffff"/>
<path transform="matrix(1.00002,0,0,-1.00008,6.084322,6.8228266)" stroke-width=".3985" stroke-linecap="butt" stroke-miterlimit="10" stroke-linejoin="miter" fill="none" stroke="#000000" d="M4.82352-85.04042C4.82352-82.37643 2.66399-80.21689 0-80.21689-2.66399-80.21689-4.82352-82.37643-4.82352-85.04042-4.82352-87.70442-2.66399-89.86395 0-89.86395 2.66399-89.86395 4.82352-87.70442 4.82352-85.04042ZM0-85.04042"/>
<use data-text="1" xlink:href="#font_1_2" transform="matrix(6.97394,0,0,-6.974358,4.098282,94.117809)"/>
<path transform="matrix(1.00002,0,0,-1.00008,6.084322,6.8228266)" d="M47.34372-85.04042C47.34372-82.37643 45.18419-80.21689 42.5202-80.21689 39.8562-80.21689 37.69667-82.37643 37.69667-85.04042 37.69667-87.70442 39.8562-89.86395 42.5202-89.86395 45.18419-89.86395 47.34372-87.70442 47.34372-85.04042ZM42.5202-85.04042" fill="#ffffff"/>
<path transform="matrix(1.00002,0,0,-1.00008,6.084322,6.8228266)" stroke-width=".3985" stroke-linecap="butt" stroke-miterlimit="10" stroke-linejoin="miter" fill="none" stroke="#000000" d="M47.34372-85.04042C47.34372-82.37643 45.18419-80.21689 42.5202-80.21689 39.8562-80.21689 37.69667-82.37643 37.69667-85.04042 37.69667-87.70442 39.8562-89.86395 42.5202-89.86395 45.18419-89.86395 47.34372-87.70442 47.34372-85.04042ZM42.5202-85.04042"/>
<use data-text="6" xlink:href="#font_1_5" transform="matrix(6.97394,0,0,-6.974358,46.620134,94.117809)"/>
<path transform="matrix(1.00002,0,0,-1.00008,6.084322,6.8228266)" d="M26.08362-42.5202C26.08362-39.8562 23.92409-37.69667 21.2601-37.69667 18.5961-37.69667 16.43657-39.8562 16.43657-42.5202 16.43657-45.18419 18.5961-47.34372 21.2601-47.34372 23.92409-47.34372 26.08362-45.18419 26.08362-42.5202ZM21.2601-42.5202" fill="#ffffff"/>
<path transform="matrix(1.00002,0,0,-1.00008,6.084322,6.8228266)" stroke-width=".3985" stroke-linecap="butt" stroke-miterlimit="10" stroke-linejoin="miter" fill="none" stroke="#000000" d="M26.08362-42.5202C26.08362-39.8562 23.92409-37.69667 21.2601-37.69667 18.5961-37.69667 16.43657-39.8562 16.43657-42.5202 16.43657-45.18419 18.5961-47.34372 21.2601-47.34372 23.92409-47.34372 26.08362-45.18419 26.08362-42.5202ZM21.2601-42.5202"/>
<use data-text="3" xlink:href="#font_1_3" transform="matrix(6.97394,0,0,-6.974358,25.358708,51.593408)"/>
<path transform="matrix(1.00002,0,0,-1.00008,6.084322,6.8228266)" d="M91.37004-85.04042C91.37004-81.54463 88.53621-78.7108 85.04042-78.7108 81.54463-78.7108 78.7108-81.54463 78.7108-85.04042 78.7108-88.53621 81.54463-91.37004 85.04042-91.37004 88.53621-91.37004 91.37004-88.53621 91.37004-85.04042ZM85.04042-85.04042" fill="#ffffff"/>
<path transform="matrix(1.00002,0,0,-1.00008,6.084322,6.8228266)" stroke-width=".3985" stroke-linecap="butt" stroke-miterlimit="10" stroke-linejoin="miter" fill="none" stroke="#000000" d="M91.37004-85.04042C91.37004-81.54463 88.53621-78.7108 85.04042-78.7108 81.54463-78.7108 78.7108-81.54463 78.7108-85.04042 78.7108-88.53621 81.54463-91.37004 85.04042-91.37004 88.53621-91.37004 91.37004-88.53621 91.37004-85.04042ZM85.04042-85.04042"/>
<use data-text="1" xlink:href="#font_1_2" transform="matrix(6.97394,0,0,-6.974358,87.154949,94.117809)"/>
<use data-text="4" xlink:href="#font_1_4" transform="matrix(6.97394,0,0,-6.974358,91.12312,94.117809)"/>
<path transform="matrix(1.00002,0,0,-1.00008,6.084322,6.8228266)" d="M91.37004-42.5202C91.37004-39.02441 88.53621-36.19058 85.04042-36.19058 81.54463-36.19058 78.7108-39.02441 78.7108-42.5202 78.7108-46.01599 81.54463-48.84982 85.04042-48.84982 88.53621-48.84982 91.37004-46.01599 91.37004-42.5202ZM85.04042-42.5202" fill="#ffffff"/>
<path transform="matrix(1.00002,0,0,-1.00008,6.084322,6.8228266)" stroke-width=".3985" stroke-linecap="butt" stroke-miterlimit="10" stroke-linejoin="miter" fill="none" stroke="#000000" d="M91.37004-42.5202C91.37004-39.02441 88.53621-36.19058 85.04042-36.19058 81.54463-36.19058 78.7108-39.02441 78.7108-42.5202 78.7108-46.01599 81.54463-48.84982 85.04042-48.84982 88.53621-48.84982 91.37004-46.01599 91.37004-42.5202ZM85.04042-42.5202"/>
<use data-text="1" xlink:href="#font_1_2" transform="matrix(6.97394,0,0,-6.974358,87.154949,51.593408)"/>
<use data-text="0" xlink:href="#font_1_1" transform="matrix(6.97394,0,0,-6.974358,91.12312,51.593408)"/>
<path transform="matrix(1.00002,0,0,-1.00008,6.084322,6.8228266)" d="M57.97379 0C57.97379 2.66399 55.81425 4.82352 53.15025 4.82352 50.48627 4.82352 48.32674 2.66399 48.32674 0 48.32674-2.66399 50.48627-4.82352 53.15025-4.82352 55.81425-4.82352 57.97379-2.66399 57.97379 0ZM53.15025 0" fill="#ffffff"/>
<path transform="matrix(1.00002,0,0,-1.00008,6.084322,6.8228266)" stroke-width=".3985" stroke-linecap="butt" stroke-miterlimit="10" stroke-linejoin="miter" fill="none" stroke="#000000" d="M57.97379 0C57.97379 2.66399 55.81425 4.82352 53.15025 4.82352 50.48627 4.82352 48.32674 2.66399 48.32674 0 48.32674-2.66399 50.48627-4.82352 53.15025-4.82352 55.81425-4.82352 57.97379-2.66399 57.97379 0ZM53.15025 0"/>
<use data-text="8" xlink:href="#font_1_6" transform="matrix(6.97394,0,0,-6.974358,57.25035,9.070006)"/>
<path transform="matrix(1.00002,0,0,-1.00008,6.084322,6.8228266)" stroke-width=".3985" stroke-linecap="butt" stroke-miterlimit="10" stroke-linejoin="miter" fill="none" stroke="#000000" d="M50.13664-4.01807 24.27371-38.50212"/>
<path transform="matrix(1.00002,0,0,-1.00008,6.084322,6.8228266)" stroke-width=".3985" stroke-linecap="butt" stroke-miterlimit="10" stroke-linejoin="miter" fill="none" stroke="#000000" d="M56.16386-4.01807 81.12315-37.29729"/>
<path transform="matrix(1.00002,0,0,-1.00008,6.084322,6.8228266)" stroke-width=".3985" stroke-linecap="butt" stroke-miterlimit="10" stroke-linejoin="miter" fill="none" stroke="#000000" d="M19.01405-47.01239 2.24603-80.54823"/>
<path transform="matrix(1.00002,0,0,-1.00008,6.084322,6.8228266)" stroke-width=".3985" stroke-linecap="butt" stroke-miterlimit="10" stroke-linejoin="miter" fill="none" stroke="#000000" d="M23.50615-47.01239 40.27415-80.54823"/>
<path transform="matrix(1.00002,0,0,-1.00008,6.084322,6.8228266)" stroke-width=".3985" stroke-linecap="butt" stroke-miterlimit="10" stroke-linejoin="miter" fill="none" stroke="#000000" d="M85.04042-49.04907V-78.51155"/>
</svg>
