<svg xmlns="http://www.w3.org/2000/svg" xmlns:xlink="http://www.w3.org/1999/xlink" xmlns:inkscape="http://www.inkscape.org/namespaces/inkscape" version="1.1" width="90" height="109" viewBox="0 0 90 109">
<defs>
<path id="font_1_1" d="M.4850006 .41075135 .40098573 .6096344C.397995 .61763 .3959961 .6216278 .3959961 .6226196 .3959961 .62861636 .41299439 .6476135 .45498658 .6516113 .46499635 .65260317 .47499085 .6536102 .47499085 .6706085 .47499085 .6826172 .46299745 .6826172 .45999146 .6826172 .4189911 .6826172 .37599183 .6796112 .33399964 .6796112 .30899049 .6796112 .24699402 .6826172 .22200012 .6826172 .21598816 .6826172 .20399475 .6826172 .20399475 .6626129 .20399475 .6516113 .21398926 .6516113 .22698975 .6516113 .2869873 .6516113 .29299928 .6416168 .3019867 .6196289L.41999818 .34080506 .20899964 .11393738 .19599915 .10295105C.14698792 .049987794 .099990848 .033996583 .04899597 .0309906 .035995485 .02999878 .026992798 .02999878 .026992798 .010986328 .026992798 .009994507 .026992798 0 .039993287 0 .069992069 0 .102996829 .0029907227 .13398743 .0029907227 .17098999 .0029907227 .20999146 0 .24598694 0 .2519989 0 .2639923 0 .2639923 .019989014 .2639923 .02999878 .2539978 .0309906 .2519989 .0309906 .24299622 .03199768 .21199036 .033996583 .21199036 .061965944 .21199036 .07795715 .22698975 .093948367 .23899842 .10694885L.34098817 .21487427 .43099977 .31282044 .5319977 .07395935C.5359955 .06297302 .5369873 .061965944 .5369873 .05996704 .5369873 .051986696 .5179901 .034988405 .47898866 .0309906 .46798707 .02999878 .45899964 .0289917 .45899964 .011993408 .45899964 0 .46998597 0 .47399903 0 .5019989 0 .57199099 .0029907227 .59999087 .0029907227 .625 .0029907227 .6859894 0 .71099856 0 .71798709 0 .7299957 0 .7299957 .018997193 .7299957 .0309906 .7200012 .0309906 .71199038 .0309906 .644989 .03199768 .6429901 .034988405 .6259918 .07496643 .58699038 .16790772 .519989 .32380677 .49699403 .3837738 .5649872 .45373536 .66999819 .5726471 .70199587 .6006317 .73098757 .62461856 .7689972 .64860537 .82899478 .6516113 .84199526 .65260317 .8509979 .65260317 .8509979 .6716156 .8509979 .6726074 .8509979 .6826172 .83799746 .6826172 .80799868 .6826172 .7749939 .6796112 .74398806 .6796112 .70700076 .6796112 .6689911 .6826172 .6329956 .6826172 .6269989 .6826172 .6139984 .6826172 .6139984 .6626129 .6139984 .65560916 .61898806 .65260317 .6259918 .6516113 .6349945 .65060427 .66600039 .64860537 .66600039 .6206207 .66600039 .6066284 .6549988 .5936432 .6469879 .5846405L.4850006 .41075135Z"/>
<path id="font_1_2" d="M.5970001 .5686493 .61099246 .5826416C.6409912 .6126251 .673996 .64660647 .74198916 .6516113 .7529907 .65260317 .7619934 .65260317 .7619934 .6706085 .7619934 .6786041 .7569885 .6826172 .7489929 .6826172 .72299197 .6826172 .69400027 .6796112 .6669922 .6796112 .6339874 .6796112 .598999 .6826172 .5669861 .6826172 .5609894 .6826172 .5479889 .6826172 .5479889 .66360476 .5479889 .65260317 .55799868 .6516113 .5629883 .6516113 .56999209 .6516113 .598999 .6496124 .598999 .62861636 .598999 .6116333 .57598879 .5856476 .57199099 .5806427L.33999635 .31381227 .22999573 .6106262C.22399903 .62461856 .22399903 .62661746 .22399903 .6276245 .22399903 .6516113 .272995 .6516113 .2829895 .6516113 .29699708 .6516113 .30699159 .6516113 .30699159 .6716156 .30699159 .6826172 .29499818 .6826172 .2919922 .6826172 .2639923 .6826172 .19400025 .6796112 .1659851 .6796112 .14099121 .6796112 .07899475 .6826172 .053985597 .6826172 .04798889 .6826172 .034988405 .6826172 .034988405 .6626129 .034988405 .6516113 .04499817 .6516113 .057998659 .6516113 .117996219 .6516113 .12199402 .64260867 .1309967 .61763L.2539978 .28883363C.25498963 .28582765 .2579956 .2748413 .2579956 .27183534 .2579956 .2688446 .21798706 .107940677 .21299744 .08995056 .19999695 .034988405 .19898987 .03199768 .11898804 .0309906 .099990848 .0309906 .09199524 .0309906 .09199524 .010986328 .09199524 0 .10398865 0 .10598755 0 .13398743 0 .20399475 .0029907227 .23199463 .0029907227 .2599945 .0029907227 .33198548 0 .3600006 0 .36698915 0 .3789978 0 .3789978 .019989014 .3789978 .0309906 .36999513 .0309906 .35099793 .0309906 .34899903 .0309906 .32998658 .0309906 .31298829 .032989503 .2919922 .034988405 .28599549 .036987306 .28599549 .048980714 .28599549 .05596924 .29499818 .09095764 .2999878 .11193848L.33499146 .2528534C.33999635 .27183534 .34098817 .2748413 .34899903 .28382875L.5970001 .5686493Z"/>
</defs>
<path transform="matrix(1,0,0,-1.00003,45.584,62.636735)" d="M-37.43083 42.5202C-37.43083 43.76535-38.4402 44.77472-39.68535 44.77472-40.9305 44.77472-41.93987 43.76535-41.93987 42.5202-41.93987 41.27505-40.9305 40.26569-39.68535 40.26569-38.4402 40.26569-37.43083 41.27505-37.43083 42.5202ZM-39.68535 42.5202"/>
<path transform="matrix(1,0,0,-1.00003,45.584,62.636735)" d="M-37.43083 14.17339C-37.43083 15.41853-38.4402 16.4279-39.68535 16.4279-40.9305 16.4279-41.93987 15.41853-41.93987 14.17339-41.93987 12.92824-40.9305 11.91887-39.68535 11.91887-38.4402 11.91887-37.43083 12.92824-37.43083 14.17339ZM-39.68535 14.17339"/>
<path transform="matrix(1,0,0,-1.00003,45.584,62.636735)" d="M-37.43083-14.17339C-37.43083-12.92824-38.4402-11.91887-39.68535-11.91887-40.9305-11.91887-41.93987-12.92824-41.93987-14.17339-41.93987-15.41853-40.9305-16.4279-39.68535-16.4279-38.4402-16.4279-37.43083-15.41853-37.43083-14.17339ZM-39.68535-14.17339"/>
<path transform="matrix(1,0,0,-1.00003,45.584,62.636735)" d="M-37.43083-42.5202C-37.43083-41.27505-38.4402-40.26569-39.68535-40.26569-40.9305-40.26569-41.93987-41.27505-41.93987-42.5202-41.93987-43.76535-40.9305-44.77472-39.68535-44.77472-38.4402-44.77472-37.43083-43.76535-37.43083-42.5202ZM-39.68535-42.5202"/>
<path transform="matrix(1,0,0,-1.00003,45.584,62.636735)" d="M41.93987 14.17339C41.93987 15.41853 40.9305 16.4279 39.68535 16.4279 38.4402 16.4279 37.43083 15.41853 37.43083 14.17339 37.43083 12.92824 38.4402 11.91887 39.68535 11.91887 40.9305 11.91887 41.93987 12.92824 41.93987 14.17339ZM39.68535 14.17339"/>
<path transform="matrix(1,0,0,-1.00003,45.584,62.636735)" d="M41.93987-14.17339C41.93987-12.92824 40.9305-11.91887 39.68535-11.91887 38.4402-11.91887 37.43083-12.92824 37.43083-14.17339 37.43083-15.41853 38.4402-16.4279 39.68535-16.4279 40.9305-16.4279 41.93987-15.41853 41.93987-14.17339ZM39.68535-14.17339"/>
<path transform="matrix(1,0,0,-1.00003,45.584,62.636735)" stroke-width=".3985" stroke-linecap="butt" stroke-miterlimit="10" stroke-linejoin="miter" fill="none" stroke="#000000" d="M-37.37465 41.69496 36.9431 15.15274"/>
<path transform="matrix(.9417,.33633013,.33632,-.9417283,82.5271,47.48352)" stroke-width=".31879" stroke-linecap="round" stroke-linejoin="round" fill="none" stroke="#000000" d="M-1.19551 1.59401C-1.09587 .99626 0 .09961 .29886 0 0-.09961-1.09587-.99626-1.19551-1.59401"/>
<path transform="matrix(1,0,0,-1.00003,45.584,62.636735)" stroke-width=".3985" stroke-linecap="butt" stroke-miterlimit="10" stroke-linejoin="miter" fill="none" stroke="#000000" d="M-37.23158 14.17339H36.7733"/>
<path transform="matrix(1,0,0,-1.00003,82.3573,48.462919)" stroke-width=".31879" stroke-linecap="round" stroke-linejoin="round" fill="none" stroke="#000000" d="M-1.19551 1.59401C-1.09587 .99626 0 .09961 .29886 0 0-.09961-1.09587-.99626-1.19551-1.59401"/>
<path transform="matrix(1,0,0,-1.00003,45.584,62.636735)" stroke-width=".3985" stroke-linecap="butt" stroke-miterlimit="10" stroke-linejoin="miter" fill="none" stroke="#000000" d="M-37.23158-14.17339H36.7733"/>
<path transform="matrix(1,0,0,-1.00003,82.3573,76.81055)" stroke-width=".31879" stroke-linecap="round" stroke-linejoin="round" fill="none" stroke="#000000" d="M-1.19551 1.59401C-1.09587 .99626 0 .09961 .29886 0 0-.09961-1.09587-.99626-1.19551-1.59401"/>
<path transform="matrix(1,0,0,-1.00003,45.584,62.636735)" stroke-width=".3985" stroke-linecap="butt" stroke-miterlimit="10" stroke-linejoin="miter" fill="none" stroke="#000000" d="M-37.37465-41.69496 36.9431-15.15274"/>
<path transform="matrix(.9417,-.33633013,-.33632,-.9417283,82.5271,77.78995)" stroke-width=".31879" stroke-linecap="round" stroke-linejoin="round" fill="none" stroke="#000000" d="M-1.19551 1.59401C-1.09587 .99626 0 .09961 .29886 0 0-.09961-1.09587-.99626-1.19551-1.59401"/>
<use data-text="X" xlink:href="#font_1_1" transform="matrix(9.9626,0,0,-9.962899,1.3810005,7.928089)"/>
<use data-text="Y" xlink:href="#font_1_2" transform="matrix(9.9626,0,0,-9.962899,81.270008,36.27594)"/>
</svg>
