<svg xmlns="http://www.w3.org/2000/svg" xmlns:xlink="http://www.w3.org/1999/xlink" xmlns:inkscape="http://www.inkscape.org/namespaces/inkscape" version="1.1" width="130" height="114" viewBox="0 0 130 114">
<defs>
<path id="font_1_1" d="M.47299195 .31976319C.47299195 .38682557 .46998597 .47288514 .43499757 .5479431 .3909912 .64201357 .31498719 .6660156 .25698854 .6660156 .19699097 .6660156 .12098694 .64201357 .07699585 .5459442 .04499817 .47688294 .039993287 .39582826 .039993287 .31976319 .039993287 .25471498 .041992189 .15765381 .084991458 .07858276 .13198853-.0064697267 .20999146-.022460938 .2559967-.022460938 .32099916-.022460938 .394989 .0055389406 .43699647 .097595218 .46699525 .1646576 .47299195 .23971558 .47299195 .31976319M.25698854 .002532959C.22698975 .002532959 .15499878 .016540528 .13598633 .12962342 .12599182 .18867493 .12599182 .2747345 .12599182 .33177186 .12599182 .39982606 .12599182 .47888185 .13798523 .53393557 .1579895 .6230011 .22200012 .64100649 .2559967 .64100649 .2939911 .64100649 .35699464 .62098696 .37599183 .5279236 .3869934 .47288514 .3869934 .39482118 .3869934 .33177186 .3869934 .2697296 .3869934 .18566895 .3769989 .12661743 .35598756 .012542725 .28199769 .002532959 .25698854 .002532959Z"/>
<path id="font_1_2" d="M.3039856 .6392822C.3039856 .6642761 .30299378 .666275 .27799989 .666275 .21598816 .60227969 .12399292 .60227969 .09298706 .60227969V.57128909C.11199951 .57128909 .17298889 .57128909 .22698975 .5972748V.08001709C.22698975 .042999269 .22399903 .0309906 .1309967 .0309906H.09899902V0C.1349945 .0029907227 .22399903 .0029907227 .2649994 .0029907227 .30599977 .0029907227 .3959961 .0029907227 .43199159 0V.0309906H.3999939C.30699159 .0309906 .3039856 .042999269 .3039856 .08001709V.6392822Z"/>
</defs>
<path transform="matrix(1.00009,0,0,-1.00002,54.45407,67.828258)" d="M-31.33745-33.73279C-31.33745-32.40987-32.40987-31.33745-33.73279-31.33745-35.05571-31.33745-36.12813-32.40987-36.12813-33.73279-36.12813-35.05571-35.05571-36.12813-33.73279-36.12813-32.40987-36.12813-31.33745-35.05571-31.33745-33.73279ZM-33.73279-33.73279"/>
<path transform="matrix(1.00009,0,0,-1.00002,54.45407,67.828258)" d="M36.12813-33.73279C36.12813-32.40987 35.05571-31.33745 33.73279-31.33745 32.40987-31.33745 31.33745-32.40987 31.33745-33.73279 31.33745-35.05571 32.40987-36.12813 33.73279-36.12813 35.05571-36.12813 36.12813-35.05571 36.12813-33.73279ZM33.73279-33.73279"/>
<path transform="matrix(1.00009,0,0,-1.00002,54.45407,67.828258)" d="M36.12813 33.73279C36.12813 35.05571 35.05571 36.12813 33.73279 36.12813 32.40987 36.12813 31.33745 35.05571 31.33745 33.73279 31.33745 32.40987 32.40987 31.33745 33.73279 31.33745 35.05571 31.33745 36.12813 32.40987 36.12813 33.73279ZM33.73279 33.73279"/>
<path transform="matrix(1.00009,0,0,-1.00002,54.45407,67.828258)" d="M-31.33745 33.73279C-31.33745 35.05571-32.40987 36.12813-33.73279 36.12813-35.05571 36.12813-36.12813 35.05571-36.12813 33.73279-36.12813 32.40987-35.05571 31.33745-33.73279 31.33745-32.40987 31.33745-31.33745 32.40987-31.33745 33.73279ZM-33.73279 33.73279"/>
<path transform="matrix(1.00009,0,0,-1.00002,54.45407,67.828258)" d="M-9.65211-12.04745C-9.65211-10.72453-10.72453-9.65211-12.04745-9.65211-13.37038-9.65211-14.4428-10.72453-14.4428-12.04745-14.4428-13.37038-13.37038-14.4428-12.04745-14.4428-10.72453-14.4428-9.65211-13.37038-9.65211-12.04745ZM-12.04745-12.04745"/>
<path transform="matrix(1.00009,0,0,-1.00002,54.45407,67.828258)" d="M57.81381-12.04745C57.81381-10.72453 56.7414-9.65211 55.41847-9.65211 54.09555-9.65211 53.02313-10.72453 53.02313-12.04745 53.02313-13.37038 54.09555-14.4428 55.41847-14.4428 56.7414-14.4428 57.81381-13.37038 57.81381-12.04745ZM55.41847-12.04745"/>
<path transform="matrix(1.00009,0,0,-1.00002,54.45407,67.828258)" d="M57.81381 55.41847C57.81381 56.7414 56.7414 57.81381 55.41847 57.81381 54.09555 57.81381 53.02313 56.7414 53.02313 55.41847 53.02313 54.09555 54.09555 53.02313 55.41847 53.02313 56.7414 53.02313 57.81381 54.09555 57.81381 55.41847ZM55.41847 55.41847"/>
<path transform="matrix(1.00009,0,0,-1.00002,54.45407,67.828258)" d="M-9.65211 55.41847C-9.65211 56.7414-10.72453 57.81381-12.04745 57.81381-13.37038 57.81381-14.4428 56.7414-14.4428 55.41847-14.4428 54.09555-13.37038 53.02313-12.04745 53.02313-10.72453 53.02313-9.65211 54.09555-9.65211 55.41847ZM-12.04745 55.41847"/>
<path transform="matrix(1.00009,0,0,-1.00002,54.45407,67.828258)" stroke-width=".3985" stroke-linecap="butt" stroke-miterlimit="10" stroke-linejoin="miter" fill="none" stroke="#000000" d="M-31.13753-33.73206H31.13753"/>
<path transform="matrix(1.00009,0,0,-1.00002,54.45407,67.828258)" stroke-width=".3985" stroke-linecap="butt" stroke-miterlimit="10" stroke-linejoin="miter" fill="none" stroke="#000000" d="M33.73203-31.13757V31.13757"/>
<path transform="matrix(1.00009,0,0,-1.00002,54.45407,67.828258)" stroke-width=".3985" stroke-linecap="butt" stroke-miterlimit="10" stroke-linejoin="miter" fill="none" stroke="#000000" d="M31.13753 33.73206H-31.13753"/>
<path transform="matrix(1.00009,0,0,-1.00002,54.45407,67.828258)" stroke-width=".3985" stroke-linecap="butt" stroke-miterlimit="10" stroke-linejoin="miter" fill="none" stroke="#000000" d="M-33.73203 31.13757V-31.13757"/>
<path transform="matrix(1.00009,0,0,-1.00002,54.45407,67.828258)" stroke-width=".3985" stroke-linecap="butt" stroke-miterlimit="10" stroke-linejoin="miter" fill="none" stroke="#000000" d="M-9.45264-12.04718H52.82275"/>
<path transform="matrix(1.00009,0,0,-1.00002,54.45407,67.828258)" stroke-width=".3985" stroke-linecap="butt" stroke-miterlimit="10" stroke-linejoin="miter" fill="none" stroke="#000000" d="M55.41727-9.45268V52.8228"/>
<path transform="matrix(1.00009,0,0,-1.00002,54.45407,67.828258)" stroke-width=".3985" stroke-linecap="butt" stroke-miterlimit="10" stroke-linejoin="miter" fill="none" stroke="#000000" d="M52.8228 55.41727H-9.45268"/>
<path transform="matrix(1.00009,0,0,-1.00002,54.45407,67.828258)" stroke-width=".3985" stroke-linecap="butt" stroke-miterlimit="10" stroke-linejoin="miter" fill="none" stroke="#000000" d="M-12.04718 52.82275V-9.45264"/>
<path transform="matrix(1.00009,0,0,-1.00002,54.45407,67.828258)" stroke-width=".3985" stroke-linecap="butt" stroke-miterlimit="10" stroke-linejoin="miter" fill="none" stroke="#000000" d="M-31.89745-31.89745-13.8818-13.8818"/>
<path transform="matrix(1.00009,0,0,-1.00002,54.45407,67.828258)" stroke-width=".3985" stroke-linecap="butt" stroke-miterlimit="10" stroke-linejoin="miter" fill="none" stroke="#000000" d="M35.56654-31.8974 53.58263-13.88168"/>
<path transform="matrix(1.00009,0,0,-1.00002,54.45407,67.828258)" stroke-width=".3985" stroke-linecap="butt" stroke-miterlimit="10" stroke-linejoin="miter" fill="none" stroke="#000000" d="M35.56668 35.56668 53.58267 53.58267"/>
<path transform="matrix(1.00009,0,0,-1.00002,54.45407,67.828258)" stroke-width=".3985" stroke-linecap="butt" stroke-miterlimit="10" stroke-linejoin="miter" fill="none" stroke="#000000" d="M-31.8974 35.56654-13.88168 53.58263"/>
<use data-text="0" xlink:href="#font_1_1" transform="matrix(8.967207,0,0,-8.966579,1.9653473,112.26814)"/>
<use data-text="0" xlink:href="#font_1_1" transform="matrix(8.967207,0,0,-8.966579,6.5655214,112.26814)"/>
<use data-text="0" xlink:href="#font_1_1" transform="matrix(8.967207,0,0,-8.966579,11.165695,112.26814)"/>
<use data-text="1" xlink:href="#font_1_2" transform="matrix(8.967207,0,0,-8.966579,93.118549,112.26814)"/>
<use data-text="0" xlink:href="#font_1_1" transform="matrix(8.967207,0,0,-8.966579,97.71872,112.26814)"/>
<use data-text="0" xlink:href="#font_1_1" transform="matrix(8.967207,0,0,-8.966579,102.31889,112.26814)"/>
<use data-text="1" xlink:href="#font_1_2" transform="matrix(8.967207,0,0,-8.966579,93.7016,36.984636)"/>
<use data-text="1" xlink:href="#font_1_2" transform="matrix(8.967207,0,0,-8.966579,98.30177,36.984636)"/>
<use data-text="0" xlink:href="#font_1_1" transform="matrix(8.967207,0,0,-8.966579,102.90195,36.984636)"/>
<use data-text="0" xlink:href="#font_1_1" transform="matrix(8.967207,0,0,-8.966579,1.3812943,36.984636)"/>
<use data-text="1" xlink:href="#font_1_2" transform="matrix(8.967207,0,0,-8.966579,5.981468,36.984636)"/>
<use data-text="0" xlink:href="#font_1_1" transform="matrix(8.967207,0,0,-8.966579,10.581642,36.984636)"/>
<use data-text="0" xlink:href="#font_1_1" transform="matrix(8.967207,0,0,-8.966579,35.493364,91.16672)"/>
<use data-text="0" xlink:href="#font_1_1" transform="matrix(8.967207,0,0,-8.966579,40.093538,91.16672)"/>
<use data-text="1" xlink:href="#font_1_2" transform="matrix(8.967207,0,0,-8.966579,44.69371,91.16672)"/>
<use data-text="1" xlink:href="#font_1_2" transform="matrix(8.967207,0,0,-8.966579,115.38956,82.76456)"/>
<use data-text="0" xlink:href="#font_1_1" transform="matrix(8.967207,0,0,-8.966579,119.98973,82.76456)"/>
<use data-text="1" xlink:href="#font_1_2" transform="matrix(8.967207,0,0,-8.966579,124.589908,82.76456)"/>
<use data-text="1" xlink:href="#font_1_2" transform="matrix(8.967207,0,0,-8.966579,114.805507,7.481045)"/>
<use data-text="1" xlink:href="#font_1_2" transform="matrix(8.967207,0,0,-8.966579,119.40568,7.481045)"/>
<use data-text="1" xlink:href="#font_1_2" transform="matrix(8.967207,0,0,-8.966579,124.00585,7.481045)"/>
<use data-text="0" xlink:href="#font_1_1" transform="matrix(8.967207,0,0,-8.966579,35.493364,6.8970339)"/>
<use data-text="1" xlink:href="#font_1_2" transform="matrix(8.967207,0,0,-8.966579,40.093538,6.8970339)"/>
<use data-text="1" xlink:href="#font_1_2" transform="matrix(8.967207,0,0,-8.966579,44.69371,6.8970339)"/>
</svg>
