<svg xmlns="http://www.w3.org/2000/svg" xmlns:xlink="http://www.w3.org/1999/xlink" xmlns:inkscape="http://www.inkscape.org/namespaces/inkscape" version="1.1" width="91" height="80" viewBox="0 0 91 80">
<path transform="matrix(1,0,0,-1.00005,45.188,52.38617)" d="M2.39534 48.18947C2.39534 49.51239 1.32292 50.58482 0 50.58482-1.32292 50.58482-2.39534 49.51239-2.39534 48.18947-2.39534 46.86655-1.32292 45.79413 0 45.79413 1.32292 45.79413 2.39534 46.86655 2.39534 48.18947ZM0 48.18947"/>
<path transform="matrix(1,0,0,-1.00005,45.188,52.38617)" d="M-39.33676-24.09494C-39.33676-22.77202-40.4092-21.6996-41.73212-21.6996-43.05504-21.6996-44.12746-22.77202-44.12746-24.09494-44.12746-25.41786-43.05504-26.4903-41.73212-26.4903-40.4092-26.4903-39.33676-25.41786-39.33676-24.09494ZM-41.73212-24.09494"/>
<path transform="matrix(1,0,0,-1.00005,45.188,52.38617)" d="M44.12746-24.09494C44.12746-22.77202 43.05504-21.6996 41.73212-21.6996 40.4092-21.6996 39.33676-22.77202 39.33676-24.09494 39.33676-25.41786 40.4092-26.4903 41.73212-26.4903 43.05504-26.4903 44.12746-25.41786 44.12746-24.09494ZM41.73212-24.09494"/>
<path transform="matrix(1,0,0,-1.00005,45.188,52.38617)" d="M2.39534 24.09494C2.39534 25.41786 1.32292 26.4903 0 26.4903-1.32292 26.4903-2.39534 25.41786-2.39534 24.09494-2.39534 22.77202-1.32292 21.6996 0 21.6996 1.32292 21.6996 2.39534 22.77202 2.39534 24.09494ZM0 24.09494"/>
<path transform="matrix(1,0,0,-1.00005,45.188,52.38617)" d="M-18.4707-12.04747C-18.4707-10.72455-19.54312-9.65213-20.86604-9.65213-22.18896-9.65213-23.2614-10.72455-23.2614-12.04747-23.2614-13.37039-22.18896-14.44281-20.86604-14.44281-19.54312-14.44281-18.4707-13.37039-18.4707-12.04747ZM-20.86604-12.04747"/>
<path transform="matrix(1,0,0,-1.00005,45.188,52.38617)" d="M23.2614-12.04747C23.2614-10.72455 22.18896-9.65213 20.86604-9.65213 19.54312-9.65213 18.4707-10.72455 18.4707-12.04747 18.4707-13.37039 19.54312-14.44281 20.86604-14.44281 22.18896-14.44281 23.2614-13.37039 23.2614-12.04747ZM20.86604-12.04747"/>
<path transform="matrix(1,0,0,-1.00005,45.188,52.38617)" stroke-width=".3985" stroke-linecap="butt" stroke-miterlimit="10" stroke-linejoin="miter" fill="none" stroke="#000000" d="M-1.29724 45.94254-40.43488-21.848"/>
<path transform="matrix(1,0,0,-1.00005,45.188,52.38617)" stroke-width=".3985" stroke-linecap="butt" stroke-miterlimit="10" stroke-linejoin="miter" fill="none" stroke="#000000" d="M-39.13751-24.09494H39.13751"/>
<path transform="matrix(1,0,0,-1.00005,45.188,52.38617)" stroke-width=".3985" stroke-linecap="butt" stroke-miterlimit="10" stroke-linejoin="miter" fill="none" stroke="#000000" d="M40.43488-21.848 1.29724 45.94254"/>
<path transform="matrix(1,0,0,-1.00005,45.188,52.38617)" stroke-width=".3985" stroke-linecap="butt" stroke-miterlimit="10" stroke-linejoin="miter" fill="none" stroke="#000000" d="M-1.29724 21.848-19.5688-9.80052"/>
<path transform="matrix(1,0,0,-1.00005,45.188,52.38617)" stroke-width=".3985" stroke-linecap="butt" stroke-miterlimit="10" stroke-linejoin="miter" fill="none" stroke="#000000" d="M-18.27145-12.04747H18.27145"/>
<path transform="matrix(1,0,0,-1.00005,45.188,52.38617)" stroke-width=".3985" stroke-linecap="butt" stroke-miterlimit="10" stroke-linejoin="miter" fill="none" stroke="#000000" d="M19.5688-9.80052 1.29724 21.848"/>
<path transform="matrix(1,0,0,-1.00005,45.188,52.38617)" stroke-width=".3985" stroke-linecap="butt" stroke-miterlimit="10" stroke-linejoin="miter" fill="none" stroke="#000000" d="M0 45.59488V26.68954"/>
<path transform="matrix(1,0,0,-1.00005,45.188,52.38617)" stroke-width=".3985" stroke-linecap="butt" stroke-miterlimit="10" stroke-linejoin="miter" fill="none" stroke="#000000" d="M-39.48517-22.79765-23.11299-13.34476"/>
<path transform="matrix(1,0,0,-1.00005,45.188,52.38617)" stroke-width=".3985" stroke-linecap="butt" stroke-miterlimit="10" stroke-linejoin="miter" fill="none" stroke="#000000" d="M39.48517-22.79765 23.11299-13.34476"/>
</svg>
