<svg xmlns="http://www.w3.org/2000/svg" xmlns:xlink="http://www.w3.org/1999/xlink" xmlns:inkscape="http://www.inkscape.org/namespaces/inkscape" version="1.1" width="81" height="76" viewBox="0 0 81 76">
<path transform="matrix(1.00008,0,0,-1.00002,40.310026,38.211587)" d="M-34.45558 34.01608C-34.45558 35.339-35.528 36.41142-36.85092 36.41142-38.17384 36.41142-39.24628 35.339-39.24628 34.01608-39.24628 32.69316-38.17384 31.62073-36.85092 31.62073-35.528 31.62073-34.45558 32.69316-34.45558 34.01608ZM-36.85092 34.01608"/>
<path transform="matrix(1.00008,0,0,-1.00002,40.310026,38.211587)" d="M-34.45558 0C-34.45558 1.32292-35.528 2.39534-36.85092 2.39534-38.17384 2.39534-39.24628 1.32292-39.24628 0-39.24628-1.32292-38.17384-2.39534-36.85092-2.39534-35.528-2.39534-34.45558-1.32292-34.45558 0ZM-36.85092 0"/>
<path transform="matrix(1.00008,0,0,-1.00002,40.310026,38.211587)" d="M-34.45558-34.01608C-34.45558-32.69316-35.528-31.62073-36.85092-31.62073-38.17384-31.62073-39.24628-32.69316-39.24628-34.01608-39.24628-35.339-38.17384-36.41142-36.85092-36.41142-35.528-36.41142-34.45558-35.339-34.45558-34.01608ZM-36.85092-34.01608"/>
<path transform="matrix(1.00008,0,0,-1.00002,40.310026,38.211587)" d="M39.24628 34.01608C39.24628 35.339 38.17384 36.41142 36.85092 36.41142 35.528 36.41142 34.45558 35.339 34.45558 34.01608 34.45558 32.69316 35.528 31.62073 36.85092 31.62073 38.17384 31.62073 39.24628 32.69316 39.24628 34.01608ZM36.85092 34.01608"/>
<path transform="matrix(1.00008,0,0,-1.00002,40.310026,38.211587)" d="M39.24628 0C39.24628 1.32292 38.17384 2.39534 36.85092 2.39534 35.528 2.39534 34.45558 1.32292 34.45558 0 34.45558-1.32292 35.528-2.39534 36.85092-2.39534 38.17384-2.39534 39.24628-1.32292 39.24628 0ZM36.85092 0"/>
<path transform="matrix(1.00008,0,0,-1.00002,40.310026,38.211587)" d="M39.24628-34.01608C39.24628-32.69316 38.17384-31.62073 36.85092-31.62073 35.528-31.62073 34.45558-32.69316 34.45558-34.01608 34.45558-35.339 35.528-36.41142 36.85092-36.41142 38.17384-36.41142 39.24628-35.339 39.24628-34.01608ZM36.85092-34.01608"/>
<path transform="matrix(1.00008,0,0,-1.00002,40.310026,38.211587)" stroke-width="1.19553" stroke-linecap="butt" stroke-miterlimit="10" stroke-linejoin="miter" fill="none" stroke="#000000" d="M-34.25633 34.01608H34.25633"/>
<path transform="matrix(1.00008,0,0,-1.00002,40.310026,38.211587)" stroke-width=".3985" stroke-linecap="butt" stroke-miterlimit="10" stroke-linejoin="miter" fill="none" stroke="#000000" d="M-34.49522 32.92885 34.49522 1.08722"/>
<path transform="matrix(1.00008,0,0,-1.00002,40.310026,38.211587)" stroke-width="1.19553" stroke-linecap="butt" stroke-miterlimit="10" stroke-linejoin="miter" fill="none" stroke="#000000" d="M-34.25633 0H34.25633"/>
<path transform="matrix(1.00008,0,0,-1.00002,40.310026,38.211587)" stroke-width=".3985" stroke-linecap="butt" stroke-miterlimit="10" stroke-linejoin="miter" fill="none" stroke="#000000" d="M-34.49522-32.92885 34.49522-1.08722"/>
<path transform="matrix(1.00008,0,0,-1.00002,40.310026,38.211587)" stroke-width="1.19553" stroke-linecap="butt" stroke-miterlimit="10" stroke-linejoin="miter" fill="none" stroke="#000000" d="M-34.25633-34.01608H34.25633"/>
</svg>
