<svg xmlns="http://www.w3.org/2000/svg" xmlns:xlink="http://www.w3.org/1999/xlink" xmlns:inkscape="http://www.inkscape.org/namespaces/inkscape" version="1.1" width="225" height="83" viewBox="0 0 225 83">
<defs>
<path id="font_1_1" d="M.33499146 .63612368C.33499146 .6630554 .33299256 .6640625 .30499269 .6640625 .24099732 .6014404 .1499939 .6004486 .10899353 .6004486V.5644531C.1329956 .5644531 .19898987 .5644531 .2539978 .592453V.08203125C.2539978 .04899597 .2539978 .035995485 .1539917 .035995485H.115997318V0C.13398743 .0009918213 .25698854 .0039978029 .2939911 .0039978029 .32499696 .0039978029 .45098878 .0009918213 .47299195 0V.035995485H.43499757C.33499146 .035995485 .33499146 .04899597 .33499146 .08203125V.63612368Z"/>
<path id="font_1_2" d="M.5049896 .18203736H.47099305C.46798707 .16001892 .45799256 .100997928 .44499208 .09098816 .43699647 .084991458 .3600006 .084991458 .34599305 .084991458H.1619873C.2669983 .17803955 .3019867 .20603943 .3619995 .25306703 .43598939 .312088 .5049896 .374115 .5049896 .46914674 .5049896 .5900879 .39898683 .6640625 .2709961 .6640625 .14698792 .6640625 .06298828 .57710269 .06298828 .4851532 .06298828 .43414308 .10598755 .42915345 .115997318 .42915345 .13999939 .42915345 .16899109 .44615174 .16899109 .48214723 .16899109 .5001526 .1619873 .53515627 .10998535 .53515627 .14099121 .6060791 .20899964 .62805178 .2559967 .62805178 .35598756 .62805178 .4079895 .5501404 .4079895 .46914674 .4079895 .38212586 .34599305 .3130951 .31399537 .27708436L.07299805 .038986207C.06298828 .02999878 .06298828 .027999878 .06298828 0H.47499085L.5049896 .18203736Z"/>
<path id="font_1_3" d="M.272995 .33428956C.35099793 .33428956 .40699769 .2803192 .40699769 .1733551 .40699769 .04940796 .33499146 .012466431 .2769928 .012466431 .23699951 .012466431 .14898682 .0234375 .10699463 .082351688 .1539917 .084350589 .16499329 .11735535 .16499329 .13835144 .16499329 .17034912 .14099121 .19335938 .10998535 .19335938 .08198547 .19335938 .053985597 .17634583 .053985597 .13534546 .053985597 .041412355 .1579895-.01953125 .2789917-.01953125 .41799928-.01953125 .5139923 .07336426 .5139923 .1733551 .5139923 .2513275 .44999696 .32929994 .33999635 .35229493 .44499208 .39024354 .48298646 .4650879 .48298646 .5260773 .48298646 .60505679 .3919983 .6640625 .2809906 .6640625 .16999817 .6640625 .084991458 .61006167 .084991458 .5300751 .084991458 .49606324 .10699463 .47706605 .13699341 .47706605 .16799927 .47706605 .18798828 .5000763 .18798828 .5280762 .18798828 .5570679 .16799927 .57806399 .13699341 .5800781 .17199707 .62405398 .24099732 .63505557 .27799989 .63505557 .32299806 .63505557 .38598634 .6130676 .38598634 .5260773 .38598634 .48406983 .37199403 .43814088 .34599305 .4072113 .31298829 .36927796 .2849884 .3672943 .23498535 .36428834 .20999146 .3623047 .20799256 .3623047 .20298767 .3612976 .20098877 .3612976 .19299317 .3592987 .19299317 .34829713 .19299317 .33428956 .20199585 .33428956 .21899414 .33428956H.272995Z"/>
<path id="font_1_4" d="M.5289917 .1640625V.20005799H.41799928V.64582827C.41799928 .66682437 .41799928 .6738281 .3959961 .6738281 .38398744 .6738281 .37998963 .6738281 .36999513 .65982058L.038986207 .20005799V.1640625H.33299256V.08201599C.33299256 .04800415 .33299256 .035995485 .2519989 .035995485H.22499085V0C.2749939 .0019989014 .33898927 .0039978029 .375 .0039978029 .4119873 .0039978029 .47599793 .0019989014 .526001 0V.035995485H.49899293C.41799928 .035995485 .41799928 .04800415 .41799928 .08201599V.1640625H.5289917M.33999635 .5658722V.20005799H.07598877L.33999635 .5658722Z"/>
<path id="font_1_5" d="M.15499878 .5588074C.20599365 .5458069 .23599243 .5458069 .2519989 .5458069 .38398744 .5458069 .46199037 .6358032 .46199037 .6508026 .46199037 .6618042 .45498658 .6648102 .44999696 .6648102 .44799806 .6648102 .44599916 .6648102 .44198609 .6618042 .41799928 .6528015 .36499024 .6328125 .29100038 .6328125 .2630005 .6328125 .20999146 .6348114 .14498902 .6598053 .1349945 .6648102 .1329956 .6648102 .13198853 .6648102 .11898804 .6648102 .11898804 .6538086 .11898804 .6378021V.34251405C.11898804 .32548524 .11898804 .3134613 .1349945 .3134613 .14399719 .3134613 .14498902 .3154602 .15499878 .32748414 .19799805 .38259889 .25898744 .390625 .2939911 .390625 .35398866 .390625 .3809967 .34251405 .38598634 .33450318 .4039917 .30143739 .4099884 .26335145 .4099884 .20524597 .4099884 .17524719 .4099884 .116256717 .37998963 .07234192 .35499574 .03640747 .31199647 .012466431 .2630005 .012466431 .19799805 .012466431 .1309967 .04838562 .10598755 .11425781 .14399719 .11125183 .16299439 .13624573 .16299439 .16325379 .16299439 .20625305 .12599182 .21424866 .11299133 .21424866 .11099243 .21424866 .06298828 .21424866 .06298828 .1602478 .06298828 .07034302 .14498902-.01953125 .2649994-.01953125 .3929901-.01953125 .5049896 .07533264 .5049896 .20124817 .5049896 .31445313 .4189911 .41862489 .29499818 .41862489 .25099183 .41862489 .19898987 .4076233 .15499878 .36956788V.5588074Z"/>
<path id="font_2_1" d="M.7220001 .33418275C.7220001 .3561859 .71598818 .36618043 .70799258 .36618043 .7029877 .36618043 .69499209 .35917665 .69400027 .34017945 .6899872 .24397278 .6239929 .18881226 .55400088 .18881226 .4909973 .18881226 .44299317 .2319336 .3939972 .2750702 .34298707 .32118226 .29100038 .3671875 .22299195 .3671875 .11399841 .3671875 .054992677 .25701905 .054992677 .165802 .054992677 .13380432 .067993167 .13380432 .068984989 .13380432 .07998657 .13380432 .08299255 .1538086 .08299255 .15679932 .08699036 .26704408 .1619873 .3111725 .22299195 .3111725 .28599549 .3111725 .33399964 .26805116 .3829956 .22491455 .43399049 .17880249 .48599244 .1328125 .55400088 .1328125 .6629944 .1328125 .7220001 .2429657 .7220001 .33418275Z"/>
<path id="font_3_1" d="M.68699648 .32714845C.70199587 .32714845 .72099307 .32714845 .72099307 .34713746 .72099307 .36714173 .70199587 .36714173 .6879883 .36714173H.08898926C.07499695 .36714173 .055999757 .36714173 .055999757 .34713746 .055999757 .32714845 .07499695 .32714845 .08999634 .32714845H.68699648M.6879883 .13284302C.70199587 .13284302 .72099307 .13284302 .72099307 .15284729 .72099307 .17285156 .70199587 .17285156 .68699648 .17285156H.08999634C.07499695 .17285156 .055999757 .17285156 .055999757 .15284729 .055999757 .13284302 .07499695 .13284302 .08898926 .13284302H.6879883Z"/>
</defs>
<path transform="matrix(1.00005,0,0,-1.00008,38.41757,49.442476)" d="M2.2545 36.85092C2.2545 38.09607 1.24515 39.10544 0 39.10544-1.24515 39.10544-2.2545 38.09607-2.2545 36.85092-2.2545 35.60577-1.24515 34.5964 0 34.5964 1.24515 34.5964 2.2545 35.60577 2.2545 36.85092ZM0 36.85092"/>
<use data-text="1" xlink:href="#font_1_1" transform="matrix(6.9741489,0,0,-6.974358,36.43147,6.614048)"/>
<path transform="matrix(1.00005,0,0,-1.00008,38.41757,49.442476)" d="M-32.7936 11.38698C-32.7936 12.63213-33.80296 13.6415-35.04811 13.6415-36.29326 13.6415-37.30263 12.63213-37.30263 11.38698-37.30263 10.14183-36.29326 9.13246-35.04811 9.13246-33.80296 9.13246-32.7936 10.14183-32.7936 11.38698ZM-35.04811 11.38698"/>
<use data-text="2" xlink:href="#font_1_2" transform="matrix(6.9741489,0,0,-6.974358,1.3817177,32.080087)"/>
<path transform="matrix(1.00005,0,0,-1.00008,38.41757,49.442476)" d="M-19.40524-29.81223C-19.40524-28.56708-20.41461-27.55771-21.65976-27.55771-22.9049-27.55771-23.91428-28.56708-23.91428-29.81223-23.91428-31.05737-22.9049-32.06674-21.65976-32.06674-20.41461-32.06674-19.40524-31.05737-19.40524-29.81223ZM-21.65976-29.81223"/>
<use data-text="3" xlink:href="#font_1_3" transform="matrix(6.9741489,0,0,-6.974358,14.771389,73.28339)"/>
<path transform="matrix(1.00005,0,0,-1.00008,38.41757,49.442476)" d="M23.91428-29.81223C23.91428-28.56708 22.9049-27.55771 21.65976-27.55771 20.41461-27.55771 19.40524-28.56708 19.40524-29.81223 19.40524-31.05737 20.41461-32.06674 21.65976-32.06674 22.9049-32.06674 23.91428-31.05737 23.91428-29.81223ZM21.65976-29.81223"/>
<use data-text="4" xlink:href="#font_1_4" transform="matrix(6.9741489,0,0,-6.974358,58.092554,73.28339)"/>
<path transform="matrix(1.00005,0,0,-1.00008,38.41757,49.442476)" d="M37.30263 11.38698C37.30263 12.63213 36.29326 13.6415 35.04811 13.6415 33.80296 13.6415 32.7936 12.63213 32.7936 11.38698 32.7936 10.14183 33.80296 9.13246 35.04811 9.13246 36.29326 9.13246 37.30263 10.14183 37.30263 11.38698ZM35.04811 11.38698"/>
<use data-text="5" xlink:href="#font_1_5" transform="matrix(6.9741489,0,0,-6.974358,71.48122,32.080087)"/>
<path transform="matrix(1.00005,0,0,-1.00008,38.41757,49.442476)" stroke-width=".3985" stroke-linecap="butt" stroke-miterlimit="10" stroke-linejoin="miter" fill="none" stroke="#000000" d="M-1.98509 35.40865-33.063 12.82924"/>
<path transform="matrix(1.00005,0,0,-1.00008,38.41757,49.442476)" stroke-width=".3985" stroke-linecap="butt" stroke-miterlimit="10" stroke-linejoin="miter" fill="none" stroke="#000000" d="M-34.28978 9.05336-22.41809-27.47862"/>
<path transform="matrix(1.00005,0,0,-1.00008,38.41757,49.442476)" stroke-width=".3985" stroke-linecap="butt" stroke-miterlimit="10" stroke-linejoin="miter" fill="none" stroke="#000000" d="M-19.206-29.81223H19.206"/>
<path transform="matrix(1.00005,0,0,-1.00008,38.41757,49.442476)" stroke-width=".3985" stroke-linecap="butt" stroke-miterlimit="10" stroke-linejoin="miter" fill="none" stroke="#000000" d="M22.41809-27.47862 34.28978 9.05336"/>
<path transform="matrix(1.00005,0,0,-1.00008,38.41757,49.442476)" stroke-width=".3985" stroke-linecap="butt" stroke-miterlimit="10" stroke-linejoin="miter" fill="none" stroke="#000000" d="M33.063 12.82924 1.98509 35.40865"/>
<path transform="matrix(1.00005,0,0,-1.00008,38.41757,49.442476)" d="M149.65784 36.85092C149.65784 38.09607 148.64847 39.10544 147.40332 39.10544 146.15818 39.10544 145.1488 38.09607 145.1488 36.85092 145.1488 35.60577 146.15818 34.5964 147.40332 34.5964 148.64847 34.5964 149.65784 35.60577 149.65784 36.85092ZM147.40332 36.85092"/>
<use data-text="1" xlink:href="#font_1_1" transform="matrix(6.9741489,0,0,-6.974358,183.84284,6.614048)"/>
<path transform="matrix(1.00005,0,0,-1.00008,38.41757,49.442476)" d="M127.99805-29.81223C127.99805-28.56708 126.98868-27.55771 125.74353-27.55771 124.49838-27.55771 123.48903-28.56708 123.48903-29.81223 123.48903-31.05737 124.49838-32.06674 125.74353-32.06674 126.98868-32.06674 127.99805-31.05737 127.99805-29.81223ZM125.74353-29.81223"/>
<use data-text="2" xlink:href="#font_1_2" transform="matrix(6.9741489,0,0,-6.974358,162.18175,73.28339)"/>
<path transform="matrix(1.00005,0,0,-1.00008,38.41757,49.442476)" d="M184.70595 11.38698C184.70595 12.63213 183.69658 13.6415 182.45143 13.6415 181.20629 13.6415 180.19692 12.63213 180.19692 11.38698 180.19692 10.14183 181.20629 9.13246 182.45143 9.13246 183.69658 9.13246 184.70595 10.14183 184.70595 11.38698ZM182.45143 11.38698"/>
<use data-text="3" xlink:href="#font_1_3" transform="matrix(6.9741489,0,0,-6.974358,218.8926,32.080087)"/>
<path transform="matrix(1.00005,0,0,-1.00008,38.41757,49.442476)" d="M114.6097 11.38698C114.6097 12.63213 113.60033 13.6415 112.35518 13.6415 111.11003 13.6415 110.10068 12.63213 110.10068 11.38698 110.10068 10.14183 111.11003 9.13246 112.35518 9.13246 113.60033 9.13246 114.6097 10.14183 114.6097 11.38698ZM112.35518 11.38698"/>
<use data-text="4" xlink:href="#font_1_4" transform="matrix(6.9741489,0,0,-6.974358,148.79309,32.080087)"/>
<path transform="matrix(1.00005,0,0,-1.00008,38.41757,49.442476)" d="M171.3176-29.81223C171.3176-28.56708 170.30823-27.55771 169.06308-27.55771 167.81793-27.55771 166.80857-28.56708 166.80857-29.81223 166.80857-31.05737 167.81793-32.06674 169.06308-32.06674 170.30823-32.06674 171.3176-31.05737 171.3176-29.81223ZM169.06308-29.81223"/>
<use data-text="5" xlink:href="#font_1_5" transform="matrix(6.9741489,0,0,-6.974358,205.50292,73.28339)"/>
<path transform="matrix(1.00005,0,0,-1.00008,38.41757,49.442476)" stroke-width=".3985" stroke-linecap="butt" stroke-miterlimit="10" stroke-linejoin="miter" fill="none" stroke="#000000" d="M146.6451 34.51729 126.50172-27.47855"/>
<path transform="matrix(1.00005,0,0,-1.00008,38.41757,49.442476)" stroke-width=".3985" stroke-linecap="butt" stroke-miterlimit="10" stroke-linejoin="miter" fill="none" stroke="#000000" d="M127.72864-28.36998 180.46633 9.94473"/>
<path transform="matrix(1.00005,0,0,-1.00008,38.41757,49.442476)" stroke-width=".3985" stroke-linecap="butt" stroke-miterlimit="10" stroke-linejoin="miter" fill="none" stroke="#000000" d="M179.99767 11.38698H114.80894"/>
<path transform="matrix(1.00005,0,0,-1.00008,38.41757,49.442476)" stroke-width=".3985" stroke-linecap="butt" stroke-miterlimit="10" stroke-linejoin="miter" fill="none" stroke="#000000" d="M114.34029 9.94473 167.07798-28.36998"/>
<path transform="matrix(1.00005,0,0,-1.00008,38.41757,49.442476)" stroke-width=".3985" stroke-linecap="butt" stroke-miterlimit="10" stroke-linejoin="miter" fill="none" stroke="#000000" d="M168.30487-27.47859 148.1615 34.51724"/>
<use data-text="&#x223c;" xlink:href="#font_2_1" transform="matrix(9.963098,0,0,-9.963397,108.24806,49.691495)"/>
<use data-text="=" xlink:href="#font_3_1" transform="matrix(9.963098,0,0,-9.963397,108.24806,52.848749)"/>
</svg>
