<svg xmlns="http://www.w3.org/2000/svg" xmlns:xlink="http://www.w3.org/1999/xlink" xmlns:inkscape="http://www.inkscape.org/namespaces/inkscape" version="1.1" width="184" height="98" viewBox="0 0 184 98">
<defs>
<path id="font_1_2" d="M.2939911 .64004519C.2939911 .66400149 .2939911 .6660156 .2709961 .6660156 .20899964 .60227969 .12098694 .60227969 .08898926 .60227969V.57128909C.10899353 .57128909 .16799927 .57128909 .21998596 .5972748V.07902527C.21998596 .042999269 .21699524 .0309906 .1269989 .0309906H.09498596V0C.12998963 .0029907227 .21699524 .0029907227 .25698854 .0029907227 .29699708 .0029907227 .38398744 .0029907227 .4189911 0V.0309906H.3869934C.29699708 .0309906 .2939911 .041992189 .2939911 .07902527V.64004519Z"/>
<path id="font_1_3" d="M.1269989 .07699585 .23298645 .18003845C.3889923 .31811524 .44898988 .3721466 .44898988 .47216798 .44898988 .5860901 .35899354 .6660156 .23699951 .6660156 .12399292 .6660156 .049987794 .57411196 .049987794 .48516847 .049987794 .4291687 .099990848 .4291687 .102996829 .4291687 .11999512 .4291687 .15499878 .44117738 .15499878 .48217774 .15499878 .5081787 .13699341 .5341797 .101989749 .5341797 .09399414 .5341797 .09199524 .5341797 .08898926 .5331726 .11199951 .59806826 .1659851 .63500979 .22399903 .63500979 .31498719 .63500979 .35798646 .5541382 .35798646 .47216798 .35798646 .39215089 .30799867 .31311036 .25299073 .25108338L.06098938 .036987306C.049987794 .025985718 .049987794 .023986817 .049987794 0H.42099L.44898988 .17404175H.42399598C.4189911 .14402771 .4119873 .1000061 .4019928 .084991458 .394989 .07699585 .32899476 .07699585 .30699159 .07699585H.1269989Z"/>
<path id="font_1_4" d="M.2899933 .35191346C.37199403 .37893678 .42999269 .4490509 .42999269 .52809146 .42999269 .6100464 .34199525 .6660156 .24598694 .6660156 .14498902 .6660156 .068984989 .60606387 .068984989 .53009036 .068984989 .49710084 .09098816 .47808839 .11999512 .47808839 .15098572 .47808839 .17098999 .50009158 .17098999 .5290985 .17098999 .57910159 .12399292 .57910159 .10899353 .57910159 .13999939 .62802127 .20599365 .64100649 .24198914 .64100649 .2829895 .64100649 .33799745 .6190338 .33799745 .5290985 .33799745 .51708987 .33599855 .45906068 .30999757 .4149933 .27999879 .36691285 .24598694 .36390687 .22099304 .36291505 .21299744 .36190797 .18899536 .35990907 .18199158 .35990907 .17399597 .35890199 .16699219 .35791017 .16699219 .3479004 .16699219 .33691407 .17399597 .33691407 .19099427 .33691407H.23498535C.31698609 .33691407 .35398866 .2686615 .35398866 .17037964 .35398866 .034469606 .2849884 .0055389406 .24099732 .0055389406 .19799805 .0055389406 .12298584 .022491456 .08799744 .08137512 .12298584 .07637024 .1539917 .09837341 .1539917 .1363678 .1539917 .17237854 .1269989 .19238281 .09799194 .19238281 .07398987 .19238281 .041992189 .17837525 .041992189 .1343689 .041992189 .043441774 .1349945-.022460938 .24398804-.022460938 .3659973-.022460938 .45700074 .06838989 .45700074 .17037964 .45700074 .252594 .3939972 .33088685 .2899933 .35191346Z"/>
<path id="font_1_5" d="M.2939911 .16503906V.07800293C.2939911 .041992189 .2919922 .0309906 .21798706 .0309906H.19699097V0C.23799134 .0029907227 .2899933 .0029907227 .33198548 .0029907227 .37399293 .0029907227 .4269867 .0029907227 .46798707 0V.0309906H.44699098C.37298585 .0309906 .37098695 .041992189 .37098695 .07800293V.16503906H.47099305V.19602967H.37098695V.65075686C.37098695 .67074587 .37098695 .6767578 .35499574 .6767578 .34599305 .6767578 .34298707 .6767578 .33499146 .66474917L.027999878 .19602967V.16503906H.2939911M.2999878 .19602967H.055999757L.2999878 .5688019V.19602967Z"/>
<path id="font_2_1" d="M.37399293-1.7700348C.3959961-1.7700348 .4019928-1.7700348 .4019928-1.7560272 .4039917-1.0549927 .4850006-.47297669 .83499148 .016052247 .84199526 .025054932 .84199526 .027053833 .84199526 .029052735 .84199526 .0390625 .83499148 .0390625 .81900027 .0390625 .8029938 .0390625 .8009949 .0390625 .798996 .03704834 .79499819 .034057619 .66799929-.111953739 .5669861-.31295777 .43499757-.5769806 .35198976-.8799896 .31498719-1.2440033 .31199647-1.2750092 .29100038-1.483017 .29100038-1.7200317V-1.7590332C.2919922-1.7700348 .2979889-1.7700348 .31900025-1.7700348H.37399293Z"/>
<path id="font_2_5" d="M.4019928-.016540528C.4019928 .009460449 .40098573 .010467529 .37399293 .010467529H.31900025C.2919922 .010467529 .29100038 .009460449 .29100038-.016540528V-.5826111C.29100038-.60861209 .2919922-.60961917 .31900025-.60961917H.37399293C.40098573-.60961917 .4019928-.60861209 .4019928-.5826111V-.016540528Z"/>
<path id="font_2_3" d="M.31900025 .049804689C.2979889 .049804689 .2919922 .049804689 .29100038 .0388031V-.00021362305C.29100038-.6110687 .3999939-.9689789 .43099977-1.0699616 .49899293-1.2919006 .6100006-1.5258484 .7769928-1.7317963 .7919922-1.7498016 .79599-1.7547913 .7999878-1.7567902 .8019867-1.7577973 .8029938-1.7587891 .81900027-1.7587891 .83499148-1.7587891 .84199526-1.7587891 .84199526-1.7487946 .84199526-1.7467957 .84199526-1.7447968 .83599856-1.7357941 .5029907-1.2739105 .40299989-.71803286 .4019928 .03579712 .4019928 .049804689 .3959961 .049804689 .37399293 .049804689H.31900025Z"/>
<path id="font_1_1" d="M.45999146 .31976319C.45999146 .39982606 .45498658 .47988893 .41999818 .5539398 .37399293 .65000918 .2919922 .6660156 .25 .6660156 .18998719 .6660156 .116989139 .64001467 .07598877 .54693606 .04399109 .47789 .038986207 .39982606 .038986207 .31976319 .038986207 .24472046 .042999269 .15464783 .083999637 .07859802 .1269989-.0024719239 .19999695-.022460938 .24899292-.022460938 .30299378-.022460938 .3789978-.0014648438 .4229889 .09359741 .45498658 .16265869 .45999146 .2407074 .45999146 .31976319M.24899292-.00047302247C.20999146-.00047302247 .15098572 .024551392 .1329956 .12062073 .12199402 .18066406 .12199402 .2727356 .12199402 .3317871 .12199402 .39582826 .12199402 .46188355 .12998963 .5159149 .14898682 .63500979 .22399903 .64401248 .24899292 .64401248 .28199769 .64401248 .34799195 .6259918 .36698915 .52693179 .3769989 .47088624 .3769989 .39482118 .3769989 .3317871 .3769989 .25672914 .3769989 .18867493 .3659973 .12461853 .35099793 .029556275 .2939911-.00047302247 .24899292-.00047302247Z"/>
<path id="font_2_2" d="M.58299258-1.7200317C.58299258-1.1089935 .47399903-.7509918 .44299317-.64997866 .375-.42796327 .2639923-.19395447 .09700012 .012054443 .08198547 .030059815 .07798767 .03504944 .07398987 .03704834 .07199097 .03805542 .070999149 .0390625 .054992677 .0390625 .039993287 .0390625 .03199768 .0390625 .03199768 .029052735 .03199768 .027053833 .03199768 .025054932 .04499817 .0070495607 .3929901-.4789734 .47099305-1.0789948 .47200013-1.7560272 .47200013-1.7700348 .47799684-1.7700348 .5-1.7700348H.5549927C.57598879-1.7700348 .58200076-1.7700348 .58299258-1.7590332V-1.7200317Z"/>
<path id="font_2_6" d="M.58299258-.016540528C.58299258 .009460449 .58200076 .010467529 .5549927 .010467529H.5C.47299195 .010467529 .47200013 .009460449 .47200013-.016540528V-.5826111C.47200013-.60861209 .47299195-.60961917 .5-.60961917H.5549927C.58200076-.60961917 .58299258-.60861209 .58299258-.5826111V-.016540528Z"/>
<path id="font_2_4" d="M.58299258 .0388031C.58200076 .049804689 .57598879 .049804689 .5549927 .049804689H.5C.47799684 .049804689 .47200013 .049804689 .47200013 .03579712 .47200013-.06718445 .47099305-.30513 .44499208-.55407717 .3909912-1.0709534 .2579956-1.4288635 .038986207-1.7357941 .03199768-1.7447968 .03199768-1.7467957 .03199768-1.7487946 .03199768-1.7587891 .039993287-1.7587891 .054992677-1.7587891 .070999149-1.7587891 .07299805-1.7587891 .07499695-1.7567902 .07899475-1.7537994 .20599365-1.6078339 .30699159-1.4068756 .43899537-1.1429443 .5219879-.8400116 .5589905-.47608949 .56199648-.44509889 .58299258-.2371521 .58299258-.00021362305V.0388031Z"/>
</defs>
<path transform="matrix(1.00002,0,0,-1.00003,41.951124,49.23133)" d="M2.2545 35.71657C2.2545 36.96172 1.24515 37.97108 0 37.97108-1.24515 37.97108-2.2545 36.96172-2.2545 35.71657-2.2545 34.47142-1.24515 33.46205 0 33.46205 1.24515 33.46205 2.2545 34.47142 2.2545 35.71657ZM0 35.71657"/>
<use data-text="1" xlink:href="#font_1_2" transform="matrix(9.962799,0,0,-9.962899,39.46007,7.540081)"/>
<path transform="matrix(1.00002,0,0,-1.00003,41.951124,49.23133)" d="M-28.35974 0C-28.35974 1.24515-29.36911 2.2545-30.61426 2.2545-31.8594 2.2545-32.86877 1.24515-32.86877 0-32.86877-1.24515-31.8594-2.2545-30.61426-2.2545-29.36911-2.2545-28.35974-1.24515-28.35974 0ZM-30.61426 0"/>
<use data-text="2" xlink:href="#font_1_3" transform="matrix(9.962799,0,0,-9.962899,.38129045,52.44143)"/>
<path transform="matrix(1.00002,0,0,-1.00003,41.951124,49.23133)" d="M32.86877 0C32.86877 1.24515 31.8594 2.2545 30.61426 2.2545 29.36911 2.2545 28.35974 1.24515 28.35974 0 28.35974-1.24515 29.36911-2.2545 30.61426-2.2545 31.8594-2.2545 32.86877-1.24515 32.86877 0ZM30.61426 0"/>
<use data-text="3" xlink:href="#font_1_4" transform="matrix(9.962799,0,0,-9.962899,78.539859,52.44143)"/>
<path transform="matrix(1.00002,0,0,-1.00003,41.951124,49.23133)" d="M2.2545-35.71657C2.2545-34.47142 1.24515-33.46205 0-33.46205-1.24515-33.46205-2.2545-34.47142-2.2545-35.71657-2.2545-36.96172-1.24515-37.97108 0-37.97108 1.24515-37.97108 2.2545-36.96172 2.2545-35.71657ZM0-35.71657"/>
<use data-text="4" xlink:href="#font_1_5" transform="matrix(9.962799,0,0,-9.962899,39.46007,97.34277)"/>
<path transform="matrix(1.00002,0,0,-1.00003,41.951124,49.23133)" stroke-width=".3985" stroke-linecap="butt" stroke-miterlimit="10" stroke-linejoin="miter" fill="none" stroke="#000000" d="M-1.59677 33.8535-29.01733 1.8629"/>
<path transform="matrix(1.00002,0,0,-1.00003,41.951124,49.23133)" stroke-width=".3985" stroke-linecap="butt" stroke-miterlimit="10" stroke-linejoin="miter" fill="none" stroke="#000000" d="M1.59677 33.8535 29.01733 1.8629"/>
<path transform="matrix(1.00002,0,0,-1.00003,41.951124,49.23133)" stroke-width=".3985" stroke-linecap="butt" stroke-miterlimit="10" stroke-linejoin="miter" fill="none" stroke="#000000" d="M-28.16039 0H28.16039"/>
<path transform="matrix(1.00002,0,0,-1.00003,41.951124,49.23133)" stroke-width=".3985" stroke-linecap="butt" stroke-miterlimit="10" stroke-linejoin="miter" fill="none" stroke="#000000" d="M29.01733-1.8629 1.59677-33.8535"/>
<use data-text="&#xf8eb;" xlink:href="#font_2_1" transform="matrix(9.962799,0,0,-9.962899,118.02965,25.718625)"/>
<use data-text="&#xf8ec;" xlink:href="#font_2_5" transform="matrix(9.962799,0,0,-9.962899,118.02965,43.25415)"/>
<use data-text="&#xf8ec;" xlink:href="#font_2_5" transform="matrix(9.962799,0,0,-9.962899,118.02965,49.23133)"/>
<use data-text="&#xf8ed;" xlink:href="#font_2_3" transform="matrix(9.962799,0,0,-9.962899,118.02965,55.60852)"/>
<use data-text="0" xlink:href="#font_1_1" transform="matrix(9.962799,0,0,-9.962899,126.747829,33.689867)"/>
<use data-text="1" xlink:href="#font_1_2" transform="matrix(9.962799,0,0,-9.962899,141.68207,33.689867)"/>
<use data-text="1" xlink:href="#font_1_2" transform="matrix(9.962799,0,0,-9.962899,156.62625,33.689867)"/>
<use data-text="0" xlink:href="#font_1_1" transform="matrix(9.962799,0,0,-9.962899,171.57047,33.689867)"/>
<use data-text="1" xlink:href="#font_1_2" transform="matrix(9.962799,0,0,-9.962899,126.747829,45.645219)"/>
<use data-text="0" xlink:href="#font_1_1" transform="matrix(9.962799,0,0,-9.962899,141.68207,45.645219)"/>
<use data-text="1" xlink:href="#font_1_2" transform="matrix(9.962799,0,0,-9.962899,156.62625,45.645219)"/>
<use data-text="0" xlink:href="#font_1_1" transform="matrix(9.962799,0,0,-9.962899,171.57047,45.645219)"/>
<use data-text="1" xlink:href="#font_1_2" transform="matrix(9.962799,0,0,-9.962899,126.747829,57.600584)"/>
<use data-text="1" xlink:href="#font_1_2" transform="matrix(9.962799,0,0,-9.962899,141.68207,57.600584)"/>
<use data-text="0" xlink:href="#font_1_1" transform="matrix(9.962799,0,0,-9.962899,156.62625,57.600584)"/>
<use data-text="1" xlink:href="#font_1_2" transform="matrix(9.962799,0,0,-9.962899,171.57047,57.600584)"/>
<use data-text="0" xlink:href="#font_1_1" transform="matrix(9.962799,0,0,-9.962899,126.747829,69.55595)"/>
<use data-text="0" xlink:href="#font_1_1" transform="matrix(9.962799,0,0,-9.962899,141.68207,69.55595)"/>
<use data-text="1" xlink:href="#font_1_2" transform="matrix(9.962799,0,0,-9.962899,156.62625,69.55595)"/>
<use data-text="0" xlink:href="#font_1_1" transform="matrix(9.962799,0,0,-9.962899,171.57047,69.55595)"/>
<use data-text="&#xf8f6;" xlink:href="#font_2_2" transform="matrix(9.962799,0,0,-9.962899,176.56183,25.718628)"/>
<use data-text="&#xf8f7;" xlink:href="#font_2_6" transform="matrix(9.962799,0,0,-9.962899,176.56183,43.254156)"/>
<use data-text="&#xf8f7;" xlink:href="#font_2_6" transform="matrix(9.962799,0,0,-9.962899,176.56183,49.231336)"/>
<use data-text="&#xf8f8;" xlink:href="#font_2_4" transform="matrix(9.962799,0,0,-9.962899,176.56183,55.608526)"/>
</svg>
