<svg xmlns="http://www.w3.org/2000/svg" xmlns:xlink="http://www.w3.org/1999/xlink" xmlns:inkscape="http://www.inkscape.org/namespaces/inkscape" version="1.1" width="92" height="82" viewBox="0 0 92 82">
<path transform="matrix(1.00005,0,0,-1.00005,45.978799,49.551027)" d="M2.39534 45.35506C2.39534 46.67798 1.32292 47.7504 0 47.7504-1.32292 47.7504-2.39534 46.67798-2.39534 45.35506-2.39534 44.03214-1.32292 42.9597 0 42.9597 1.32292 42.9597 2.39534 44.03214 2.39534 45.35506ZM0 45.35506"/>
<path transform="matrix(1.00005,0,0,-1.00005,45.978799,49.551027)" d="M-40.12485-28.3468C-40.12485-27.02388-41.19728-25.95146-42.5202-25.95146-43.84312-25.95146-44.91554-27.02388-44.91554-28.3468-44.91554-29.66972-43.84312-30.74214-42.5202-30.74214-41.19728-30.74214-40.12485-29.66972-40.12485-28.3468ZM-42.5202-28.3468"/>
<path transform="matrix(1.00005,0,0,-1.00005,45.978799,49.551027)" d="M44.91554-28.3468C44.91554-27.02388 43.84312-25.95146 42.5202-25.95146 41.19728-25.95146 40.12485-27.02388 40.12485-28.3468 40.12485-29.66972 41.19728-30.74214 42.5202-30.74214 43.84312-30.74214 44.91554-29.66972 44.91554-28.3468ZM42.5202-28.3468"/>
<path transform="matrix(1.00005,0,0,-1.00005,45.978799,49.551027)" d="M2.39534-2.83484C2.39534-1.51192 1.32292-.4395 0-.4395-1.32292-.4395-2.39534-1.51192-2.39534-2.83484-2.39534-4.15776-1.32292-5.2302 0-5.2302 1.32292-5.2302 2.39534-4.15776 2.39534-2.83484ZM0-2.83484"/>
<path transform="matrix(1.00005,0,0,-1.00005,45.978799,49.551027)" stroke-width=".3985" stroke-linecap="butt" stroke-miterlimit="10" stroke-linejoin="miter" fill="none" stroke="#000000" d="M-1.29654 43.10771-41.22365-26.09946"/>
<path transform="matrix(1.00005,0,0,-1.00005,45.978799,49.551027)" stroke-width=".3985" stroke-linecap="butt" stroke-miterlimit="10" stroke-linejoin="miter" fill="none" stroke="#000000" d="M-39.9256-28.3468H39.9256"/>
<path transform="matrix(1.00005,0,0,-1.00005,45.978799,49.551027)" stroke-width=".3985" stroke-linecap="butt" stroke-miterlimit="10" stroke-linejoin="miter" fill="none" stroke="#000000" d="M41.22365-26.09946 1.29654 43.10771"/>
<path transform="matrix(1.00005,0,0,-1.00005,45.978799,49.551027)" stroke-width=".3985" stroke-linecap="butt" stroke-miterlimit="10" stroke-linejoin="miter" fill="none" stroke="#000000" d="M0 42.76045V-.24025"/>
<path transform="matrix(1.00005,0,0,-1.00005,45.978799,49.551027)" stroke-width=".3985" stroke-linecap="butt" stroke-miterlimit="10" stroke-linejoin="miter" fill="none" stroke="#000000" d="M-40.29543-27.01195-2.22478-4.1697"/>
<path transform="matrix(1.00005,0,0,-1.00005,45.978799,49.551027)" stroke-width=".3985" stroke-linecap="butt" stroke-miterlimit="10" stroke-linejoin="miter" fill="none" stroke="#000000" d="M40.29543-27.01195 2.22478-4.1697"/>
</svg>
