<svg xmlns="http://www.w3.org/2000/svg" xmlns:xlink="http://www.w3.org/1999/xlink" xmlns:inkscape="http://www.inkscape.org/namespaces/inkscape" version="1.1" width="108" height="98" viewBox="0 0 108 98">
<defs>
<path id="font_1_1" d="M.6279907 .5686035C.6769867 .64660647 .71899417 .6496124 .7559967 .6516113 .7679901 .65260317 .7689972 .6696167 .7689972 .6706085 .7689972 .6786041 .7639923 .6826172 .7559967 .6826172 .7299957 .6826172 .70098879 .6796112 .673996 .6796112 .6409912 .6796112 .6069946 .6826172 .57499697 .6826172 .56900027 .6826172 .55599978 .6826172 .55599978 .66360476 .55599978 .65260317 .5649872 .6516113 .57199099 .6516113 .598999 .6496124 .6179962 .63960269 .6179962 .61860659 .6179962 .6036072 .6029968 .581604 .6029968 .5805969L.29599 .092544559 .22799683 .62161257C.22799683 .63861086 .25099183 .6516113 .29699708 .6516113 .31098939 .6516113 .32199098 .6516113 .32199098 .6716156 .32199098 .680603 .31399537 .6826172 .30799867 .6826172 .2679901 .6826172 .22499085 .6796112 .18399048 .6796112 .1659851 .6796112 .14698792 .680603 .1289978 .680603 .11099243 .680603 .09199524 .6826172 .07499695 .6826172 .067993167 .6826172 .055999757 .6826172 .055999757 .66360476 .055999757 .6516113 .06498718 .6516113 .08099365 .6516113 .13699341 .6516113 .13798523 .64260867 .14099121 .6175995L.21998596 .0005340576C.22299195-.019470215 .22698975-.022460938 .23999024-.022460938 .2559967-.022460938 .2599945-.017471314 .2679901-.004470825L.6279907 .5686035Z"/>
<path id="font_2_1" d="M.33499146 .63612368C.33499146 .6630554 .33299256 .6640625 .30499269 .6640625 .24099732 .6014404 .1499939 .6004486 .10899353 .6004486V.5644531C.1329956 .5644531 .19898987 .5644531 .2539978 .592453V.08203125C.2539978 .04899597 .2539978 .035995485 .1539917 .035995485H.115997318V0C.13398743 .0009918213 .25698854 .0039978029 .2939911 .0039978029 .32499696 .0039978029 .45098878 .0009918213 .47299195 0V.035995485H.43499757C.33499146 .035995485 .33499146 .04899597 .33499146 .08203125V.63612368Z"/>
<path id="font_2_2" d="M.5049896 .18203736H.47099305C.46798707 .16001892 .45799256 .100997928 .44499208 .09098816 .43699647 .084991458 .3600006 .084991458 .34599305 .084991458H.1619873C.2669983 .17803955 .3019867 .20603943 .3619995 .25306703 .43598939 .312088 .5049896 .374115 .5049896 .46914674 .5049896 .5900879 .39898683 .6640625 .2709961 .6640625 .14698792 .6640625 .06298828 .57710269 .06298828 .4851532 .06298828 .43414308 .10598755 .42915345 .115997318 .42915345 .13999939 .42915345 .16899109 .44615174 .16899109 .48214723 .16899109 .5001526 .1619873 .53515627 .10998535 .53515627 .14099121 .6060791 .20899964 .62805178 .2559967 .62805178 .35598756 .62805178 .4079895 .5501404 .4079895 .46914674 .4079895 .38212586 .34599305 .3130951 .31399537 .27708436L.07299805 .038986207C.06298828 .02999878 .06298828 .027999878 .06298828 0H.47499085L.5049896 .18203736Z"/>
</defs>
<path transform="matrix(1.00005,0,0,-1.00006,53.70418,53.463907)" d="M-34.45558 28.3468C-34.45558 29.66972-35.528 30.74214-36.85092 30.74214-38.17384 30.74214-39.24628 29.66972-39.24628 28.3468-39.24628 27.02388-38.17384 25.95146-36.85092 25.95146-35.528 25.95146-34.45558 27.02388-34.45558 28.3468ZM-36.85092 28.3468"/>
<path transform="matrix(1.00005,0,0,-1.00006,53.70418,53.463907)" d="M-34.45558 0C-34.45558 1.32292-35.528 2.39534-36.85092 2.39534-38.17384 2.39534-39.24628 1.32292-39.24628 0-39.24628-1.32292-38.17384-2.39534-36.85092-2.39534-35.528-2.39534-34.45558-1.32292-34.45558 0ZM-36.85092 0"/>
<path transform="matrix(1.00005,0,0,-1.00006,53.70418,53.463907)" d="M-34.45558-28.3468C-34.45558-27.02388-35.528-25.95146-36.85092-25.95146-38.17384-25.95146-39.24628-27.02388-39.24628-28.3468-39.24628-29.66972-38.17384-30.74214-36.85092-30.74214-35.528-30.74214-34.45558-29.66972-34.45558-28.3468ZM-36.85092-28.3468"/>
<path transform="matrix(1.00005,0,0,-1.00006,53.70418,53.463907)" d="M39.24628 17.00824C39.24628 18.33116 38.17384 19.40358 36.85092 19.40358 35.528 19.40358 34.45558 18.33116 34.45558 17.00824 34.45558 15.68532 35.528 14.6129 36.85092 14.6129 38.17384 14.6129 39.24628 15.68532 39.24628 17.00824ZM36.85092 17.00824"/>
<path transform="matrix(1.00005,0,0,-1.00006,53.70418,53.463907)" d="M39.24628-17.00824C39.24628-15.68532 38.17384-14.6129 36.85092-14.6129 35.528-14.6129 34.45558-15.68532 34.45558-17.00824 34.45558-18.33116 35.528-19.40358 36.85092-19.40358 38.17384-19.40358 39.24628-18.33116 39.24628-17.00824ZM36.85092-17.00824"/>
<path transform="matrix(1.00005,0,0,-1.00006,53.70418,53.463907)" stroke-width=".3985" stroke-linecap="butt" stroke-miterlimit="10" stroke-linejoin="miter" fill="none" stroke="#000000" d="M-34.28662 27.95238 34.28662 17.40266"/>
<path transform="matrix(1.00005,0,0,-1.00006,53.70418,53.463907)" stroke-width=".3985" stroke-linecap="butt" stroke-miterlimit="10" stroke-linejoin="miter" fill="none" stroke="#000000" d="M-34.64134 26.98708 34.64134-15.64851"/>
<path transform="matrix(1.00005,0,0,-1.00006,53.70418,53.463907)" stroke-width=".3985" stroke-linecap="butt" stroke-miterlimit="10" stroke-linejoin="miter" fill="none" stroke="#000000" d="M-34.32285 .58336 34.32285 16.42488"/>
<path transform="matrix(1.00005,0,0,-1.00006,53.70418,53.463907)" stroke-width=".3985" stroke-linecap="butt" stroke-miterlimit="10" stroke-linejoin="miter" fill="none" stroke="#000000" d="M-34.28662-27.95238 34.28662-17.40266"/>
<path transform="matrix(1.00005,0,0,-1.00006,53.70418,53.463907)" stroke-width=".3985" stroke-linecap="butt" stroke-miterlimit="10" stroke-linejoin="miter" fill="none" stroke="#000000" d="M-34.64134-26.98708 34.64134 15.64851"/>
<path transform="matrix(1.00005,0,0,-1.00006,53.70418,53.463907)" stroke-width=".3985" stroke-linecap="butt" stroke-miterlimit="10" stroke-linejoin="miter" fill="none" stroke="#000000" d="M-21.2601 0C-21.2601 23.48355-28.24025 42.52022-36.85092 42.52022-45.4616 42.52022-52.44176 23.48355-52.44176 0-52.44176-23.48355-45.4616-42.52022-36.85092-42.52022-28.24025-42.52022-21.2601-23.48355-21.2601 0ZM-36.85092 0"/>
<path transform="matrix(1.00005,0,0,-1.00006,53.70418,53.463907)" stroke-width=".3985" stroke-linecap="butt" stroke-miterlimit="10" stroke-linejoin="miter" fill="none" stroke="#000000" d="M52.44176 0C52.44176 17.22125 45.4616 31.18144 36.85092 31.18144 28.24025 31.18144 21.2601 17.22125 21.2601 0 21.2601-17.22125 28.24025-31.18144 36.85092-31.18144 45.4616-31.18144 52.44176-17.22125 52.44176 0ZM36.85092 0"/>
<use data-text="V" xlink:href="#font_1_1" transform="matrix(9.963098,0,0,-9.963197,11.711082,7.928173)"/>
<use data-text="1" xlink:href="#font_2_1" transform="matrix(6.9741489,0,0,-6.9742186,17.523373,9.42226)"/>
<use data-text="V" xlink:href="#font_1_1" transform="matrix(9.963098,0,0,-9.963197,85.415767,13.598515)"/>
<use data-text="2" xlink:href="#font_2_2" transform="matrix(6.9741489,0,0,-6.9742186,91.22806,15.092602)"/>
</svg>
