<svg xmlns="http://www.w3.org/2000/svg" xmlns:xlink="http://www.w3.org/1999/xlink" xmlns:inkscape="http://www.inkscape.org/namespaces/inkscape" version="1.1" width="111" height="72" viewBox="0 0 111 72">
<defs>
<clipPath id="clip_1">
<path transform="matrix(1.00005,0,0,-1.00009,55.121248,36.017435)" d="M14.1734 0C14.1734 18.78679-1.05586 34.01608-19.84267 34.01608-38.62947 34.01608-53.85875 18.78679-53.85875 0-53.85875-18.78679-38.62947-34.01608-19.84267-34.01608-1.05586-34.01608 14.1734-18.78679 14.1734 0ZM-19.84267 0"/>
</clipPath>
<path id="font_2_1" d="M.1789856 .114868167C.13899231 .047973634 .099990848 .033981325 .055999757 .0309906 .04399109 .02999878 .034988405 .02999878 .034988405 .010986328 .034988405 .004989624 .039993287 0 .04798889 0 .07499695 0 .10598755 .0029907227 .13398743 .0029907227 .16699219 .0029907227 .20199585 0 .23399353 0 .23999024 0 .25299073 0 .25299073 .018997193 .25299073 .02999878 .24398804 .0309906 .23699951 .0309906 .21398926 .032989503 .18998719 .04096985 .18998719 .06593323 .18998719 .077926639 .19599915 .088897708 .20399475 .102890018L.27999879 .23068238H.5309906C.5329895 .2097168 .5469971 .07392883 .5469971 .063949588 .5469971 .033981325 .49499513 .0309906 .47499085 .0309906 .46099855 .0309906 .45098878 .0309906 .45098878 .010986328 .45098878 0 .46299745 0 .46499635 0 .5059967 0 .548996 .0029907227 .58999636 .0029907227 .61499026 .0029907227 .6779938 0 .7029877 0 .70899966 0 .72099307 0 .72099307 .019989014 .72099307 .0309906 .71099856 .0309906 .69799807 .0309906 .6359863 .0309906 .6359863 .037979127 .6329956 .06694031L.57199099 .691803C.56999209 .71180728 .56999209 .7158203 .5529938 .7158203 .5369873 .7158203 .5329895 .7088165 .5269928 .69880679L.1789856 .114868167M.29899598 .26168824 .49598695 .5917816 .5279999 .26168824H.29899598Z"/>
<path id="font_2_2" d="M.1599884 .07795715C.1499939 .038986207 .147995 .0309906 .068984989 .0309906 .051986696 .0309906 .041992189 .0309906 .041992189 .010986328 .041992189 0 .050994874 0 .068984989 0H.42599488C.58399966 0 .70199587 .11791992 .70199587 .21585083 .70199587 .28778077 .6439972 .3457489 .5469971 .35673524 .651001 .37573243 .7559967 .44970704 .7559967 .5446625 .7559967 .6186218 .6899872 .6826172 .56999209 .6826172H.23399353C.21499634 .6826172 .20498657 .6826172 .20498657 .6626129 .20498657 .6516113 .21398926 .6516113 .23298645 .6516113 .23498535 .6516113 .2539978 .6516113 .2709961 .6496124 .2889862 .6476135 .2979889 .64660647 .2979889 .6336212 .2979889 .6296234 .29699708 .62661746 .2939911 .614624L.1599884 .07795715M.31098939 .36573792 .37298585 .6136322C.38198854 .64860537 .38398744 .6516113 .4269867 .6516113H.55599978C.6439972 .6516113 .6649933 .5926361 .6649933 .5486603 .6649933 .46069337 .57899478 .36573792 .45700074 .36573792H.31098939M.2659912 .0309906C.2519989 .0309906 .25 .0309906 .24398804 .03199768 .23399353 .032989503 .23098755 .033996583 .23098755 .04197693 .23098755 .04498291 .23098755 .04698181 .23599243 .064971927L.30499269 .34375H.49398805C.58999636 .34375 .60899356 .2698059 .60899356 .22683716 .60899356 .12791443 .519989 .0309906 .4019928 .0309906H.2659912Z"/>
<path id="font_3_1" d="M.18199158 .116867069C.1329956 .036987306 .08898926 .033981325 .04899597 .0309906 .041992189 .02999878 .036987306 .021987915 .036987306 .0129852299 .036987306 .0069885256 .040985109 0 .050994874 0 .069992069 0 .116989139 .0029907227 .13598633 .0029907227 .1579895 .0029907227 .21199036 0 .23399353 0 .23999024 0 .25299073 0 .25299073 .017990113 .25299073 .02999878 .24099732 .0309906 .23799134 .0309906 .22898865 .03199768 .19099427 .033981325 .19099427 .063949588 .19099427 .077926639 .20199585 .09689331 .20498657 .101882938L.28399659 .23068238H.54499819C.5479889 .2077179 .5509949 .17378235 .55400088 .14881897 .55799868 .10987854 .56399539 .06593323 .56399539 .062942508 .56399539 .047973634 .5499878 .0309906 .49198915 .0309906 .48199464 .0309906 .46899415 .0309906 .46899415 .0129852299 .46899415 .0019989014 .47698976 0 .48399354 0 .5029907 0 .5269928 .0019989014 .5469971 .0019989014 .5669861 .0019989014 .59098818 .0029907227 .6069946 .0029907227 .6399994 .0029907227 .6419983 .0029907227 .66600039 .0019989014 .6819916 .0009918213 .7049866 0 .72099307 0 .72698977 0 .73999026 0 .73999026 .017990113 .73999026 .0309906 .72898867 .0309906 .71699526 .0309906 .6569977 .0309906 .6559906 .037979127 .6529999 .06694031L.58299258 .68881228C.58099368 .7108154 .5799866 .7158203 .5629883 .7158203 .548996 .7158203 .54299929 .7088165 .5349884 .69581606L.18199158 .116867069M.30299378 .26168824 .5049896 .5917816 .5419922 .26168824H.30299378Z"/>
<path id="font_4_1" d="M.6269989 .3795929C.6269989 .5326233 .47200013 .5996399 .34199525 .5996399 .21199036 .5996399 .056991579 .5326233 .056991579 .3795929V.014541626C.056991579-.0024719239 .056991579-.022460938 .07798767-.022460938 .099990848-.022460938 .099990848-.0034637452 .099990848 .014541626V.37660218C.099990848 .5226288 .2630005 .5566406 .34199525 .5566406 .41999818 .5566406 .58399966 .5236206 .58399966 .37660218V.014541626C.58399966-.0024719239 .58399966-.022460938 .6049957-.022460938 .6269989-.022460938 .6269989-.0034637452 .6269989 .014541626V.3795929Z"/>
<path id="font_3_2" d="M.16299439 .07595825C.1539917 .039993287 .1519928 .0309906 .07699585 .0309906 .057998659 .0309906 .04699707 .0309906 .04699707 .0129852299 .04699707 0 .056991579 0 .07499695 0H.43899537C.6009979 0 .7200012 .11793518 .7200012 .21485901 .7200012 .28581239 .6609955 .34576417 .56199648 .35676576 .6759949 .37875367 .772995 .4547119 .772995 .54367068 .772995 .6216278 .70098879 .6826172 .58200076 .6826172H.23999024C.22200012 .6826172 .20999146 .6826172 .20999146 .6646118 .20999146 .6516113 .21899414 .6516113 .23999024 .6516113 .24398804 .6516113 .2619934 .6516113 .27799989 .6496124 .29499818 .6476135 .3019867 .6456146 .3019867 .63461306 .3019867 .6296234 .30099488 .6256256 .2979889 .614624L.16299439 .07595825M.31900025 .36776734 .37998963 .6126251C.3889923 .64860537 .3909912 .6516113 .43299867 .6516113H.56799319C.6719971 .6516113 .68099978 .5726471 .68099978 .54766848 .68099978 .45870973 .58799746 .36776734 .47499085 .36776734H.31900025M.2709961 .0309906C.25698854 .0309906 .25498963 .0309906 .25099183 .03199768 .24099732 .032989503 .23799134 .033996583 .23799134 .040985109 .23799134 .04397583 .23799134 .04597473 .24299622 .063964847L.31199647 .34277345H.5C.56199648 .34277345 .625 .31578065 .625 .22485352 .625 .12593079 .5339966 .0309906 .4139862 .0309906H.2709961Z"/>
</defs>
<path transform="matrix(1.00005,0,0,-1.00009,55.121248,36.017435)" stroke-width=".3985" stroke-linecap="butt" stroke-miterlimit="10" stroke-linejoin="miter" fill="none" stroke="#000000" d="M14.1734 0C14.1734 18.78679-1.05586 34.01608-19.84267 34.01608-38.62947 34.01608-53.85875 18.78679-53.85875 0-53.85875-18.78679-38.62947-34.01608-19.84267-34.01608-1.05586-34.01608 14.1734-18.78679 14.1734 0ZM-19.84267 0"/>
<path transform="matrix(1.00005,0,0,-1.00009,55.121248,36.017435)" stroke-width=".3985" stroke-linecap="butt" stroke-miterlimit="10" stroke-linejoin="miter" fill="none" stroke="#000000" d="M53.85875 0C53.85875 18.78679 38.62947 34.01608 19.84267 34.01608 1.05586 34.01608-14.1734 18.78679-14.1734 0-14.1734-18.78679 1.05586-34.01608 19.84267-34.01608 38.62947-34.01608 53.85875-18.78679 53.85875 0ZM19.84267 0"/>
<g clip-path="url(#clip_1)">
<path transform="matrix(1.00005,0,0,-1.00009,55.121248,36.017435)" d="M53.85875 0C53.85875 18.78679 38.62947 34.01608 19.84267 34.01608 1.05586 34.01608-14.1734 18.78679-14.1734 0-14.1734-18.78679 1.05586-34.01608 19.84267-34.01608 38.62947-34.01608 53.85875-18.78679 53.85875 0ZM19.84267 0" fill="#d1d1d1"/>
</g>
<path transform="matrix(1.00005,0,0,-1.00009,55.121248,36.017435)" stroke-width=".3985" stroke-linecap="butt" stroke-miterlimit="10" stroke-linejoin="miter" fill="none" stroke="#000000" d="M14.1734 0C14.1734 18.78679-1.05586 34.01608-19.84267 34.01608-38.62947 34.01608-53.85875 18.78679-53.85875 0-53.85875-18.78679-38.62947-34.01608-19.84267-34.01608-1.05586-34.01608 14.1734-18.78679 14.1734 0ZM-19.84267 0"/>
<path transform="matrix(1.00005,0,0,-1.00009,55.121248,36.017435)" stroke-width=".3985" stroke-linecap="butt" stroke-miterlimit="10" stroke-linejoin="miter" fill="none" stroke="#000000" d="M53.85875 0C53.85875 18.78679 38.62947 34.01608 19.84267 34.01608 1.05586 34.01608-14.1734 18.78679-14.1734 0-14.1734-18.78679 1.05586-34.01608 19.84267-34.01608 38.62947-34.01608 53.85875-18.78679 53.85875 0ZM19.84267 0"/>
<use data-text="A" xlink:href="#font_2_1" transform="matrix(9.963098,0,0,-9.963496,14.532219,39.421739)"/>
<use data-text="B" xlink:href="#font_2_2" transform="matrix(9.963098,0,0,-9.963496,87.94589,39.421739)"/>
<use data-text="A" xlink:href="#font_3_1" transform="matrix(8.966848,0,0,-8.967207,42.835634,39.08171)"/>
<use data-text="&#x2229;" xlink:href="#font_4_1" transform="matrix(8.966848,0,0,-8.967207,51.794084,39.08171)"/>
<use data-text="B" xlink:href="#font_3_2" transform="matrix(8.966848,0,0,-8.967207,59.986497,39.08171)"/>
</svg>
