<svg xmlns="http://www.w3.org/2000/svg" xmlns:xlink="http://www.w3.org/1999/xlink" xmlns:inkscape="http://www.inkscape.org/namespaces/inkscape" version="1.1" width="103" height="82" viewBox="0 0 103 82">
<defs>
<path id="font_1_1" d="M.4869995 .32635499C.49299623 .35235597 .5049896 .39837647 .5049896 .40237428 .5049896 .41537477 .49598695 .43138124 .47399903 .43138124 .45999146 .43138124 .44499208 .42237855 .43798829 .41036988 .43299867 .40037538 .36499024 .12928772 .35899354 .09628296 .33799745 .060272218 .2979889 .014251709 .24299622 .014251709 .18099976 .014251709 .18099976 .07727051 .18099976 .09628296 .18099976 .14129639 .19400025 .19030762 .23699951 .30233766 .24499512 .3253479 .25099183 .33935548 .25099183 .35835267 .25099183 .40737916 .21398926 .4423828 .16499329 .4423828 .068984989 .4423828 .0289917 .30033876 .0289917 .28833009 .0289917 .2793274 .035995485 .27633668 .042999269 .27633668 .053985597 .27633668 .054992677 .28233338 .05899048 .29533387 .07998657 .36735536 .11898804 .41737367 .1619873 .41737367 .18299866 .41737367 .18598938 .40237428 .18598938 .3843689 .18598938 .36735536 .18199158 .34934999 .17298889 .3253479 .12599182 .2013092 .11299133 .15930176 .11299133 .11128235 .11299133 .00024414063 .20298767-.0107421879 .23999024-.0107421879 .29699708-.0107421879 .33799745 .024246216 .3619995 .055267335 .3809967-.0107421879 .44699098-.0107421879 .45298768-.0107421879 .48199464-.0107421879 .5069885 .003250122 .5279999 .042251588 .54599 .07527161 .5609894 .13928223 .5609894 .14329529 .5609894 .14828491 .55799868 .1552887 .5479889 .1552887 .5359955 .1552887 .5349884 .15029907 .5309906 .13128662 .5109863 .052261354 .48999024 .014251709 .45599366 .014251709 .43199159 .014251709 .4249878 .03526306 .4249878 .060272218 .4249878 .07926941 .42999269 .09927368 .43899537 .1342926L.46398927 .23731995 .4869995 .32635499Z"/>
<path id="font_2_1" d="M.35899354 .6349335C.35899354 .66503909 .35499574 .66503909 .32499696 .66503909 .25898744 .60058596 .15699768 .60058596 .12098694 .60058596V.5615845C.14698792 .5615845 .21299744 .5615845 .272995 .58958438V.08496094C.272995 .051986696 .272995 .038986207 .16999817 .038986207H.1269989V0C.18199158 .0039978029 .2599945 .0039978029 .31599427 .0039978029 .37199403 .0039978029 .44999696 .0039978029 .5049896 0V.038986207H.46199037C.35899354 .038986207 .35899354 .051986696 .35899354 .08496094V.6349335Z"/>
<path id="font_2_2" d="M.5379944 .18702698H.5009918C.49899293 .17301941 .4889984 .10699463 .47399903 .09599304 .46699525 .08999634 .38598634 .08999634 .37199403 .08999634H.18499756L.31298829 .19403076C.34700013 .22103882 .43598939 .28504945 .46699525 .31506349 .49699403 .3450775 .5379944 .39608766 .5379944 .46710206 .5379944 .5920563 .4249878 .66503909 .29100038 .66503909 .1619873 .66503909 .07199097 .58006289 .07199097 .48609925 .07199097 .43510438 .114990238 .42910768 .12599182 .42910768 .15098572 .42910768 .17999268 .44709779 .17999268 .48310853 .17999268 .50509646 .16699219 .5371094 .12298584 .5371094 .1459961 .5880585 .20698548 .6260376 .27598573 .6260376 .3809967 .6260376 .43699647 .5480957 .43699647 .46710206 .43699647 .39608766 .3899994 .32305909 .31999208 .25904847L.08299255 .041992189C.07299805 .03199768 .07199097 .0309906 .07199097 0H.5069885L.5379944 .18702698Z"/>
<path id="font_2_3" d="M.2939911 .33203126C.3789978 .33203126 .43598939 .274765 .43598939 .17237854 .43598939 .062408449 .36999513 .014511108 .29699708 .014511108 .269989 .014511108 .16699219 .020492554 .12199402 .07836914 .16099549 .0823822 .1769867 .10836792 .1769867 .13537598 .1769867 .16937256 .15299988 .19238281 .11999512 .19238281 .09298706 .19238281 .06298828 .17536927 .06298828 .13337708 .06298828 .034469606 .17298889-.021484375 .2999878-.021484375 .44799806-.021484375 .5469971 .07337952 .5469971 .17237854 .5469971 .24562073 .4909973 .3229828 .37199403 .35302735 .45098878 .37902833 .5149994 .44306947 .5149994 .5251007 .5149994 .60505679 .42099 .66503909 .30099488 .66503909 .18399048 .66503909 .09498596 .61105349 .09498596 .5290985 .09498596 .48609925 .12799073 .47409059 .147995 .47409059 .17399597 .47409059 .20098877 .49209596 .20098877 .5270996 .20098877 .5580902 .1789856 .5760956 .1519928 .5800934 .19898987 .6320343 .2899933 .6320343 .29899598 .6320343 .34999085 .6320343 .4139862 .60806277 .4139862 .5251007 .4139862 .47009278 .3829956 .37402345 .2829895 .36802674 .2649994 .36701966 .23799134 .36502076 .22898865 .36502076 .21899414 .36402894 .20799256 .36302186 .20799256 .34802247 .20799256 .33203126 .21899414 .33203126 .23599243 .33203126H.2939911Z"/>
<path id="font_1_2" d="M.47698976 .3423462C.48199464 .36236573 .4909973 .39837647 .4909973 .40237428 .4909973 .41537477 .48199464 .43138124 .45999146 .43138124 .44699098 .43138124 .42900086 .42337037 .42099 .40437318 .4189911 .39837647 .37098695 .205307 .36499024 .17930603 .35899354 .1552887 .35598756 .13928223 .35499574 .11528015 .35899354 .090270999 .34399415 .06826782 .32899476 .04826355 .30699159 .021255494 .2849884 .014251709 .2639923 .014251709 .22799683 .014251709 .18199158 .029251099 .18199158 .104278568 .18199158 .15629578 .20799256 .22731018 .23899842 .30934144 .24398804 .32234193 .25099183 .33935548 .25099183 .35835267 .25099183 .40737916 .21398926 .4423828 .16499329 .4423828 .068984989 .4423828 .0289917 .30033876 .0289917 .28833009 .0289917 .2793274 .035995485 .27633668 .042999269 .27633668 .053985597 .27633668 .054992677 .28233338 .05899048 .29533387 .07998657 .36836244 .11999512 .41737367 .1619873 .41737367 .18199158 .41737367 .18598938 .40437318 .18598938 .3843689 .18598938 .36735536 .18199158 .34934999 .17298889 .3253479 .12399292 .1973114 .11399841 .16029358 .11399841 .11828613 .11399841 .004257202 .21099854-.0107421879 .26098634-.0107421879 .2999878-.0107421879 .33699037 .0052490236 .3659973 .057266237 .3959961-.0017547608 .45899964-.0107421879 .49598695-.0107421879 .5669861-.0107421879 .6100006 .041259767 .6419983 .107284549 .66999819 .16630554 .70899966 .3083496 .70899966 .3693695 .70899966 .43937684 .6719971 .44337464 .6629944 .44337464 .6380005 .44337464 .6119995 .41638185 .6119995 .39337159 .6119995 .3783722 .62098696 .37036134 .6279907 .36436463 .6549988 .33935548 .6639862 .30734254 .6639862 .28134156 .6639862 .2513275 .6389923 .15930176 .60899356 .10127258 .58699038 .058258058 .5529938 .014251709 .49899293 .014251709 .42399598 .014251709 .42399598 .08427429 .42399598 .10227966 .42399598 .12928772 .42900086 .15029907 .43798829 .18530274L.47698976 .3423462Z"/>
</defs>
<path transform="matrix(1.00003,0,0,-1.00005,52.11595,40.833787)" d="M-42.9597 28.3468C-42.9597 29.66972-44.03214 30.74214-45.35506 30.74214-46.67798 30.74214-47.7504 29.66972-47.7504 28.3468-47.7504 27.02388-46.67798 25.95146-45.35506 25.95146-44.03214 25.95146-42.9597 27.02388-42.9597 28.3468ZM-45.35506 28.3468"/>
<path transform="matrix(1.00003,0,0,-1.00005,52.11595,40.833787)" d="M2.39534 28.3468C2.39534 29.66972 1.32292 30.74214 0 30.74214-1.32292 30.74214-2.39534 29.66972-2.39534 28.3468-2.39534 27.02388-1.32292 25.95146 0 25.95146 1.32292 25.95146 2.39534 27.02388 2.39534 28.3468ZM0 28.3468"/>
<path transform="matrix(1.00003,0,0,-1.00005,52.11595,40.833787)" d="M47.7504 28.3468C47.7504 29.66972 46.67798 30.74214 45.35506 30.74214 44.03214 30.74214 42.9597 29.66972 42.9597 28.3468 42.9597 27.02388 44.03214 25.95146 45.35506 25.95146 46.67798 25.95146 47.7504 27.02388 47.7504 28.3468ZM45.35506 28.3468"/>
<path transform="matrix(1.00003,0,0,-1.00005,52.11595,40.833787)" d="M-42.9597-28.3468C-42.9597-27.02388-44.03214-25.95146-45.35506-25.95146-46.67798-25.95146-47.7504-27.02388-47.7504-28.3468-47.7504-29.66972-46.67798-30.74214-45.35506-30.74214-44.03214-30.74214-42.9597-29.66972-42.9597-28.3468ZM-45.35506-28.3468"/>
<path transform="matrix(1.00003,0,0,-1.00005,52.11595,40.833787)" d="M2.39534-28.3468C2.39534-27.02388 1.32292-25.95146 0-25.95146-1.32292-25.95146-2.39534-27.02388-2.39534-28.3468-2.39534-29.66972-1.32292-30.74214 0-30.74214 1.32292-30.74214 2.39534-29.66972 2.39534-28.3468ZM0-28.3468"/>
<path transform="matrix(1.00003,0,0,-1.00005,52.11595,40.833787)" d="M47.7504-28.3468C47.7504-27.02388 46.67798-25.95146 45.35506-25.95146 44.03214-25.95146 42.9597-27.02388 42.9597-28.3468 42.9597-29.66972 44.03214-30.74214 45.35506-30.74214 46.67798-30.74214 47.7504-29.66972 47.7504-28.3468ZM45.35506-28.3468"/>
<path transform="matrix(1.00003,0,0,-1.00005,52.11595,40.833787)" stroke-width=".3985" stroke-linecap="butt" stroke-miterlimit="10" stroke-linejoin="miter" fill="none" stroke="#000000" d="M-45.35506 25.7522V-25.7522"/>
<path transform="matrix(1.00003,0,0,-1.00005,52.11595,40.833787)" stroke-width=".3985" stroke-linecap="butt" stroke-miterlimit="10" stroke-linejoin="miter" fill="none" stroke="#000000" d="M-43.7343 26.32089-1.62074-26.32089"/>
<path transform="matrix(1.00003,0,0,-1.00005,52.11595,40.833787)" stroke-width=".3985" stroke-linecap="butt" stroke-miterlimit="10" stroke-linejoin="miter" fill="none" stroke="#000000" d="M-43.15485 26.97173 43.15485-26.97173"/>
<path transform="matrix(1.00003,0,0,-1.00005,52.11595,40.833787)" stroke-width=".3985" stroke-linecap="butt" stroke-miterlimit="10" stroke-linejoin="miter" fill="none" stroke="#000000" d="M-1.62074 26.32089-43.7343-26.32089"/>
<path transform="matrix(1.00003,0,0,-1.00005,52.11595,40.833787)" stroke-width=".3985" stroke-linecap="butt" stroke-miterlimit="10" stroke-linejoin="miter" fill="none" stroke="#000000" d="M0 25.7522V-25.7522"/>
<path transform="matrix(1.00003,0,0,-1.00005,52.11595,40.833787)" stroke-width=".3985" stroke-linecap="butt" stroke-miterlimit="10" stroke-linejoin="miter" fill="none" stroke="#000000" d="M1.62074 26.32089 43.7343-26.32089"/>
<path transform="matrix(1.00003,0,0,-1.00005,52.11595,40.833787)" stroke-width=".3985" stroke-linecap="butt" stroke-miterlimit="10" stroke-linejoin="miter" fill="none" stroke="#000000" d="M43.15485 26.97173-43.15485-26.97173"/>
<path transform="matrix(1.00003,0,0,-1.00005,52.11595,40.833787)" stroke-width=".3985" stroke-linecap="butt" stroke-miterlimit="10" stroke-linejoin="miter" fill="none" stroke="#000000" d="M43.7343 26.32089 1.62074-26.32089"/>
<path transform="matrix(1.00003,0,0,-1.00005,52.11595,40.833787)" stroke-width=".3985" stroke-linecap="butt" stroke-miterlimit="10" stroke-linejoin="miter" fill="none" stroke="#000000" d="M45.35506 25.7522V-25.7522"/>
<use data-text="u" xlink:href="#font_1_1" transform="matrix(8.966669,0,0,-8.966848,2.0324479,4.9799959)"/>
<use data-text="1" xlink:href="#font_2_1" transform="matrix(5.97778,0,0,-5.9778988,7.3356096,5.9760439)"/>
<use data-text="u" xlink:href="#font_1_1" transform="matrix(8.966669,0,0,-8.966848,47.38881,4.9799959)"/>
<use data-text="2" xlink:href="#font_2_2" transform="matrix(5.97778,0,0,-5.9778988,52.69197,5.9760439)"/>
<use data-text="u" xlink:href="#font_1_1" transform="matrix(8.966669,0,0,-8.966848,92.74517,4.9799959)"/>
<use data-text="3" xlink:href="#font_2_3" transform="matrix(5.97778,0,0,-5.9778988,98.04833,5.9760439)"/>
<use data-text="w" xlink:href="#font_1_2" transform="matrix(8.966669,0,0,-8.966848,1.381424,79.55172)"/>
<use data-text="1" xlink:href="#font_2_1" transform="matrix(5.97778,0,0,-5.9778988,7.985626,80.54777)"/>
<use data-text="w" xlink:href="#font_1_2" transform="matrix(8.966669,0,0,-8.966848,46.73779,79.55172)"/>
<use data-text="2" xlink:href="#font_2_2" transform="matrix(5.97778,0,0,-5.9778988,53.34199,80.54777)"/>
<use data-text="w" xlink:href="#font_1_2" transform="matrix(8.966669,0,0,-8.966848,92.094158,79.55172)"/>
<use data-text="3" xlink:href="#font_2_3" transform="matrix(5.97778,0,0,-5.9778988,98.69836,80.54777)"/>
</svg>
