<svg xmlns="http://www.w3.org/2000/svg" xmlns:xlink="http://www.w3.org/1999/xlink" xmlns:inkscape="http://www.inkscape.org/namespaces/inkscape" version="1.1" width="93" height="70" viewBox="0 0 93 70">
<defs>
<path id="font_1_82" d="M.47299195 0V.035995485H.43499757C.33499146 .035995485 .33499146 .048980714 .33499146 .081970218V.6357422C.33499146 .66304019 .33299256 .6640625 .30499269 .6640625 .24099732 .6007385 .1499939 .59973147 .10899353 .59973147V.5644531C.1329956 .5644531 .19898987 .5644531 .2539978 .592453V.08203125C.2539978 .04899597 .2539978 .035995485 .1539917 .035995485H.115997318V0L.2939911 .0039978029 .47299195 0Z"/>
<path id="font_1_107" d="M.5049896 .18203736H.47099305C.46798707 .16001892 .45799256 .100997928 .44499208 .09098816 .43699647 .084991458 .3600006 .084991458 .34599305 .084991458H.1619873C.2669983 .17803955 .3019867 .20603943 .3619995 .25306703 .43598939 .312088 .5049896 .374115 .5049896 .46914674 .5049896 .5900879 .39898683 .6640625 .2709961 .6640625 .14698792 .6640625 .06298828 .57710269 .06298828 .4851532 .06298828 .43414308 .10598755 .42915345 .115997318 .42915345 .13999939 .42915345 .16899109 .44615174 .16899109 .48214723 .16899109 .5001526 .1619873 .53515627 .10998535 .53515627 .14099121 .6060791 .20899964 .62805178 .2559967 .62805178 .35598756 .62805178 .4079895 .5501404 .4079895 .46914674 .4079895 .38212586 .34599305 .3130951 .31399537 .27708436L.07299805 .038986207C.06298828 .02999878 .06298828 .027999878 .06298828 0H.47499085L.5049896 .18203736Z"/>
<path id="font_1_106" d="M.5139923 .1733551C.5139923 .2513275 .44999696 .32929994 .33999635 .35229493 .44499208 .39024354 .48298646 .4650879 .48298646 .5260773 .48298646 .60505679 .3919983 .6640625 .2809906 .6640625 .16999817 .6640625 .084991458 .61006167 .084991458 .5300751 .084991458 .49606324 .10699463 .47706605 .13699341 .47706605 .16799927 .47706605 .18798828 .5000763 .18798828 .5280762 .18798828 .5570679 .16799927 .57806399 .13699341 .5800781 .17199707 .62405398 .24099732 .63505557 .27799989 .63505557 .32299806 .63505557 .38598634 .6130676 .38598634 .5260773 .38598634 .48406983 .37199403 .43814088 .34599305 .4072113 .31298829 .36927796 .2849884 .3672943 .23498535 .36428834 .20999146 .3623047 .20799256 .3623047 .20298767 .3612976 .20298767 .3612976 .19299317 .3592987 .19299317 .34829713 .19299317 .33428956 .20199585 .33428956 .21899414 .33428956H.272995C.35099793 .33428956 .40699769 .2803192 .40699769 .1733551 .40699769 .04940796 .33499146 .012466431 .2769928 .012466431 .23699951 .012466431 .14898682 .0234375 .10699463 .082351688 .1539917 .084350589 .16499329 .11735535 .16499329 .13835144 .16499329 .17034912 .14099121 .19335938 .10998535 .19335938 .08198547 .19335938 .053985597 .17634583 .053985597 .13534546 .053985597 .041412355 .1579895-.01953125 .2789917-.01953125 .41799928-.01953125 .5139923 .07336426 .5139923 .1733551Z"/>
<path id="font_1_57" d="M.5289917 .1640625V.20005799H.41799928V.6458435C.41799928 .66682437 .41799928 .6738281 .3959961 .6738281 .38398744 .6738281 .37998963 .6738281 .36999513 .6598358L.038986207 .20005799V.1640625H.33299256V.08201599C.33299256 .04800415 .33299256 .035995485 .2519989 .035995485H.22499085V0L.375 .0039978029 .526001 0V.035995485H.49899293C.41799928 .035995485 .41799928 .04800415 .41799928 .08201599V.1640625H.5289917M.33999635 .20005799H.07598877L.33999635 .5658722V.20005799Z"/>
<path id="font_1_56" d="M.5049896 .20095825C.5049896 .31396485 .4189911 .41796876 .29499818 .41796876 .25099183 .41796876 .19898987 .40696717 .15499878 .36895753V.5579071C.20599365 .5449219 .23599243 .5449219 .2519989 .5449219 .38398744 .5449219 .46199037 .6349182 .46199037 .6499176 .46199037 .6610565 .45498658 .6640625 .44999696 .6640625 .44999696 .6640625 .44599916 .6640625 .44198609 .6610565 .41799928 .65205386 .36499024 .63204959 .29100038 .63204959 .2630005 .63204959 .20999146 .63404849 .14498902 .6590576 .1349945 .6640625 .13198853 .6640625 .13198853 .6640625 .11898804 .6640625 .11898804 .6530609 .11898804 .63705447V.34204103C.11898804 .32507325 .11898804 .3130951 .1349945 .3130951 .14399719 .3130951 .14498902 .31507875 .15499878 .32707215 .19799805 .38197328 .25898744 .3899536 .2939911 .3899536 .35398866 .3899536 .3809967 .34204103 .38598634 .33406068 .4039917 .30110169 .4099884 .26316834 .4099884 .20524597 .4099884 .17524719 .4099884 .116256717 .37998963 .07234192 .35499574 .03640747 .31199647 .012466431 .2630005 .012466431 .19799805 .012466431 .1309967 .04838562 .10598755 .11425781 .14399719 .11125183 .16299439 .13624573 .16299439 .16325379 .16299439 .20625305 .12599182 .21424866 .11299133 .21424866 .11299133 .21424866 .06298828 .21424866 .06298828 .1602478 .06298828 .07034302 .14498902-.01953125 .2649994-.01953125 .3929901-.019744873 .5049896 .07525635 .5049896 .20124817V.20095825Z"/>
<path id="font_1_101" d="M.5139923 .20445252C.5139923 .33145143 .41299439 .42546083 .29599 .42546083 .21598816 .42546083 .17199707 .37245179 .1499939 .3274536 .1499939 .40945436 .15699768 .48303224 .19499207 .543869 .22898865 .5978699 .2829895 .63505557 .34700013 .63505557 .3769989 .63505557 .4169922 .62701418 .43699647 .5998688 .4119873 .5978699 .3909912 .5808716 .3909912 .5518799 .3909912 .5268707 .4079895 .5048828 .43798829 .5048828 .46798707 .5048828 .48599244 .5248718 .48599244 .5538788 .48599244 .6119385 .44400025 .6640625 .34498597 .6640625 .20098877 .6640625 .053985597 .5318756 .053985597 .3174591 .053985597 .05845642 .17599488-.01953125 .28599549-.01953125 .4079895-.01953125 .5139923 .07345581 .5139923 .20445252M.41799928 .20445252C.41799928 .14746094 .41799928 .10545349 .3909912 .066467288 .36698915 .031463624 .33499146 .012466431 .28599549 .012466431 .23599243 .012466431 .19699097 .04145813 .17599488 .08546448 .16099549 .115448 .15299988 .16545105 .15299988 .22544861 .15299988 .32244874 .21099854 .39746095 .29100038 .39746095 .33699037 .39746095 .36799623 .37945558 .3929901 .342453 .4169922 .30445863 .41799928 .26245118 .41799928 .20445252Z"/>
</defs>
<path transform="matrix(1.00006,0,0,-1.00009,46.564393,35.379377)" d="M2.39534 0C2.39534 1.32292 1.32292 2.39534 0 2.39534-1.32292 2.39534-2.39534 1.32292-2.39534 0-2.39534-1.32292-1.32292-2.39534 0-2.39534 1.32292-2.39534 2.39534-1.32292 2.39534 0ZM0 0"/>
<path transform="matrix(1.00006,0,0,-1.00009,46.564393,35.379377)" d="M-40.12485 31.18166C-40.12485 32.50458-41.19728 33.577-42.5202 33.577-43.84312 33.577-44.91554 32.50458-44.91554 31.18166-44.91554 29.85873-43.84312 28.7863-42.5202 28.7863-41.19728 28.7863-40.12485 29.85873-40.12485 31.18166ZM-42.5202 31.18166"/>
<path transform="matrix(1.00006,0,0,-1.00009,46.564393,35.379377)" d="M-40.12485-31.18166C-40.12485-29.85873-41.19728-28.7863-42.5202-28.7863-43.84312-28.7863-44.91554-29.85873-44.91554-31.18166-44.91554-32.50458-43.84312-33.577-42.5202-33.577-41.19728-33.577-40.12485-32.50458-40.12485-31.18166ZM-42.5202-31.18166"/>
<path transform="matrix(1.00006,0,0,-1.00009,46.564393,35.379377)" d="M44.91554 31.18166C44.91554 32.50458 43.84312 33.577 42.5202 33.577 41.19728 33.577 40.12485 32.50458 40.12485 31.18166 40.12485 29.85873 41.19728 28.7863 42.5202 28.7863 43.84312 28.7863 44.91554 29.85873 44.91554 31.18166ZM42.5202 31.18166"/>
<path transform="matrix(1.00006,0,0,-1.00009,46.564393,35.379377)" d="M44.91554-31.18166C44.91554-29.85873 43.84312-28.7863 42.5202-28.7863 41.19728-28.7863 40.12485-29.85873 40.12485-31.18166 40.12485-32.50458 41.19728-33.577 42.5202-33.577 43.84312-33.577 44.91554-32.50458 44.91554-31.18166ZM42.5202-31.18166"/>
<path transform="matrix(1.00006,0,0,-1.00009,46.564393,35.379377)" stroke-width=".3985" stroke-linecap="butt" stroke-miterlimit="10" stroke-linejoin="miter" fill="none" stroke="#000000" d="M-2.09218 1.53427-40.42801 29.64738"/>
<path transform="matrix(1.00006,0,0,-1.00009,46.564393,35.379377)" stroke-width=".3985" stroke-linecap="butt" stroke-miterlimit="10" stroke-linejoin="miter" fill="none" stroke="#000000" d="M-42.5202 28.58705V-28.58705"/>
<path transform="matrix(1.00006,0,0,-1.00009,46.564393,35.379377)" stroke-width=".3985" stroke-linecap="butt" stroke-miterlimit="10" stroke-linejoin="miter" fill="none" stroke="#000000" d="M-40.42801-29.64738-2.09218-1.53427"/>
<path transform="matrix(1.00006,0,0,-1.00009,46.564393,35.379377)" stroke-width=".3985" stroke-linecap="butt" stroke-miterlimit="10" stroke-linejoin="miter" fill="none" stroke="#000000" d="M2.09218 1.53427 40.42801 29.64738"/>
<path transform="matrix(1.00006,0,0,-1.00009,46.564393,35.379377)" stroke-width=".3985" stroke-linecap="butt" stroke-miterlimit="10" stroke-linejoin="miter" fill="none" stroke="#000000" d="M42.5202 28.58705V-28.58705"/>
<path transform="matrix(1.00006,0,0,-1.00009,46.564393,35.379377)" stroke-width=".3985" stroke-linecap="butt" stroke-miterlimit="10" stroke-linejoin="miter" fill="none" stroke="#000000" d="M40.42801-29.64738 2.09218-1.53427"/>
<path transform="matrix(1.00006,0,0,-1.00009,46.564393,35.379377)" d="M-24.24046 12.2792H-18.27974V18.902409H-24.24046Z" fill="#ffffff"/>
<use data-text="1" xlink:href="#font_1_82" transform="matrix(6.9742186,0,0,-6.9744279,23.319,22.10318)"/>
<path transform="matrix(1.00006,0,0,-1.00009,46.564393,35.379377)" d="M-45.50056-3.3116H-39.53984V3.31161H-45.50056Z" fill="#ffffff"/>
<use data-text="2" xlink:href="#font_1_107" transform="matrix(6.9742186,0,0,-6.9744279,2.0577203,37.694585)"/>
<path transform="matrix(1.00006,0,0,-1.00009,46.564393,35.379377)" d="M-24.24046-18.97217H-18.27974V-12.20949H-24.24046Z" fill="#ffffff"/>
<use data-text="3" xlink:href="#font_1_106" transform="matrix(6.9742186,0,0,-6.9744279,23.319,53.21698)"/>
<path transform="matrix(1.00006,0,0,-1.00009,46.564393,35.379377)" d="M18.27974 12.24434H24.24046V18.9373H18.27974Z" fill="#ffffff"/>
<use data-text="4" xlink:href="#font_1_57" transform="matrix(6.9742186,0,0,-6.9744279,65.841548,22.137185)"/>
<path transform="matrix(1.00006,0,0,-1.00009,46.564393,35.379377)" d="M39.53984-3.38133H45.50056V3.38135H39.53984Z" fill="#ffffff"/>
<use data-text="5" xlink:href="#font_1_56" transform="matrix(6.9742186,0,0,-6.9744279,87.10282,37.62558)"/>
<path transform="matrix(1.00006,0,0,-1.00009,46.564393,35.379377)" d="M18.27974-18.97217H24.24046V-12.20949H18.27974Z" fill="#ffffff"/>
<use data-text="6" xlink:href="#font_1_101" transform="matrix(6.9742186,0,0,-6.9744279,65.841548,53.21698)"/>
</svg>
