<svg xmlns="http://www.w3.org/2000/svg" xmlns:xlink="http://www.w3.org/1999/xlink" xmlns:inkscape="http://www.inkscape.org/namespaces/inkscape" version="1.1" width="108" height="104" viewBox="0 0 108 104">
<defs>
<path id="font_1_1" d="M.46199037 .17704773H.43399049C.43199159 .16404724 .42399598 .10501099 .41099549 .08900452 .40499879 .07998657 .33599855 .07998657 .31599427 .07998657H.13798523L.23699951 .17404175C.40098573 .3161316 .46199037 .36915589 .46199037 .4711914 .46199037 .5860901 .36698915 .6660156 .24398804 .6660156 .1289978 .6660156 .050994874 .575119 .050994874 .4841919 .050994874 .43418885 .09399414 .42919923 .102996829 .42919923 .125 .42919923 .15499878 .44519044 .15499878 .48120118 .15499878 .51119998 .13398743 .5332031 .102996829 .5332031 .09799194 .5332031 .09498596 .5332031 .09098816 .53219607 .114990238 .6030731 .1789856 .63500979 .23298645 .63500979 .33499146 .63500979 .36999513 .5401764 .36999513 .4711914 .36999513 .36915589 .29299928 .28611756 .24499512 .23408509L.06199646 .035995485C.050994874 .024993897 .050994874 .022994996 .050994874 0H.43399049L.46199037 .17704773Z"/>
<path id="font_1_2" d="M.30499269 .35195924C.397995 .38697816 .44198609 .46006776 .44198609 .5290985 .44198609 .60606387 .35699464 .6660156 .25299073 .6660156 .14898682 .6660156 .070999149 .60705569 .070999149 .5310974 .070999149 .49809266 .09298706 .47909547 .12199402 .47909547 .15098572 .47909547 .17199707 .50009158 .17199707 .5290985 .17199707 .5640869 .147995 .57910159 .11399841 .57910159 .13999939 .6210327 .20098877 .64100649 .25 .64100649 .33299256 .64100649 .34899903 .5750885 .34899903 .52809146 .34899903 .49809266 .34298707 .45005799 .31799317 .41201783 .2869873 .36695863 .2519989 .36495973 .22299195 .36296083 .19799805 .36094667 .19599915 .36094667 .18798828 .36094667 .1789856 .35995484 .17098999 .35894776 .17098999 .34794618 .17098999 .33496095 .1789856 .33496095 .19599915 .33496095H.24299622C.32998658 .33496095 .36799623 .2646637 .36799623 .16937256 .36799623 .04145813 .2999878 .0055389406 .24899292 .0055389406 .22999573 .0055389406 .1329956 .010528564 .08799744 .0843811 .12399292 .07939148 .1519928 .10437012 .1519928 .13838196 .1519928 .17137146 .1269989 .19238281 .09799194 .19238281 .07299805 .19238281 .042999269 .17736817 .042999269 .13537598 .042999269 .046447755 .13598633-.022460938 .2519989-.022460938 .3769989-.022460938 .46998597 .06741333 .46998597 .16937256 .46998597 .25663758 .40098573 .33093263 .30499269 .35195924Z"/>
</defs>
<path transform="matrix(1.00005,0,0,-1.00006,54.024354,54.933996)" d="M2.39534 42.5202C2.39534 43.84312 1.32292 44.91554 0 44.91554-1.32292 44.91554-2.39534 43.84312-2.39534 42.5202-2.39534 41.19728-1.32292 40.12485 0 40.12485 1.32292 40.12485 2.39534 41.19728 2.39534 42.5202ZM0 42.5202"/>
<path transform="matrix(1.00005,0,0,-1.00006,54.024354,54.933996)" d="M-40.12485 8.50412C-40.12485 9.82704-41.19728 10.89946-42.5202 10.89946-43.84312 10.89946-44.91554 9.82704-44.91554 8.50412-44.91554 7.1812-43.84312 6.10876-42.5202 6.10876-41.19728 6.10876-40.12485 7.1812-40.12485 8.50412ZM-42.5202 8.50412"/>
<path transform="matrix(1.00005,0,0,-1.00006,54.024354,54.933996)" d="M44.91554 8.50412C44.91554 9.82704 43.84312 10.89946 42.5202 10.89946 41.19728 10.89946 40.12485 9.82704 40.12485 8.50412 40.12485 7.1812 41.19728 6.10876 42.5202 6.10876 43.84312 6.10876 44.91554 7.1812 44.91554 8.50412ZM42.5202 8.50412"/>
<path transform="matrix(1.00005,0,0,-1.00006,54.024354,54.933996)" d="M-23.1166-36.85092C-23.1166-35.528-24.18901-34.45558-25.51193-34.45558-26.83485-34.45558-27.90729-35.528-27.90729-36.85092-27.90729-38.17384-26.83485-39.24628-25.51193-39.24628-24.18901-39.24628-23.1166-38.17384-23.1166-36.85092ZM-25.51193-36.85092"/>
<path transform="matrix(1.00005,0,0,-1.00006,54.024354,54.933996)" d="M27.90729-36.85092C27.90729-35.528 26.83485-34.45558 25.51193-34.45558 24.18901-34.45558 23.1166-35.528 23.1166-36.85092 23.1166-38.17384 24.18901-39.24628 25.51193-39.24628 26.83485-39.24628 27.90729-38.17384 27.90729-36.85092ZM25.51193-36.85092"/>
<path transform="matrix(1.00005,0,0,-1.00006,54.024354,54.933996)" stroke-width=".3985" stroke-linecap="butt" stroke-miterlimit="10" stroke-linejoin="miter" fill="none" stroke="#000000" d="M-2.0259 40.8995-40.4943 10.12486"/>
<path transform="matrix(1.00005,0,0,-1.00006,54.024354,54.933996)" stroke-width=".3985" stroke-linecap="butt" stroke-miterlimit="10" stroke-linejoin="miter" fill="none" stroke="#000000" d="M2.0259 40.8995 40.4943 10.12486"/>
<path transform="matrix(1.00005,0,0,-1.00006,54.024354,54.933996)" stroke-width=".3985" stroke-linecap="butt" stroke-miterlimit="10" stroke-linejoin="miter" fill="none" stroke="#000000" d="M-39.9256 8.50412H39.9256"/>
<path transform="matrix(1.00005,0,0,-1.00006,54.024354,54.933996)" stroke-width=".3985" stroke-linecap="butt" stroke-miterlimit="10" stroke-linejoin="miter" fill="none" stroke="#000000" d="M-41.60924 6.07486-26.4229-34.42166"/>
<path transform="matrix(1.00005,0,0,-1.00006,54.024354,54.933996)" stroke-width=".3985" stroke-linecap="butt" stroke-miterlimit="10" stroke-linejoin="miter" fill="none" stroke="#000000" d="M41.60924 6.07486 26.4229-34.42166"/>
<path transform="matrix(1.00005,0,0,-1.00006,54.024354,54.933996)" stroke-width=".3985" stroke-linecap="butt" stroke-miterlimit="10" stroke-linejoin="miter" fill="none" stroke="#000000" d="M-22.91734-36.85092H22.91734"/>
<use data-text="2" xlink:href="#font_1_1" transform="matrix(8.966848,0,0,-8.966938,51.720239,6.8981134)"/>
<use data-text="3" xlink:href="#font_1_2" transform="matrix(8.966848,0,0,-8.966938,1.3817291,49.318658)"/>
<use data-text="3" xlink:href="#font_1_2" transform="matrix(8.966848,0,0,-8.966938,102.05975,49.318658)"/>
<use data-text="2" xlink:href="#font_1_1" transform="matrix(8.966848,0,0,-8.966938,26.206963,103.07888)"/>
<use data-text="2" xlink:href="#font_1_1" transform="matrix(8.966848,0,0,-8.966938,77.23351,103.07888)"/>
</svg>
