<svg xmlns="http://www.w3.org/2000/svg" xmlns:xlink="http://www.w3.org/1999/xlink" xmlns:inkscape="http://www.inkscape.org/namespaces/inkscape" version="1.1" width="104" height="100" viewBox="0 0 104 100">
<path transform="matrix(1,0,0,-1.00003,51.983,55.22039)" d="M2.39534 51.02432C2.39534 52.34724 1.32292 53.41966 0 53.41966-1.32292 53.41966-2.39534 52.34724-2.39534 51.02432-2.39534 49.7014-1.32292 48.62898 0 48.62898 1.32292 48.62898 2.39534 49.7014 2.39534 51.02432ZM0 51.02432"/>
<path transform="matrix(1,0,0,-1.00003,51.983,55.22039)" d="M-46.1315 15.76642C-46.1315 17.08934-47.20393 18.16176-48.52686 18.16176-49.84978 18.16176-50.9222 17.08934-50.9222 15.76642-50.9222 14.4435-49.84978 13.37108-48.52686 13.37108-47.20393 13.37108-46.1315 14.4435-46.1315 15.76642ZM-48.52686 15.76642"/>
<path transform="matrix(1,0,0,-1.00003,51.983,55.22039)" d="M-27.59552-41.27882C-27.59552-39.9559-28.66794-38.88347-29.99086-38.88347-31.31378-38.88347-32.38622-39.9559-32.38622-41.27882-32.38622-42.60175-31.31378-43.67416-29.99086-43.67416-28.66794-43.67416-27.59552-42.60175-27.59552-41.27882ZM-29.99086-41.27882"/>
<path transform="matrix(1,0,0,-1.00003,51.983,55.22039)" d="M32.38622-41.27882C32.38622-39.9559 31.31378-38.88347 29.99086-38.88347 28.66794-38.88347 27.59552-39.9559 27.59552-41.27882 27.59552-42.60175 28.66794-43.67416 29.99086-43.67416 31.31378-43.67416 32.38622-42.60175 32.38622-41.27882ZM29.99086-41.27882"/>
<path transform="matrix(1,0,0,-1.00003,51.983,55.22039)" d="M50.9222 15.76642C50.9222 17.08934 49.84978 18.16176 48.52686 18.16176 47.20393 18.16176 46.1315 17.08934 46.1315 15.76642 46.1315 14.4435 47.20393 13.37108 48.52686 13.37108 49.84978 13.37108 50.9222 14.4435 50.9222 15.76642ZM48.52686 15.76642"/>
<path transform="matrix(1,0,0,-1.00003,51.983,55.22039)" d="M2.39534 26.92937C2.39534 28.25229 1.32292 29.32472 0 29.32472-1.32292 29.32472-2.39534 28.25229-2.39534 26.92937-2.39534 25.60645-1.32292 24.53403 0 24.53403 1.32292 24.53403 2.39534 25.60645 2.39534 26.92937ZM0 26.92937"/>
<path transform="matrix(1,0,0,-1.00003,51.983,55.22039)" d="M-23.21608 8.32245C-23.21608 9.64537-24.2885 10.7178-25.61142 10.7178-26.93434 10.7178-28.00676 9.64537-28.00676 8.32245-28.00676 6.99953-26.93434 5.92711-25.61142 5.92711-24.2885 5.92711-23.21608 6.99953-23.21608 8.32245ZM-25.61142 8.32245"/>
<path transform="matrix(1,0,0,-1.00003,51.983,55.22039)" d="M-13.43338-21.78737C-13.43338-20.46445-14.5058-19.39201-15.82872-19.39201-17.15164-19.39201-18.22406-20.46445-18.22406-21.78737-18.22406-23.11029-17.15164-24.18271-15.82872-24.18271-14.5058-24.18271-13.43338-23.11029-13.43338-21.78737ZM-15.82872-21.78737"/>
<path transform="matrix(1,0,0,-1.00003,51.983,55.22039)" d="M18.22406-21.78737C18.22406-20.46445 17.15164-19.39201 15.82872-19.39201 14.5058-19.39201 13.43338-20.46445 13.43338-21.78737 13.43338-23.11029 14.5058-24.18271 15.82872-24.18271 17.15164-24.18271 18.22406-23.11029 18.22406-21.78737ZM15.82872-21.78737"/>
<path transform="matrix(1,0,0,-1.00003,51.983,55.22039)" d="M28.00676 8.32245C28.00676 9.64537 26.93434 10.7178 25.61142 10.7178 24.2885 10.7178 23.21608 9.64537 23.21608 8.32245 23.21608 6.99953 24.2885 5.92711 25.61142 5.92711 26.93434 5.92711 28.00676 6.99953 28.00676 8.32245ZM25.61142 8.32245"/>
<path transform="matrix(1,0,0,-1.00003,51.983,55.22039)" stroke-width=".3985" stroke-linecap="butt" stroke-miterlimit="10" stroke-linejoin="miter" fill="none" stroke="#000000" d="M-2.09903 49.49927-46.42781 17.29149"/>
<path transform="matrix(1,0,0,-1.00003,51.983,55.22039)" stroke-width=".3985" stroke-linecap="butt" stroke-miterlimit="10" stroke-linejoin="miter" fill="none" stroke="#000000" d="M-47.72507 13.29883-30.79265-38.81123"/>
<path transform="matrix(1,0,0,-1.00003,51.983,55.22039)" stroke-width=".3985" stroke-linecap="butt" stroke-miterlimit="10" stroke-linejoin="miter" fill="none" stroke="#000000" d="M-27.39627-41.27882H27.39627"/>
<path transform="matrix(1,0,0,-1.00003,51.983,55.22039)" stroke-width=".3985" stroke-linecap="butt" stroke-miterlimit="10" stroke-linejoin="miter" fill="none" stroke="#000000" d="M30.79265-38.81123 47.72507 13.29883"/>
<path transform="matrix(1,0,0,-1.00003,51.983,55.22039)" stroke-width=".3985" stroke-linecap="butt" stroke-miterlimit="10" stroke-linejoin="miter" fill="none" stroke="#000000" d="M46.42781 17.29149 2.09903 49.49927"/>
<path transform="matrix(1,0,0,-1.00003,51.983,55.22039)" stroke-width=".3985" stroke-linecap="butt" stroke-miterlimit="10" stroke-linejoin="miter" fill="none" stroke="#000000" d="M-.80173 24.46179-15.02698-19.31978"/>
<path transform="matrix(1,0,0,-1.00003,51.983,55.22039)" stroke-width=".3985" stroke-linecap="butt" stroke-miterlimit="10" stroke-linejoin="miter" fill="none" stroke="#000000" d="M-23.51242 6.7974 13.72972-20.2623"/>
<path transform="matrix(1,0,0,-1.00003,51.983,55.22039)" stroke-width=".3985" stroke-linecap="butt" stroke-miterlimit="10" stroke-linejoin="miter" fill="none" stroke="#000000" d="M-13.72972-20.2623 23.51242 6.7974"/>
<path transform="matrix(1,0,0,-1.00003,51.983,55.22039)" stroke-width=".3985" stroke-linecap="butt" stroke-miterlimit="10" stroke-linejoin="miter" fill="none" stroke="#000000" d="M15.02698-19.31978 .80173 24.46179"/>
<path transform="matrix(1,0,0,-1.00003,51.983,55.22039)" stroke-width=".3985" stroke-linecap="butt" stroke-miterlimit="10" stroke-linejoin="miter" fill="none" stroke="#000000" d="M23.01682 8.32245H-23.01682"/>
<path transform="matrix(1,0,0,-1.00003,51.983,55.22039)" stroke-width=".3985" stroke-linecap="butt" stroke-miterlimit="10" stroke-linejoin="miter" fill="none" stroke="#000000" d="M0 48.42972V29.52397"/>
<path transform="matrix(1,0,0,-1.00003,51.983,55.22039)" stroke-width=".3985" stroke-linecap="butt" stroke-miterlimit="10" stroke-linejoin="miter" fill="none" stroke="#000000" d="M-46.05919 14.96483-28.07909 9.12404"/>
<path transform="matrix(1,0,0,-1.00003,51.983,55.22039)" stroke-width=".3985" stroke-linecap="butt" stroke-miterlimit="10" stroke-linejoin="miter" fill="none" stroke="#000000" d="M-28.46577-39.17987-17.35378-23.88635"/>
<path transform="matrix(1,0,0,-1.00003,51.983,55.22039)" stroke-width=".3985" stroke-linecap="butt" stroke-miterlimit="10" stroke-linejoin="miter" fill="none" stroke="#000000" d="M28.46577-39.17987 17.35378-23.88635"/>
<path transform="matrix(1,0,0,-1.00003,51.983,55.22039)" stroke-width=".3985" stroke-linecap="butt" stroke-miterlimit="10" stroke-linejoin="miter" fill="none" stroke="#000000" d="M46.05919 14.96483 28.07909 9.12404"/>
</svg>
