<svg xmlns="http://www.w3.org/2000/svg" xmlns:xlink="http://www.w3.org/1999/xlink" xmlns:inkscape="http://www.inkscape.org/namespaces/inkscape" version="1.1" width="101" height="102" viewBox="0 0 101 102">
<defs>
<path id="font_1_1" d="M.3039856 .6392822C.3039856 .6642761 .30299378 .666275 .27799989 .666275 .21598816 .60227969 .12399292 .60227969 .09298706 .60227969V.57128909C.11199951 .57128909 .17298889 .57128909 .22698975 .5972748V.08001709C.22698975 .042999269 .22399903 .0309906 .1309967 .0309906H.09899902V0C.1349945 .0029907227 .22399903 .0029907227 .2649994 .0029907227 .30599977 .0029907227 .3959961 .0029907227 .43199159 0V.0309906H.3999939C.30699159 .0309906 .3039856 .042999269 .3039856 .08001709V.6392822Z"/>
<path id="font_1_2" d="M.46199037 .17704773H.43399049C.43199159 .16404724 .42399598 .10501099 .41099549 .08900452 .40499879 .07998657 .33599855 .07998657 .31599427 .07998657H.13798523L.23699951 .17404175C.40098573 .3161316 .46199037 .36915589 .46199037 .4711914 .46199037 .5860901 .36698915 .6660156 .24398804 .6660156 .1289978 .6660156 .050994874 .575119 .050994874 .4841919 .050994874 .43418885 .09399414 .42919923 .102996829 .42919923 .125 .42919923 .15499878 .44519044 .15499878 .48120118 .15499878 .51119998 .13398743 .5332031 .102996829 .5332031 .09799194 .5332031 .09498596 .5332031 .09098816 .53219607 .114990238 .6030731 .1789856 .63500979 .23298645 .63500979 .33499146 .63500979 .36999513 .5401764 .36999513 .4711914 .36999513 .36915589 .29299928 .28611756 .24499512 .23408509L.06199646 .035995485C.050994874 .024993897 .050994874 .022994996 .050994874 0H.43399049L.46199037 .17704773Z"/>
<path id="font_1_4" d="M.0289917 .19602967V.16503906H.3019867V.07901001C.3019867 .041992189 .29899598 .0309906 .22399903 .0309906H.20199585V0C.2649994 .0029907227 .33499146 .0029907227 .34199525 .0029907227 .34700013 .0029907227 .4189911 .0029907227 .48199464 0V.0309906H.45999146C.3849945 .0309906 .38198854 .041992189 .38198854 .07901001V.16503906H.48399354V.19602967H.38198854V.64974978C.38198854 .669754 .38198854 .6767578 .36299134 .6767578 .35099793 .6767578 .34999085 .67575076 .34098817 .66174319L.0289917 .19602967M.06098938 .19602967 .30799867 .56581118V.19602967H.06098938Z"/>
<path id="font_1_3" d="M.30499269 .35195924C.397995 .38697816 .44198609 .46006776 .44198609 .5290985 .44198609 .60606387 .35699464 .6660156 .25299073 .6660156 .14898682 .6660156 .070999149 .60705569 .070999149 .5310974 .070999149 .49809266 .09298706 .47909547 .12199402 .47909547 .15098572 .47909547 .17199707 .50009158 .17199707 .5290985 .17199707 .5640869 .147995 .57910159 .11399841 .57910159 .13999939 .6210327 .20098877 .64100649 .25 .64100649 .33299256 .64100649 .34899903 .5750885 .34899903 .52809146 .34899903 .49809266 .34298707 .45005799 .31799317 .41201783 .2869873 .36695863 .2519989 .36495973 .22299195 .36296083 .19799805 .36094667 .19599915 .36094667 .18798828 .36094667 .1789856 .35995484 .17098999 .35894776 .17098999 .34794618 .17098999 .33496095 .1789856 .33496095 .19599915 .33496095H.24299622C.32998658 .33496095 .36799623 .2646637 .36799623 .16937256 .36799623 .04145813 .2999878 .0055389406 .24899292 .0055389406 .22999573 .0055389406 .1329956 .010528564 .08799744 .0843811 .12399292 .07939148 .1519928 .10437012 .1519928 .13838196 .1519928 .17137146 .1269989 .19238281 .09799194 .19238281 .07299805 .19238281 .042999269 .17736817 .042999269 .13537598 .042999269 .046447755 .13598633-.022460938 .2519989-.022460938 .3769989-.022460938 .46998597 .06741333 .46998597 .16937256 .46998597 .25663758 .40098573 .33093263 .30499269 .35195924Z"/>
<path id="font_1_5" d="M.10398865 .3444519C.10398865 .32641603 .10398865 .31539918 .117996219 .31539918 .12599182 .31539918 .1289978 .31941224 .1349945 .32843019 .16499329 .3704834 .21299744 .39453126 .2649994 .39453126 .37199403 .39453126 .37199403 .24029541 .37199403 .20425415 .37199403 .17324829 .37199403 .11125183 .34399415 .06637573 .31698609 .024475098 .2749939 .0055389406 .23599243 .0055389406 .1769867 .0055389406 .10998535 .042434694 .085998538 .116256717 .08699036 .116256717 .09298706 .11425781 .099990848 .11425781 .11999512 .11425781 .14898682 .12724304 .14898682 .16325379 .14898682 .19424439 .1269989 .21224976 .099990848 .21224976 .07899475 .21224976 .050994874 .20025635 .050994874 .1602478 .050994874 .069366458 .1269989-.022460938 .23799134-.022460938 .35899354-.022460938 .46199037 .0753479 .46199037 .19924927 .46199037 .3204193 .37599183 .41952516 .2669983 .41952516 .21899414 .41952516 .16999817 .40351869 .1349945 .36747743V.56477358C.16499329 .5557709 .19599915 .55078127 .22698975 .55078127 .34999085 .55078127 .42199708 .6397705 .42199708 .652771 .42199708 .6617737 .41600038 .6657715 .41099549 .6657715 .40899659 .6657715 .40699769 .6657715 .397995 .6607666 .35099793 .6417694 .30499269 .6337738 .2630005 .6337738 .21998596 .6337738 .1749878 .6417694 .1289978 .6607666 .11898804 .6657715 .116989139 .6657715 .115997318 .6657715 .10398865 .6657715 .10398865 .655777 .10398865 .6387787V.3444519Z"/>
</defs>
<path transform="matrix(1.00002,0,0,-1.00005,50.18728,57.767637)" d="M2.39534 45.35506C2.39534 46.67798 1.32292 47.7504 0 47.7504-1.32292 47.7504-2.39534 46.67798-2.39534 45.35506-2.39534 44.03214-1.32292 42.9597 0 42.9597 1.32292 42.9597 2.39534 44.03214 2.39534 45.35506ZM0 45.35506"/>
<path transform="matrix(1.00002,0,0,-1.00005,50.18728,57.767637)" d="M-37.29001 11.33855C-37.29001 12.66147-38.36243 13.73389-39.68535 13.73389-41.00827 13.73389-42.08069 12.66147-42.08069 11.33855-42.08069 10.01563-41.00827 8.94319-39.68535 8.94319-38.36243 8.94319-37.29001 10.01563-37.29001 11.33855ZM-39.68535 11.33855"/>
<path transform="matrix(1.00002,0,0,-1.00005,50.18728,57.767637)" d="M42.08069 11.33855C42.08069 12.66147 41.00827 13.73389 39.68535 13.73389 38.36243 13.73389 37.29001 12.66147 37.29001 11.33855 37.29001 10.01563 38.36243 8.94319 39.68535 8.94319 41.00827 8.94319 42.08069 10.01563 42.08069 11.33855ZM39.68535 11.33855"/>
<path transform="matrix(1.00002,0,0,-1.00005,50.18728,57.767637)" d="M-37.29001-31.18166C-37.29001-29.85873-38.36243-28.7863-39.68535-28.7863-41.00827-28.7863-42.08069-29.85873-42.08069-31.18166-42.08069-32.50458-41.00827-33.577-39.68535-33.577-38.36243-33.577-37.29001-32.50458-37.29001-31.18166ZM-39.68535-31.18166"/>
<path transform="matrix(1.00002,0,0,-1.00005,50.18728,57.767637)" d="M42.08069-31.18166C42.08069-29.85873 41.00827-28.7863 39.68535-28.7863 38.36243-28.7863 37.29001-29.85873 37.29001-31.18166 37.29001-32.50458 38.36243-33.577 39.68535-33.577 41.00827-33.577 42.08069-32.50458 42.08069-31.18166ZM39.68535-31.18166"/>
<path transform="matrix(1.00002,0,0,-1.00005,50.18728,57.767637)" stroke-width="1.19553" stroke-linecap="butt" stroke-miterlimit="10" stroke-linejoin="miter" fill="none" stroke="#000000" d="M-1.96985 43.66661-37.7155 13.02702"/>
<path transform="matrix(1.00002,0,0,-1.00005,50.18728,57.767637)" stroke-width="1.19553" stroke-linecap="butt" stroke-miterlimit="10" stroke-linejoin="miter" fill="none" stroke="#000000" d="M-39.68535 8.74394V-28.58705"/>
<path transform="matrix(1.00002,0,0,-1.00005,50.18728,57.767637)" stroke-width="1.19553" stroke-linecap="butt" stroke-miterlimit="10" stroke-linejoin="miter" fill="none" stroke="#000000" d="M1.96985 43.66661 37.7155 13.02702"/>
<path transform="matrix(1.00002,0,0,-1.00005,50.18728,57.767637)" stroke-width="1.19553" stroke-linecap="butt" stroke-miterlimit="10" stroke-linejoin="miter" fill="none" stroke="#000000" d="M39.68535 8.74394V-28.58705"/>
<path transform="matrix(1.00002,0,0,-1.00005,50.18728,57.767637)" stroke-width=".3985" stroke-linecap="butt" stroke-dasharray="2.98883,2.98883" stroke-miterlimit="10" stroke-linejoin="miter" fill="none" stroke="#000000" d="M-38.49112-28.8784-1.19423 43.0518"/>
<path transform="matrix(1.00002,0,0,-1.00005,50.18728,57.767637)" stroke-width=".3985" stroke-linecap="butt" stroke-dasharray="2.98883,2.98883" stroke-miterlimit="10" stroke-linejoin="miter" fill="none" stroke="#000000" d="M37.39838-29.9565-37.39838 10.11339"/>
<use data-text="1" xlink:href="#font_1_1" transform="matrix(8.966579,0,0,-8.966848,47.883234,6.898094)"/>
<use data-text="2" xlink:href="#font_1_2" transform="matrix(8.966579,0,0,-8.966848,.3812828,49.318216)"/>
<use data-text="4" xlink:href="#font_1_4" transform="matrix(8.966579,0,0,-8.966848,95.386188,49.318216)"/>
<use data-text="3" xlink:href="#font_1_3" transform="matrix(8.966579,0,0,-8.966848,8.197441,100.24176)"/>
<use data-text="5" xlink:href="#font_1_5" transform="matrix(8.966579,0,0,-8.966848,87.56903,100.24176)"/>
</svg>
